<?xml version="1.0" encoding="UTF-8"?> <!-- Generator: Adobe Illustrator 24.0.1, SVG Export Plug-In . SVG Version: 6.00 Build 0) --> <svg xmlns="http://www.w3.org/2000/svg" xmlns:xlink="http://www.w3.org/1999/xlink" version="1.1" id="Artboard_1" x="0px" y="0px" width="1451.5212402px" height="202.3344727px" viewBox="0 0 1451.5212402 202.3344727" style="enable-background:new 0 0 1451.5212402 202.3344727;" xml:space="preserve"> <style type="text/css"> .st0{fill:#FFFFFF;} .st1{fill:#003A96;} .st2{fill:#009CA6;} </style> <g> <g> <path class="st0" d="M215.3385315,75.8012466l28.8176422,68.8516312l28.0984344-68.8516312h20.1713867v90.2034683h-15.8501892 V95.4732819l-26.6560974,65.9737701h-14.16745l-26.6560974-65.9737701v70.5314331h-14.1694031V75.8012466H215.3385315z"></path> <path class="st0" d="M310.5608826,101.9511414c0,0,8.1654968-2.87883,21.1329651-2.87883 c9.846283,0,18.7309875,1.678833,23.2945251,8.1557159c3.6019592,5.0384521,3.6019592,11.7557297,3.6019592,17.7537918v22.5498886 c0,2.759613,0,7.6768951,5.642334,7.6768951c1.8019714,0,3.4827576-0.4788361,3.4827576-0.4788361v11.0345612 c0,0-3.6019592,0.95961-8.4058838,0.95961c-8.4039307,0-13.686676-2.8788452-14.6482544-11.7547607 c-2.401947,7.6768951-9.8462524,11.9951477-19.4521484,11.9951477c-12.9674683,0-21.1329346-7.9172821-21.1329346-19.7922211 c0-14.2739868,11.7674255-21.2306747,32.6600037-21.2306747c3.8423462,0,6.2442932,0.2394104,6.2442932,0.2394104 c0-5.5182495,0-8.1566925-1.9211731-11.0355301c-1.9211731-2.7586365-5.1635132-4.3182449-11.6462708-4.3182449 c-9.4866638,0-17.8925476,3.3586349-17.8925476,3.3586349h-0.9596252V101.9511414z M329.6514893,155.2086029 c4.6827393,0,9.0058899-2.1586456,11.16745-6.236496c2.1615601-4.0788422,2.1615601-8.8769073,2.1615601-11.5153351v-1.4403992 H339.37854c-6.9654846,0-18.9713745,0-18.9713745,10.3163147 C320.4071655,151.6105499,323.5283508,155.2086029,329.6514893,155.2086029z"></path> <path class="st0" d="M418.6295471,114.1856995h-0.9615784c0,0-8.4039307-3.3586349-15.8482361-3.3586349 c-6.7250977,0-9.846283,2.6394196-9.846283,5.9970779c0,10.1961136,29.7772827,7.1980667,29.7772827,29.9883423 c0,14.0345612-11.1654968,20.1518402-27.0157166,20.1518402c-11.4078369,0-18.6117554-3.1192322-18.6117554-3.1192322v-12.7143555 h0.9615784c0,0,10.0846863,4.0778656,18.4905701,4.0778656c7.203949,0,10.3270874-2.8788452,10.3270874-6.7172852 c0-11.874939-29.7792358-8.3961182-29.7792358-29.8671722c0-11.9951401,9.3654785-19.5518341,26.0560913-19.5518341 c9.3654785,0,16.4501953,2.3980484,16.4501953,2.3980484V114.1856995z"></path> <path class="st0" d="M473.8628845,114.1856995h-0.9595947c0,0-8.4058838-3.3586349-15.8501892-3.3586349 c-6.7231445,0-9.846283,2.6394196-9.846283,5.9970779c0,10.1961136,29.7792053,7.1980667,29.7792053,29.9883423 c0,14.0345612-11.16745,20.1518402-27.0176392,20.1518402c-11.4058838,0-18.6098022-3.1192322-18.6098022-3.1192322v-12.7143555 h0.9595947c0,0,10.0866699,4.0778656,18.4906006,4.0778656c7.2058716,0,10.3270569-2.8788452,10.3270569-6.7172852 c0-11.874939-29.7772522-8.3961182-29.7772522-29.8671722c0-11.9951401,9.3654785-19.5518341,26.0541077-19.5518341 c9.3674622,0,16.4501953,2.3980484,16.4501953,2.3980484V114.1856995z"></path> <path class="st0" d="M586.3739014,118.264534v44.142128c0,0-11.7674561,4.7980499-27.7368774,4.7980499 c-27.7388306,0-46.7102051-14.394165-46.7102051-45.5825119c0-31.9065857,19.9329834-46.7805634,48.7506104-46.7805634 c13.2078247,0,22.8137207,3.1192245,22.8137207,3.1192245v12.7143631h-0.9595947c0,0-9.3674316-3.8384476-21.3733521-3.8384476 c-19.9329224,0-32.1811523,10.5557251-32.1811523,33.8258133c0,23.2710648,12.24823,34.5460129,29.7791748,34.5460129 c6.7231445,0,11.7674561-1.678833,11.7674561-1.678833v-23.2710724h-16.0905762V118.264534H586.3739014z"></path> <path class="st0" d="M653.6151123,164.085495c0,0-9.0039062,2.87883-20.8925781,2.87883 c-12.7270508,0-20.1713867-3.3586426-25.2156982-8.1566925c-6.0019531-5.7576752-8.8847046-14.3941803-8.8847046-25.3095093 c0-21.4720383,11.0462646-35.1460114,30.7388306-35.1460114c10.8059082,0,18.9713745,4.077858,23.5349121,11.5153351 c4.5615845,7.4374771,4.5615845,17.2730103,4.5615845,27.589325H614.953125 c0,11.2749329,6.4827271,17.992218,18.9713745,17.992218c9.1251221,0,18.7310181-3.598053,18.7310181-3.598053h0.9595947 V164.085495z M641.3688354,126.6606445c0-11.0355301-3.3615723-17.2730026-12.4886475-17.2730026 c-9.2443237,0-12.9674683,6.597084-13.927063,17.2730026H641.3688354z"></path> <path class="st0" d="M683.0366821,100.0319214l2.8807983,11.2749481 c2.1615601-7.6768951,8.1654663-12.7153397,19.5733032-12.7153397c10.2058716,0,15.9694214,4.0788345,19.0906372,8.6364975 c3.8423462,5.5182571,3.8423462,11.9961243,3.8423462,19.9124298v38.8642578h-15.8502197v-39.1036758 c0-3.8384476,0-7.6768875-2.1615601-10.7961121c-2.1596069-3.1192322-5.2827759-4.7980576-10.4462891-4.7980576 c-11.8866577,0-13.3270874,9.1163025-13.3270874,14.394165v40.3036804h-15.8501587v-65.9727936H683.0366821z"></path> <path class="st0" d="M795.5457153,164.085495c0,0-9.0039062,2.87883-20.8925171,2.87883 c-12.7271118,0-20.1713867-3.3586426-25.2156982-8.1566925c-6.0020142-5.7576752-8.8847046-14.3941803-8.8847046-25.3095093 c0-21.4720383,11.0462646-35.1460114,30.7388306-35.1460114c10.8058472,0,18.9713745,4.077858,23.5348511,11.5153351 c4.5615845,7.4374771,4.5615845,17.2730103,4.5615845,27.589325H756.883728 c0,11.2749329,6.4827881,17.992218,18.9713745,17.992218c9.1251221,0,18.7310181-3.598053,18.7310181-3.598053h0.9595947 V164.085495z M783.2994385,126.6606445c0-11.0355301-3.3615723-17.2730026-12.4886475-17.2730026 c-9.2443237,0-12.9674072,6.597084-13.927063,17.2730026H783.2994385z"></path> <path class="st0" d="M849.7022095,114.1856995c0,0-3.2423706-0.7192154-6.9655151-0.7192154 c-14.1674194,0-14.1674194,10.435524-14.1674194,15.5931931v36.9450378h-15.8502197v-65.9727936h12.0078735l3.1211548,12.9537735 c2.4019775-11.0345535,10.5674438-13.6739731,20.1733398-13.6739731h1.6807861V114.1856995z"></path> <path class="st0" d="M860.0292358,101.9511414c0,0,8.1655273-2.87883,21.1329956-2.87883 c9.8462524,0,18.7329102,1.678833,23.2944946,8.1557159c3.6019897,5.0384521,3.6019897,11.7557297,3.6019897,17.7537918 v22.5498886c0,2.759613,0,7.6768951,5.6442871,7.6768951c1.7999878,0,3.4827271-0.4788361,3.4827271-0.4788361v11.0345612 c0,0-3.6038818,0.95961-8.4058838,0.95961c-8.4058838,0-13.6885986-2.8788452-14.6482544-11.7547607 c-2.4019165,7.6768951-9.8462524,11.9951477-19.4521484,11.9951477c-12.9694214,0-21.1329346-7.9172821-21.1329346-19.7922211 c0-14.2739868,11.7674561-21.2306747,32.6600342-21.2306747c3.8423462,0,6.2423096,0.2394104,6.2423096,0.2394104 c0-5.5182495,0-8.1566925-1.9211426-11.0355301c-1.9212036-2.7586365-5.1615601-4.3182449-11.6463013-4.3182449 c-9.4866333,0-17.890564,3.3586349-17.890564,3.3586349h-0.9616089V101.9511414z M879.1218262,155.2086029 c4.6827393,0,9.0058594-2.1586456,11.1674194-6.236496c2.1596069-4.0788422,2.1596069-8.8769073,2.1596069-11.5153351v-1.4403992 h-3.6019287c-6.963562,0-18.9713745,0-18.9713745,10.3163147 C869.8755493,151.6105499,872.9986572,155.2086029,879.1218262,155.2086029z"></path> <path class="st0" d="M942.7610474,72.4426041v40.5430984v53.0190125h-15.6078491V72.4426041H942.7610474z"></path> <path class="st0" d="M1016.246582,75.8012466c6.9654541,0,14.6501465,0,21.1329346,3.8384476 c5.5231934,3.2384415,9.8463135,8.8768921,9.8463135,18.3528061c0,17.9922256-15.8502197,19.7912521-15.8502197,19.7912521 s21.1329346,0.95961,21.1329346,22.3114471c0,10.3153381-4.802002,16.7932129-11.2866211,20.8710632 c-7.9251709,5.0384521-17.050293,5.0384521-24.4945679,5.0384521h-29.5388184V75.8012466H1016.246582z M1003.0386963,112.9856949 h11.0463257c3.6038818,0,7.3250732,0,10.8078003-1.91922c3.3615723-1.91922,5.7635498-5.276886,5.7635498-10.7951355 c0-5.5182571-2.4019775-9.1163101-5.7635498-11.0355301c-3.4827271-1.9192276-7.2039185-1.9192276-10.8078003-1.9192276 h-11.0463257V112.9856949z M1003.0386963,154.4893799h12.9674683c4.0827637,0,8.7654419,0,13.4483032-2.638443 c4.2038574-2.4000092,6.4846191-6.2384491,6.4846191-11.9961243c0-5.7576599-2.2807617-9.5961151-6.4846191-11.9941635 c-4.6828613-2.6394196-9.3655396-2.6394196-13.4483032-2.6394196h-12.9674683V154.4893799z"></path> <path class="st0" d="M1101.6207275,114.1856995c0,0-3.2404785-0.7192154-6.963501-0.7192154 c-14.1694336,0-14.1694336,10.435524-14.1694336,15.5931931v36.9450378h-15.8482666v-65.9727936h12.0058594l3.1231689,12.9537735 c2.4000244-11.0345535,10.5654297-13.6739731,20.1713867-13.6739731h1.6807861V114.1856995z"></path> <path class="st0" d="M1128.3999023,81.3185272c0,5.2788391-3.8422852,9.3566971-9.4866943,9.3566971 c-5.6442871,0-9.4865723-4.077858-9.4865723-9.3566971c0-5.276886,3.8422852-9.3557281,9.4865723-9.3557281 C1124.5576172,71.9627991,1128.3999023,76.0416412,1128.3999023,81.3185272z M1126.7171631,100.0319214v12.9537735v53.0190201 h-15.6077881v-65.9727936H1126.7171631z"></path> <path class="st0" d="M1168.7446289,141.0548248c-3.2423096,0-6.2442627-0.2404022-9.0058594-0.8394165 c-1.5616455,0.8394165-3.4827881,2.3990173-3.4827881,5.3970795c0,5.0384369,5.2827148,5.0384369,8.8867188,5.0384369h11.2866211 c8.1635742,0,25.9349365,0,25.9349365,17.7528229c0,14.394165-11.5270996,22.0710602-35.6619873,22.0710602 c-21.1329346,0-30.3771973-5.8778687-30.3771973-15.9537811c0-11.6355438,12.2462158-13.1941681,12.8461914-13.3143768 c-0.3596191-0.1201935-8.5250244-2.87883-8.5250244-11.2749329c0-8.5172882,8.1654053-11.2759247,12.3674316-12.1153412 c-7.2039795-3.5990295-11.4058838-9.9557266-11.4058838-18.1133957c0-12.9537811,10.5654297-21.3508682,27.1368408-21.3508682 c8.1635742,0,14.8886719,2.0394211,19.5714111,5.7576675c3.0019531-8.3970871,9.9654541-8.3970871,14.0482178-8.3970871h1.4404297 v12.9557343c0,0-2.4000244-0.4807816-5.2828369-0.4807816c-3.1210938,0-4.6827393,0.5999985-5.5230713,0.95961 c1.8018799,2.9990311,2.8826904,6.5980606,2.8826904,10.5557251 C1195.8814697,132.6587067,1185.3140869,141.0548248,1168.7446289,141.0548248z M1155.2963867,163.6056824 c0,0-4.5634766,2.3990326-4.5634766,7.9163055c0,5.7576752,5.0423584,8.3970947,16.5693359,8.3970947 c12.7290039,0,19.4521484-3.1182556,19.4521484-9.3567047c0-6.7172852-8.1634521-6.9566956-12.0058594-6.9566956H1155.2963867z M1179.7908936,119.70298c0-6.7172852-4.0827637-10.3153381-11.0462646-10.3153381 c-6.9654541,0-11.0482178,3.598053-11.0482178,10.3153381c0,6.7172775,4.0827637,10.3163071,11.0482178,10.3163071 C1175.7081299,130.0192871,1179.7908936,126.4202576,1179.7908936,119.70298z"></path> <path class="st0" d="M1229.6223145,72.4426041v37.9046478c2.161499-6.9576645,7.4462891-11.755722,18.7329102-11.755722 c10.3250732,0,16.088623,4.0788345,19.211792,8.6364975c3.8424072,5.5182571,3.8424072,11.9961243,3.8424072,19.9124298 v38.8642578h-15.8502197v-39.1036758c0-3.8384476,0-7.6768875-2.1616211-10.7961121 c-2.161499-3.1192322-5.2827148-4.7980576-10.4462891-4.7980576c-11.8865967,0-13.3289795,9.1163025-13.3289795,14.394165 v40.3036804h-15.6079102V72.4426041H1229.6223145z"></path> <path class="st0" d="M1288.821167,101.9511414c0,0,8.1654053-2.87883,21.1329346-2.87883 c9.8463135,0,18.730957,1.678833,23.2945557,8.1557159c3.6019287,5.0384521,3.6019287,11.7557297,3.6019287,17.7537918v22.5498886 c0,2.759613,0,7.6768951,5.642334,7.6768951c1.802002,0,3.4827881-0.4788361,3.4827881-0.4788361v11.0345612 c0,0-3.6020508,0.95961-8.4058838,0.95961c-8.4039307,0-13.6867676-2.8788452-14.6483154-11.7547607 c-2.4019775,7.6768951-9.8461914,11.9951477-19.4521484,11.9951477c-12.9674072,0-21.1329346-7.9172821-21.1329346-19.7922211 c0-14.2739868,11.7674561-21.2306747,32.6600342-21.2306747c3.8422852,0,6.2442627,0.2394104,6.2442627,0.2394104 c0-5.5182495,0-8.1566925-1.9211426-11.0355301c-1.9211426-2.7586365-5.1635742-4.3182449-11.6462402-4.3182449 c-9.4866943,0-17.8925781,3.3586349-17.8925781,3.3586349h-0.9595947V101.9511414z M1307.9117432,155.2086029 c4.6827393,0,9.0058594-2.1586456,11.1674805-6.236496c2.161499-4.0788422,2.161499-8.8769073,2.161499-11.5153351v-1.4403992 h-3.6019287c-6.9654541,0-18.9714355,0-18.9714355,10.3163147 C1298.6673584,151.6105499,1301.7885742,155.2086029,1307.9117432,155.2086029z"></path> <path class="st0" d="M1368.1914062,100.0319214l2.8807373,11.2749481 c1.9211426-7.4365005,7.4443359-12.7153397,19.0925293-12.7153397c11.4058838,0,17.1694336,5.0384445,20.052124,13.1951447 c3.1212158-8.8759155,9.1251221-13.1951447,19.211792-13.1951447c10.3251953,0,15.8502197,4.5586395,18.4906006,8.6364975 c3.6020508,5.5182571,3.6020508,11.9961243,3.6020508,19.9124298v38.8642578h-15.8482666v-39.1036758 c0-3.8384476,0-7.6768875-1.9212646-10.7961121c-1.6827393-2.638443-4.5634766-4.7980576-9.8461914-4.7980576 c-10.8078613,0-12.248291,9.1163025-12.248291,14.394165v40.3036804h-15.8502197v-39.1036758 c0-3.8384476,0-7.6768875-1.9211426-10.7961121c-1.6807861-2.638443-4.5615234-4.7980576-9.8463135-4.7980576 c-10.8057861,0-12.2462158,9.1163025-12.2462158,14.394165v40.3036804h-15.8502197v-65.9727936H1368.1914062z"></path> </g> <g> <polygon class="st0" points="18.9145184,75.799469 0.0000268,75.799469 0.0000268,107.8858719 0.0000268,136.9543304 18.9145184,136.9543304 "></polygon> <polygon class="st0" points="40.6292458,75.799469 40.6292458,107.8858719 40.6292458,136.9543304 59.5437393,136.9543304 59.5437393,75.799469 "></polygon> <polygon class="st0" points="81.2584686,75.799469 81.2584686,107.8858719 81.2584686,136.9543304 100.1729584,136.9543304 100.1729584,75.799469 "></polygon> <polygon class="st0" points="0.0000268,64.3464966 70.4009476,64.3464966 140.8018646,64.3464966 140.8018646,47.1217384 0.0000268,47.1217384 "></polygon> <polygon class="st0" points="70.4009476,0 0.0000268,23.4669724 0.0000268,41.2549934 70.4009476,17.7880211 140.8018646,41.2549934 140.8018646,23.4669724 "></polygon> <path class="st0" d="M140.8019104,135.5944824c-0.3742676,1.0350342-7.1984558,12.8128204-52.1489105,12.8128204 l-36.5040741-0.0000153C6.0432129,148.7609253,0.877852,154.7613983,0,155.4004517v17.6001892 c0.877852-0.6390533,6.0432129-6.6395264,52.1489258-6.9931641l36.5040741,0.0000153 c44.9504547,0,51.7746429-11.7777863,52.1489105-12.8128052V135.5944824z"></path> <path class="st0" d="M140.8019104,164.9283142c-0.3742676,1.0350342-7.1984558,12.8128052-52.1489105,12.8128052H52.1489258 C6.0432129,178.0947571,0.877852,184.0952301,0,184.7342834v17.6001892 c0.877852-0.6390533,6.0432129-6.6395264,52.1489258-6.9931641l36.5040741,0.0000153 c44.9504547,0,51.7746429-11.7777863,52.1489105-12.8128204V164.9283142z"></path> <path class="st0" d="M121.8881836,75.7993546v58.0080948c15.5068359-3.5654297,18.6633301-9.0624924,18.9135742-9.7548752 V75.7993546H121.8881836z"></path> </g> </g> </svg> 