<?xml version="1.0" encoding="UTF-8"?> <svg xmlns="http://www.w3.org/2000/svg" xmlns:xlink="http://www.w3.org/1999/xlink" viewBox="0 0 109.93 20.42"><defs><style>.cls-1{fill:none;}.cls-2{clip-path:url(#clip-path);}.cls-3{fill:#fff;}</style><clipPath id="clip-path" transform="translate(0 0)"><rect class="cls-1" width="109.93" height="20.42"></rect></clipPath></defs><title>Footer Logo 8HQ Vector</title><g id="Layer_2" data-name="Layer 2"><g id="Layer_1-2" data-name="Layer 1"><g class="cls-2"><path class="cls-3" d="M0,0c0,9.51,0,15.8,8.73,20.4C17.44,15.84,17.46,9.54,17.47,0ZM8.74,19.73C.22,15.35.55,8.05.55.64H16.9c0,7.49.27,14.71-8.16,19.09" transform="translate(0 0)"></path><path class="cls-3" d="M9.46,2c0,1.22.93,1.6.93,2V6.56c-.59,0-.57-.67-.65-1.55a.29.29,0,0,0-.31-.29A.32.32,0,0,0,9.09,5V7.7a.34.34,0,0,1-.68,0V5.62a.09.09,0,1,0-.18,0V7.81a.34.34,0,0,1-.68,0V5.62a.1.1,0,1,0-.19,0V7.7A.32.32,0,0,1,7,8a.32.32,0,0,1-.34-.29V7.53c.21-.14.27-.36.27-.7H6.68V5.62a.09.09,0,1,0-.18,0V6.83H5.82V3.5A3.59,3.59,0,0,0,6.38,2Z" transform="translate(0 0)"></path><path class="cls-3" d="M2.26,7.91c1.22,0,1.58-.92,2-.92H6.77c0,.58-.66.57-1.55.65A.3.3,0,0,0,4.93,8a.32.32,0,0,0,.29.34h2.7a.32.32,0,0,1,.29.34A.32.32,0,0,1,7.92,9H5.84c-.07,0-.11,0-.11.09s0,.09.11.09H8a.34.34,0,0,1,0,.68H5.84c-.07,0-.11,0-.11.09s0,.09.11.09H7.92a.34.34,0,0,1,0,.68H7.74a.73.73,0,0,0-.69-.27v.27H5.84c-.07,0-.11,0-.11.09s0,.09.11.09H7.05v.69H3.72A3.52,3.52,0,0,0,2.25,11Z" transform="translate(0 0)"></path><path class="cls-3" d="M8.13,15.13c0-1.23-.92-1.59-.92-2V10.6c.58,0,.57.67.65,1.55a.29.29,0,0,0,.3.29.32.32,0,0,0,.34-.29V9.46a.32.32,0,0,1,.34-.29.32.32,0,0,1,.34.29v2.08a.1.1,0,1,0,.19,0V9.35a.34.34,0,0,1,.68,0v2.19a.09.09,0,1,0,.18,0V9.46a.34.34,0,0,1,.68,0v.18a.75.75,0,0,0-.26.69h.25v1.21a.1.1,0,0,0,.09.11.11.11,0,0,0,.1-.11V10.33h.68v3.33a3.43,3.43,0,0,0-.56,1.47Z" transform="translate(0 0)"></path><path class="cls-3" d="M15.36,9.24c-1.22,0-1.6.93-2,.93H10.82c0-.59.67-.57,1.55-.65a.3.3,0,0,0,.29-.31.32.32,0,0,0-.29-.34H9.68a.34.34,0,0,1,0-.68h2.08a.09.09,0,1,0,0-.18H9.57a.34.34,0,0,1,0-.68h2.19a.09.09,0,1,0,0-.18H9.68a.32.32,0,0,1-.29-.34.32.32,0,0,1,.29-.34h.16a.79.79,0,0,0,.71.26V6.47h1.21a.11.11,0,0,0,.11-.1.1.1,0,0,0-.11-.09H10.55V5.6h3.33a3.59,3.59,0,0,0,1.47.56Z" transform="translate(0 0)"></path><path class="cls-3" d="M106.48,8.69h-.07a3.46,3.46,0,0,0,0-.38h1.34a3.18,3.18,0,0,0,0,.38h-.08V8.58l0-.12a0,0,0,0,0,0,0h-.42a2.36,2.36,0,0,0,0,.29v1a.24.24,0,0,0,0,.13l0,0h.16v.08h-.66V9.85h.16s0,0,0,0a.2.2,0,0,0,0-.11s0-.12,0-.32v-1h-.41l0,0a.22.22,0,0,0,0,.12Z" transform="translate(0 0)"></path><path class="cls-3" d="M107.83,8.38V8.31h.44c.06.15.12.28.18.4l.43.89.39-.82a4.2,4.2,0,0,0,.21-.47h.45v.07h-.16l0,0a.23.23,0,0,0,0,.11V9.68a.24.24,0,0,0,0,.13l0,0h.16v.08h-.66V9.85h.17s0,0,0,0a.25.25,0,0,0,0-.11,1.73,1.73,0,0,0,0-.32V8.55l-.39.82-.15.31-.11.27h0a.36.36,0,0,1,0-.07l-.08-.17-.54-1.13v1.1a.24.24,0,0,0,0,.13l0,0h.16v.08h-.55V9.85H108s0,0,0,0a.42.42,0,0,0,0-.11V8.55a.31.31,0,0,0,0-.13l0,0h-.16" transform="translate(0 0)"></path><path class="cls-3" d="M23.1,9.6a15.8,15.8,0,0,0,.13-2.13h.46a5.2,5.2,0,0,0,.11,1.18,1,1,0,0,0,.38.38A3.42,3.42,0,0,0,25,9.4a3.18,3.18,0,0,0,1,.16,2.54,2.54,0,0,0,1.28-.32,2,2,0,0,0,.85-.83,2.39,2.39,0,0,0,.27-1.11,2.27,2.27,0,0,0-.13-.78A1.21,1.21,0,0,0,27.83,6a1.75,1.75,0,0,0-.68-.29l-1-.14a13.16,13.16,0,0,1-1.3-.21,3,3,0,0,1-1.05-.52,2.13,2.13,0,0,1-.54-.77A2.53,2.53,0,0,1,23,3a3,3,0,0,1,.42-1.52A2.77,2.77,0,0,1,24.71.4,4,4,0,0,1,26.5,0a5.45,5.45,0,0,1,1.27.16A5.68,5.68,0,0,1,29.05.6a6.76,6.76,0,0,0-.13.81c0,.25-.05.61-.07,1.1H28.4a7.36,7.36,0,0,0-.07-1.15,1.52,1.52,0,0,0-.46-.45,3,3,0,0,0-1.48-.4,2.16,2.16,0,0,0-1.59.61,2.15,2.15,0,0,0-.59,1.57,1.66,1.66,0,0,0,.21.9,1.54,1.54,0,0,0,.76.51,8.74,8.74,0,0,0,1.24.24c.57.08,1.08.16,1.54.25a2.63,2.63,0,0,1,.95.45,2.14,2.14,0,0,1,.51.69,2.43,2.43,0,0,1,.2,1,3.12,3.12,0,0,1-1.13,2.38,4.26,4.26,0,0,1-2.93,1A5.68,5.68,0,0,1,23.1,9.6" transform="translate(0 0)"></path><path class="cls-3" d="M30.65.64V.21c.92,0,1.64,0,2.18,0H34L35,.2h.33a4.93,4.93,0,0,1,1.71.24,2,2,0,0,1,1,.76,2.06,2.06,0,0,1,.35,1.2,2.65,2.65,0,0,1-.29,1.2,2.81,2.81,0,0,1-.84,1,3.64,3.64,0,0,1-1.16.59,3.38,3.38,0,0,1-.93.12,5.43,5.43,0,0,1-1-.09l-.14-.51a4.19,4.19,0,0,0,1,.15,2.09,2.09,0,0,0,1-.25,1.71,1.71,0,0,0,.72-.76A2.42,2.42,0,0,0,37,2.74a2.34,2.34,0,0,0-.25-1.07A1.61,1.61,0,0,0,36,1,2.74,2.74,0,0,0,34.75.7a4.92,4.92,0,0,0-1.4.23c0,.49-.06,1.24-.06,2.27V6.65c0,.62,0,1.23,0,1.82a2.41,2.41,0,0,0,.1.77.48.48,0,0,0,.25.18,5,5,0,0,0,1,.07v.44c-.84,0-1.46,0-1.86,0l-2.14,0V9.49a4.93,4.93,0,0,0,1-.07.41.41,0,0,0,.24-.16A1.69,1.69,0,0,0,32,8.6q0-.15,0-1.95V3.48c0-.62,0-1.22,0-1.82a2.13,2.13,0,0,0-.1-.77.42.42,0,0,0-.25-.17,4.66,4.66,0,0,0-1-.08" transform="translate(0 0)"></path><path class="cls-3" d="M38,9.93V9.47a3.57,3.57,0,0,0,.68-.05.49.49,0,0,0,.24-.14,2.09,2.09,0,0,0,.33-.55c.08-.17.38-.81.89-1.93l1.72-3.86c.18-.43.59-1.37,1.2-2.84h.44L46.41,7c.48,1.12.8,1.82,1,2.1a.68.68,0,0,0,.29.31,2.05,2.05,0,0,0,.69.09v.46c-.71,0-1.21-.07-1.49-.07l-2.21.07V9.47a8.25,8.25,0,0,0,.93-.05.41.41,0,0,0,.22-.1.23.23,0,0,0,.06-.16,1.17,1.17,0,0,0-.09-.39l-.85-2.1H41L40.2,8.43a2.18,2.18,0,0,0-.2.7.2.2,0,0,0,.06.15.39.39,0,0,0,.23.12,5.15,5.15,0,0,0,.89.07v.46c-.77,0-1.35-.06-1.73-.06s-.93,0-1.46.06m3.19-3.84h3.46L42.93,2Z" transform="translate(0 0)"></path><path class="cls-3" d="M48.88.64V.21c.74,0,1.43,0,2.07,0s1.3,0,1.94,0V.64a4.66,4.66,0,0,0-1,.08.37.37,0,0,0-.24.16,1.76,1.76,0,0,0-.1.66c0,.09,0,.74,0,1.94V6A6.13,6.13,0,0,0,51.71,8a1.68,1.68,0,0,0,.6.77,2.49,2.49,0,0,0,.85.38,4.8,4.8,0,0,0,1.19.14,4.65,4.65,0,0,0,1.36-.19,2.51,2.51,0,0,0,.9-.46A1.73,1.73,0,0,0,57.05,8a3.05,3.05,0,0,0,.21-.92,12.1,12.1,0,0,0,.07-1.48V3.48c0-.62,0-1.22,0-1.82a1.92,1.92,0,0,0-.1-.77A.39.39,0,0,0,57,.72a4.62,4.62,0,0,0-1-.08V.21c.75,0,1.3,0,1.64,0s.89,0,1.71,0V.64a4.66,4.66,0,0,0-1,.08.43.43,0,0,0-.24.16,1.57,1.57,0,0,0-.1.66c0,.09,0,.74,0,1.94v2.3a8,8,0,0,1-.24,2.36,2.56,2.56,0,0,1-.86,1.18,3.32,3.32,0,0,1-1.22.6,6,6,0,0,1-1.65.21,5.8,5.8,0,0,1-1.82-.25A2.81,2.81,0,0,1,51,9.22a2.22,2.22,0,0,1-.56-.83,6.37,6.37,0,0,1-.19-1.88v-3c0-.62,0-1.22,0-1.82a2.13,2.13,0,0,0-.1-.77.42.42,0,0,0-.25-.17,4.66,4.66,0,0,0-1-.08" transform="translate(0 0)"></path><path class="cls-3" d="M60.45,9.93V9.58A2.47,2.47,0,0,0,61,9.26a.28.28,0,0,0,.09-.16,4,4,0,0,0,.09-.82c0-.62,0-1,0-1.11V3.48c0-.62,0-1.22,0-1.82a2.13,2.13,0,0,0-.1-.77.42.42,0,0,0-.25-.17,4.66,4.66,0,0,0-1-.08V.2c1.11,0,1.8,0,2.07,0s.94,0,2,0V.64a4.66,4.66,0,0,0-1,.08.39.39,0,0,0-.24.16,1.57,1.57,0,0,0-.1.66c0,.09,0,.74,0,1.94v4.6c0,.48,0,.87,0,1.17.52,0,1,.05,1.54.05a9.89,9.89,0,0,0,2.71-.25A3.2,3.2,0,0,0,67,8.58l.27-1.13h.46c-.1.68-.2,1.47-.29,2.39a3.91,3.91,0,0,1-.45.07c-.24,0-.6,0-1.1,0l-4.05,0c-.44,0-.88,0-1.34,0" transform="translate(0 0)"></path><path class="cls-3" d="M68.78,9.93V9.6a6.29,6.29,0,0,0,.65-.41c0-.31,0-.74.07-1.29,0-.94,0-1.59,0-2V3.15c0-.44,0-1,0-1.57a2.51,2.51,0,0,0-.1-.7.24.24,0,0,0-.15-.13,2.87,2.87,0,0,0-.94-.11V.21l1.77,0,1.6,0,1.58,0A7,7,0,0,1,76,.62a4,4,0,0,1,1.74,1.43,4.18,4.18,0,0,1,.71,2.46,5.44,5.44,0,0,1-.34,2,5.16,5.16,0,0,1-.91,1.59A4.73,4.73,0,0,1,76,9.13a5.26,5.26,0,0,1-1.38.6,7.87,7.87,0,0,1-2,.2l-1.13,0-1.22,0-1.46,0m2.11-.74a10.13,10.13,0,0,0,1.59.13A7,7,0,0,0,74,9.17a4.51,4.51,0,0,0,1.13-.43,3.33,3.33,0,0,0,.9-.81,3.62,3.62,0,0,0,.68-1.36A6.23,6.23,0,0,0,77,4.84a4.9,4.9,0,0,0-.45-2.18,3.09,3.09,0,0,0-1.37-1.4A5.53,5.53,0,0,0,72.61.77,12.57,12.57,0,0,0,70.89.9c0,.23,0,.62,0,1.19l0,1V5.82l0,2.12c0,.32,0,.74,0,1.25" transform="translate(0 0)"></path><path class="cls-3" d="M83.36,9.49v.44l-1.91,0-2.12,0V9.49a4.76,4.76,0,0,0,1-.07.47.47,0,0,0,.25-.16,1.76,1.76,0,0,0,.1-.66c0-.1,0-.75,0-1.95V3.48c0-.62,0-1.22,0-1.82a2.41,2.41,0,0,0-.1-.77.44.44,0,0,0-.26-.17,4.5,4.5,0,0,0-1-.08V.2c.87,0,1.55,0,2,0s1.13,0,2,0V.64a4.66,4.66,0,0,0-1,.08.43.43,0,0,0-.24.16,1.76,1.76,0,0,0-.1.66c0,.09,0,.74,0,1.94V6.65c0,.62,0,1.23,0,1.82a1.92,1.92,0,0,0,.1.77.44.44,0,0,0,.25.18,5,5,0,0,0,1,.07" transform="translate(0 0)"></path><path class="cls-3" d="M84.13,9.93V9.49a2.68,2.68,0,0,0,1-.11.25.25,0,0,0,.14-.13,2.77,2.77,0,0,0,.09-.71c0-.61,0-1.12,0-1.56V1.41a.85.85,0,0,0,0-.29.9.9,0,0,0-.25-.3.57.57,0,0,0-.28-.14,6.59,6.59,0,0,0-.72,0V.2l1.49,0c.35,0,.69,0,1,0l.84,1.13,1.4,1.74,2,2.48c.65.8,1.17,1.42,1.57,1.88.25.3.47.53.64.71v-5c0-.45,0-1,0-1.57A2.86,2.86,0,0,0,93,.87a.28.28,0,0,0-.14-.12,2.92,2.92,0,0,0-.94-.11V.2c.54,0,1.08,0,1.63,0s1,0,1.42,0V.64A2.92,2.92,0,0,0,94,.75a.25.25,0,0,0-.14.13,2.27,2.27,0,0,0-.1.72c0,.6,0,1.12,0,1.55V6.44c0,.67,0,1.91,0,3.73L93,10l-.17,0-.07,0a2,2,0,0,1-.26-.28c-.38-.43-.66-.76-.84-1L90.82,7.5,86,1.64V7c0,.45,0,1,.05,1.6a2.67,2.67,0,0,0,.09.7.27.27,0,0,0,.14.14,3.06,3.06,0,0,0,.94.1v.44c-.4,0-.84,0-1.33,0s-1.1,0-1.72,0" transform="translate(0 0)"></path><path class="cls-3" d="M105.15,9.4a10.91,10.91,0,0,1-1.71.5,11.79,11.79,0,0,1-2.22.23,6.21,6.21,0,0,1-2.81-.62,4.45,4.45,0,0,1-1.9-1.74,5,5,0,0,1-.68-2.63,4.8,4.8,0,0,1,1.69-3.81A5.53,5.53,0,0,1,99,.44,7.51,7.51,0,0,1,101.69,0a7.62,7.62,0,0,1,1.6.18c.56.11,1.19.26,1.89.46a6,6,0,0,0-.15.68q-.06.35-.15,1.38h-.42l0-.78c0-.12,0-.22,0-.29a1.1,1.1,0,0,0-.09-.28,1.82,1.82,0,0,0-.59-.45,8.18,8.18,0,0,0-1.16-.35A5.59,5.59,0,0,0,101.5.46,4.43,4.43,0,0,0,99.24,1,3.59,3.59,0,0,0,97.8,2.6a5.33,5.33,0,0,0-.49,2.26,5.13,5.13,0,0,0,.57,2.43,4.17,4.17,0,0,0,1.54,1.65,4.31,4.31,0,0,0,2.24.57,5.6,5.6,0,0,0,1.17-.11,4,4,0,0,0,1-.32,4.65,4.65,0,0,0,.06-.88V7.44a2.22,2.22,0,0,0-.06-.71c0-.07-.15-.12-.34-.15a11.78,11.78,0,0,0-1.24-.08V6.08l2.14,0c.41,0,.84,0,1.27,0l0,.33-.51.3a13.47,13.47,0,0,0-.08,1.35,13.12,13.12,0,0,0,.08,1.34" transform="translate(0 0)"></path><path class="cls-3" d="M22.54,14.27v-.19h1.95a2.64,2.64,0,0,1,.81.09.84.84,0,0,1,.39.33.87.87,0,0,1,.14.48,1.08,1.08,0,0,1-.13.48,1.12,1.12,0,0,1-.38.4,2,2,0,0,1-.65.25l.35.45.73,1,.36.45.06,0a.61.61,0,0,0,.19,0v.18l-.39,0-.42,0q-.18-.21-.63-.84c-.17-.24-.31-.43-.44-.59s-.4-.49-.58-.7l0-.09h.23a1.18,1.18,0,0,0,.8-.25.87.87,0,0,0,.27-.66.75.75,0,0,0-.23-.57,1.06,1.06,0,0,0-.71-.21,2,2,0,0,0-.59.09c0,.1,0,.2,0,.29s0,.31,0,.85v1.28c0,.27,0,.52,0,.77s0,.3,0,.33a.16.16,0,0,0,.1.08l.42,0v.18l-.76,0-.94,0V18L23,18c.05,0,.09,0,.1-.07a.65.65,0,0,0,.05-.28s0-.32,0-.83V15.47c0-.26,0-.52,0-.77a.92.92,0,0,0,0-.33A.18.18,0,0,0,23,14.3a1.63,1.63,0,0,0-.42,0" transform="translate(0 0)"></path><path class="cls-3" d="M26.59,18.21V18A1.09,1.09,0,0,0,27,18a.1.1,0,0,0,.06,0,1.12,1.12,0,0,0,0-.31c0-.25,0-.47,0-.66V15.47c0-.26,0-.52,0-.77a1.25,1.25,0,0,0,0-.33A.3.3,0,0,0,27,14.3a1.63,1.63,0,0,0-.42,0v-.19l.82,0h1.8a4.63,4.63,0,0,1,.54,0,1.88,1.88,0,0,0-.06.29,5.65,5.65,0,0,0-.06.6h-.18a3,3,0,0,0,0-.54,1.62,1.62,0,0,0-.35-.09,4.73,4.73,0,0,0-.65,0H28l-.34,0c0,.22,0,.42,0,.6v1l.62,0a4.91,4.91,0,0,0,.59,0c.06,0,.1,0,.12,0a.72.72,0,0,0,.05-.24v-.2h.18v.06l0,.6,0,.68H29v-.2a.75.75,0,0,0,0-.27.23.23,0,0,0-.13-.07,4,4,0,0,0-.64,0l-.55,0c0,.19,0,.48,0,.86s0,.63,0,.82c.27,0,.59,0,.93,0l.53,0a1.38,1.38,0,0,0,.29-.08c0-.06,0-.14.07-.25s.07-.3.08-.38h.19c0,.39-.07.71-.07,1a5,5,0,0,1-.61,0l-1.73,0-.76,0" transform="translate(0 0)"></path><path class="cls-3" d="M30.16,14.27v-.19l.89,0,.82,0v.19a1.63,1.63,0,0,0-.42,0,.15.15,0,0,0-.1.07.61.61,0,0,0-.05.28s0,.31,0,.82v.41l1.39,0,1,0v-.41c0-.26,0-.52,0-.77a.84.84,0,0,0,0-.33.15.15,0,0,0-.1-.07,1.63,1.63,0,0,0-.42,0v-.19c.42,0,.7,0,.86,0l.84,0v.19a1.58,1.58,0,0,0-.41,0,.13.13,0,0,0-.1.07.61.61,0,0,0,0,.28s0,.31,0,.82v1.34c0,.27,0,.52,0,.77a.83.83,0,0,0,0,.33.19.19,0,0,0,.11.08l.41,0v.18l-.91,0-.79,0V18l.42,0a.2.2,0,0,0,.1-.07.65.65,0,0,0,0-.28s0-.31,0-.82v-.66c-.54,0-.95,0-1.23,0s-.7,0-1.17,0v.66c0,.26,0,.52,0,.76a.83.83,0,0,0,0,.33.19.19,0,0,0,.11.08l.42,0v.18l-.81,0-.9,0V18l.42,0a.2.2,0,0,0,.1-.07.7.7,0,0,0,0-.28s0-.32,0-.83V15.47c0-.26,0-.52,0-.77a1.25,1.25,0,0,0,0-.33.18.18,0,0,0-.11-.07,1.63,1.63,0,0,0-.42,0" transform="translate(0 0)"></path><path class="cls-3" d="M34.87,18.2V18a1.4,1.4,0,0,0,.29,0,.3.3,0,0,0,.11-.06,1.08,1.08,0,0,0,.13-.24c0-.07.16-.34.38-.81l.73-1.64L37,14h.18L38.44,17c.21.47.34.77.41.89A.22.22,0,0,0,39,18a.77.77,0,0,0,.29,0v.19l-.63,0-.94,0V18l.4,0,.09,0a.11.11,0,0,0,0-.07.68.68,0,0,0,0-.17l-.36-.89H36.13l-.32.75a1,1,0,0,0-.08.29.14.14,0,0,0,0,.07l.1.05a1.62,1.62,0,0,0,.38,0v.19l-.74,0-.62,0m1.36-1.62h1.46L37,14.83Z" transform="translate(0 0)"></path><path class="cls-3" d="M39.72,18.21v-.14l.2-.11a.34.34,0,0,0,0-.08c0-.06,0-.18,0-.37s0-.33,0-.43V15.33c0-.19,0-.41,0-.66a1.09,1.09,0,0,0,0-.3.17.17,0,0,0-.06-.06,1.55,1.55,0,0,0-.4,0v-.19h.84l1.07,0a2.27,2.27,0,0,1,.66.08.72.72,0,0,1,.35.29.73.73,0,0,1,.13.43.86.86,0,0,1-.07.36.9.9,0,0,1-.21.3,1.15,1.15,0,0,1-.29.2,2.73,2.73,0,0,1-.41.14,3.14,3.14,0,0,1,.55.09.85.85,0,0,1,.35.19.81.81,0,0,1,.21.3,1,1,0,0,1,.07.39,1.15,1.15,0,0,1-.26.76,1.5,1.5,0,0,1-.67.48,1.94,1.94,0,0,1-.72.12l-.84,0-.52,0m.82-2.41h.3a2,2,0,0,0,.55-.05.9.9,0,0,0,.31-.15.76.76,0,0,0,.18-.24A1,1,0,0,0,42,15a.59.59,0,0,0-.23-.52,1.18,1.18,0,0,0-.68-.17,2.42,2.42,0,0,0-.47,0,6.69,6.69,0,0,0,0,.75Zm0,2.11A2.31,2.31,0,0,0,41,18a1.34,1.34,0,0,0,.62-.12.81.81,0,0,0,.36-.35,1.09,1.09,0,0,0,.13-.55,1,1,0,0,0-.12-.51.76.76,0,0,0-.35-.31,2.39,2.39,0,0,0-.79-.1h-.32v1.1c0,.11,0,.37,0,.78" transform="translate(0 0)"></path><path class="cls-3" d="M44.88,18v.19l-.82,0-.89,0V18a1.63,1.63,0,0,0,.42,0,.26.26,0,0,0,.1-.07.7.7,0,0,0,0-.28s0-.32,0-.82V15.47c0-.26,0-.52,0-.77a1.25,1.25,0,0,0,0-.33.3.3,0,0,0-.11-.07,1.63,1.63,0,0,0-.42,0v-.19c.37,0,.65,0,.85,0s.48,0,.86,0v.19a1.63,1.63,0,0,0-.42,0,.2.2,0,0,0-.1.07.65.65,0,0,0,0,.28s0,.31,0,.82v1.35c0,.26,0,.51,0,.76a.83.83,0,0,0,0,.33.19.19,0,0,0,.11.08,1.63,1.63,0,0,0,.42,0" transform="translate(0 0)"></path><path class="cls-3" d="M45.4,18.21v-.16a.82.82,0,0,0,.23-.13.16.16,0,0,0,0-.07,1.53,1.53,0,0,0,0-.34c0-.27,0-.43,0-.48V15.47c0-.26,0-.52,0-.77a.92.92,0,0,0,0-.33.23.23,0,0,0-.11-.07,1.63,1.63,0,0,0-.42,0v-.19l.88,0,.83,0v.19a1.63,1.63,0,0,0-.42,0,.2.2,0,0,0-.1.07.7.7,0,0,0,0,.28s0,.31,0,.82v2c0,.21,0,.37,0,.5l.65,0a4.23,4.23,0,0,0,1.15-.11.77.77,0,0,0,.07-.2l.11-.48h.2c0,.29-.09.63-.13,1l-.19,0h-.46l-1.72,0a5.62,5.62,0,0,0-.57,0" transform="translate(0 0)"></path><path class="cls-3" d="M50.51,18v.19l-.81,0-.89,0V18a1.58,1.58,0,0,0,.41,0,.23.23,0,0,0,.11-.07,1,1,0,0,0,0-.28s0-.32,0-.82V15.47c0-.26,0-.52,0-.77a.92.92,0,0,0,0-.33.23.23,0,0,0-.11-.07,1.48,1.48,0,0,0-.41,0v-.19c.36,0,.65,0,.85,0s.48,0,.85,0v.19a1.63,1.63,0,0,0-.42,0,.26.26,0,0,0-.1.07.7.7,0,0,0,0,.28s0,.31,0,.82v1.35c0,.26,0,.51,0,.76a.76.76,0,0,0,.05.33.16.16,0,0,0,.1.08,1.63,1.63,0,0,0,.42,0" transform="translate(0 0)"></path><path class="cls-3" d="M51,15h-.18q0-.69,0-1l1,0h1.65l.75,0c0,.22,0,.54,0,1H54l0-.28c0-.16,0-.26,0-.28a.11.11,0,0,0,0-.05l-.05,0-.29,0h-.75c0,.18,0,.43,0,.75v2.46a.76.76,0,0,0,0,.33.16.16,0,0,0,.1.08,1.63,1.63,0,0,0,.42,0v.19l-.78,0-.9,0V18a1.63,1.63,0,0,0,.42,0,.2.2,0,0,0,.1-.07.7.7,0,0,0,0-.28s0-.32,0-.82v-1.7a2.35,2.35,0,0,0,0-.26l0-.49h-.43a4.47,4.47,0,0,0-.59,0s-.08,0-.09,0a.9.9,0,0,0-.06.32Z" transform="translate(0 0)"></path><path class="cls-3" d="M53.83,18.2V18a1.4,1.4,0,0,0,.29,0,.21.21,0,0,0,.1-.06.73.73,0,0,0,.14-.24c0-.07.16-.34.38-.81l.73-1.64L56,14h.18L57.4,17c.2.47.34.77.41.89a.22.22,0,0,0,.12.13.77.77,0,0,0,.29,0v.19l-.63,0-.94,0V18l.4,0,.09,0a.11.11,0,0,0,0-.07.45.45,0,0,0-.05-.17l-.35-.89H55.09l-.32.75a1,1,0,0,0-.08.29.08.08,0,0,0,0,.07.19.19,0,0,0,.1.05,1.62,1.62,0,0,0,.38,0v.19l-.74,0-.62,0m1.36-1.62h1.46l-.72-1.75Z" transform="translate(0 0)"></path><path class="cls-3" d="M58.11,15h-.18c0-.46,0-.78,0-1l1,0h1.64l.76,0c0,.22,0,.54,0,1h-.19l0-.28a2.32,2.32,0,0,0,0-.28.06.06,0,0,0,0-.05l-.05,0-.29,0H59.9a7.2,7.2,0,0,0,0,.75v1.7c0,.26,0,.51,0,.76a.76.76,0,0,0,0,.33A.16.16,0,0,0,60,18a1.63,1.63,0,0,0,.42,0v.19l-.78,0-.91,0V18a1.63,1.63,0,0,0,.42,0,.23.23,0,0,0,.11-.07,1,1,0,0,0,0-.28s0-.32,0-.82v-1.7c0-.08,0-.17,0-.26l0-.49h-.43a4.75,4.75,0,0,0-.6,0,.12.12,0,0,0-.09,0,1,1,0,0,0-.05.32Z" transform="translate(0 0)"></path><path class="cls-3" d="M63.27,18v.19l-.81,0-.9,0V18A1.63,1.63,0,0,0,62,18a.2.2,0,0,0,.1-.07.7.7,0,0,0,0-.28s0-.32,0-.82V15.47c0-.26,0-.52,0-.77a1.25,1.25,0,0,0,0-.33A.3.3,0,0,0,62,14.3a1.63,1.63,0,0,0-.42,0v-.19c.37,0,.65,0,.86,0s.47,0,.85,0v.19a1.63,1.63,0,0,0-.42,0,.2.2,0,0,0-.1.07.65.65,0,0,0,0,.28s0,.31,0,.82v1.35c0,.26,0,.51,0,.76a.83.83,0,0,0,0,.33.19.19,0,0,0,.11.08,1.63,1.63,0,0,0,.42,0" transform="translate(0 0)"></path><path class="cls-3" d="M63.57,16.17a2.57,2.57,0,0,1,.14-.85,1.74,1.74,0,0,1,.46-.7,2.3,2.3,0,0,1,.72-.47,2.93,2.93,0,0,1,1.79,0,1.93,1.93,0,0,1,.65.36,2.16,2.16,0,0,1,.39.48,2,2,0,0,1,.18.47A2.62,2.62,0,0,1,68,16a2.19,2.19,0,0,1-.66,1.63,2.25,2.25,0,0,1-1.65.65,2.34,2.34,0,0,1-.85-.15,1.63,1.63,0,0,1-.67-.44,1.86,1.86,0,0,1-.42-.71,2.62,2.62,0,0,1-.14-.82m.6-.24a2.74,2.74,0,0,0,.06.56,2.62,2.62,0,0,0,.14.49,1.83,1.83,0,0,0,.36.59,1.43,1.43,0,0,0,.51.34,1.48,1.48,0,0,0,.61.12,1.45,1.45,0,0,0,.81-.23,1.44,1.44,0,0,0,.52-.64,2.61,2.61,0,0,0,.17-1,2.86,2.86,0,0,0-.12-.85,1.91,1.91,0,0,0-.21-.43,1.58,1.58,0,0,0-.29-.34,1.89,1.89,0,0,0-.45-.24,1.93,1.93,0,0,0-.6-.1,1.58,1.58,0,0,0-.81.21,1.3,1.3,0,0,0-.52.59,2.14,2.14,0,0,0-.18.89" transform="translate(0 0)"></path><path class="cls-3" d="M68.27,18.21V18a1.09,1.09,0,0,0,.4-.05.1.1,0,0,0,.06,0,1.12,1.12,0,0,0,0-.31c0-.25,0-.47,0-.66V14.59a.25.25,0,0,0-.11-.25.34.34,0,0,0-.12-.06h-.31v-.19h1.07l.36.48.59.74.87,1.05c.27.34.5.6.67.79a2.13,2.13,0,0,0,.27.3V15.33c0-.19,0-.41,0-.67a1.58,1.58,0,0,0,0-.29L72,14.31a1.55,1.55,0,0,0-.4,0v-.19h1.29v.19a1.55,1.55,0,0,0-.4,0l-.06.06a1.09,1.09,0,0,0,0,.3c0,.26,0,.48,0,.66v1.4c0,.28,0,.81,0,1.58l-.29-.09H72l0,0-.11-.12a5.41,5.41,0,0,1-.35-.42l-.38-.47-2-2.49v2.25c0,.19,0,.42,0,.68a1.27,1.27,0,0,0,0,.3l.06.06a1.55,1.55,0,0,0,.4,0v.19a5,5,0,0,0-.56,0c-.23,0-.47,0-.73,0" transform="translate(0 0)"></path><path class="cls-3" d="M75.07,18.21V18a1.15,1.15,0,0,0,.41-.05l.06,0a1.77,1.77,0,0,0,0-.31c0-.25,0-.47,0-.66V14.59a.35.35,0,0,0,0-.12.4.4,0,0,0-.11-.13.23.23,0,0,0-.12-.06h-.3v-.19h1.07l.36.48.59.74.86,1.05c.28.34.5.6.67.79l.27.3V15.33c0-.19,0-.41,0-.67a1,1,0,0,0,0-.29.09.09,0,0,0-.06-.06,1.44,1.44,0,0,0-.4,0v-.19h1.3v.19a1.49,1.49,0,0,0-.4,0,.09.09,0,0,0-.06.06,1.09,1.09,0,0,0,0,.3c0,.26,0,.48,0,.66v1.4c0,.28,0,.81,0,1.58l-.3-.09h-.07l0,0-.11-.12-.36-.42-.37-.47-2.06-2.49v2.25c0,.19,0,.42,0,.68a1.09,1.09,0,0,0,0,.3L76,18a1.49,1.49,0,0,0,.4,0v.19a5.06,5.06,0,0,0-.57,0c-.22,0-.46,0-.73,0" transform="translate(0 0)"></path><path class="cls-3" d="M80,18.21V18a1.09,1.09,0,0,0,.4-.05.1.1,0,0,0,.06,0,1.12,1.12,0,0,0,0-.31c0-.25,0-.47,0-.66V14.7a.84.84,0,0,0,0-.33.2.2,0,0,0-.1-.07,1.63,1.63,0,0,0-.42,0v-.19l.82,0h1.8a4.63,4.63,0,0,1,.54,0,1.88,1.88,0,0,0-.06.29,5.65,5.65,0,0,0-.06.6h-.18a3,3,0,0,0,0-.54,1.62,1.62,0,0,0-.35-.09,4.73,4.73,0,0,0-.65,0h-.31l-.34,0c0,.22,0,.42,0,.6v1l.62,0a4.91,4.91,0,0,0,.59,0c.06,0,.1,0,.12,0a.59.59,0,0,0,0-.24l0-.2h.18v.06l0,.6,0,.68H82.4v-.2a.75.75,0,0,0,0-.27.23.23,0,0,0-.13-.07,4,4,0,0,0-.64,0l-.55,0c0,.19,0,.48,0,.86s0,.63,0,.82c.27,0,.59,0,.93,0l.53,0a1.38,1.38,0,0,0,.29-.08c0-.06,0-.14.07-.25s.07-.3.08-.38h.19a7.71,7.71,0,0,0-.07,1,5,5,0,0,1-.61,0l-1.73,0-.76,0" transform="translate(0 0)"></path><path class="cls-3" d="M83.72,15h-.18q0-.69,0-1l1,0h1.65l.76,0c0,.22,0,.54,0,1h-.18l0-.28a1.53,1.53,0,0,0,0-.28s0,0,0-.05l0,0-.29,0h-.75a7.2,7.2,0,0,0,0,.75v1.7c0,.26,0,.51,0,.76a.83.83,0,0,0,0,.33.19.19,0,0,0,.11.08,1.63,1.63,0,0,0,.42,0v.19l-.78,0-.91,0V18a1.63,1.63,0,0,0,.42,0,.2.2,0,0,0,.1-.07.65.65,0,0,0,0-.28s0-.32,0-.82v-2l0-.49H84.5a4.75,4.75,0,0,0-.6,0q-.08,0-.09,0a1.24,1.24,0,0,0-.06.32Z" transform="translate(0 0)"></path><path class="cls-3" d="M88.35,18.24,88.09,17l-.56-2.39a.62.62,0,0,0-.12-.3.93.93,0,0,0-.36-.08v-.18c.33,0,.57,0,.74,0s.4,0,.75,0v.18a2,2,0,0,0-.44,0s0,0,0,.08a1.85,1.85,0,0,0,0,.26c.07.35.11.57.13.66l.46,2,.71-1.79c.19-.47.37-1,.56-1.48h.18q.27.83.48,1.41l.68,1.9.5-1.74c.09-.3.17-.63.24-1a1.27,1.27,0,0,0,0-.27s0-.07,0-.08a1.5,1.5,0,0,0-.46,0v-.18c.3,0,.51,0,.62,0s.33,0,.62,0v.18a.58.58,0,0,0-.27,0,.29.29,0,0,0-.11.13c0,.07-.11.33-.24.77l-.3,1q0,.13-.18.66l-.38,1.4h-.29c-.22-.64-.38-1.12-.5-1.44L89.89,15l-.58,1.43-.36.95c0,.13-.1.25-.13.35s-.1.27-.18.5Z" transform="translate(0 0)"></path><path class="cls-3" d="M92.88,16.17a2.57,2.57,0,0,1,.14-.85,1.74,1.74,0,0,1,.46-.7,2.3,2.3,0,0,1,.72-.47,2.93,2.93,0,0,1,1.79,0,1.84,1.84,0,0,1,.65.36A1.91,1.91,0,0,1,97,15a1.64,1.64,0,0,1,.18.47,2.62,2.62,0,0,1,.06.57,2.19,2.19,0,0,1-.65,1.63,2.28,2.28,0,0,1-1.66.65,2.34,2.34,0,0,1-.85-.15,1.63,1.63,0,0,1-.67-.44A2,2,0,0,1,93,17a2.62,2.62,0,0,1-.14-.82m.61-.24a2.71,2.71,0,0,0,.05.56,2.62,2.62,0,0,0,.14.49,1.69,1.69,0,0,0,.37.59,1.31,1.31,0,0,0,.5.34,1.51,1.51,0,0,0,.61.12A1.45,1.45,0,0,0,96,17.8a1.37,1.37,0,0,0,.52-.64,2.61,2.61,0,0,0,.17-1,2.86,2.86,0,0,0-.12-.85,1.89,1.89,0,0,0-.2-.43,1.63,1.63,0,0,0-.3-.34,1.89,1.89,0,0,0-.45-.24,1.87,1.87,0,0,0-.59-.1,1.53,1.53,0,0,0-.81.21,1.27,1.27,0,0,0-.53.59,2.14,2.14,0,0,0-.17.89" transform="translate(0 0)"></path><path class="cls-3" d="M97.55,14.27v-.19h1.94a2.64,2.64,0,0,1,.81.09.79.79,0,0,1,.39.33.87.87,0,0,1,.14.48,1,1,0,0,1-.13.48,1,1,0,0,1-.38.4,2,2,0,0,1-.65.25l.35.45.73,1,.36.45.06,0a.66.66,0,0,0,.19,0v.18l-.39,0-.42,0q-.18-.21-.63-.84c-.16-.24-.31-.43-.44-.59s-.39-.49-.58-.7l0-.09h.23a1.18,1.18,0,0,0,.8-.25.87.87,0,0,0,.27-.66.71.71,0,0,0-.23-.57,1,1,0,0,0-.71-.21,2,2,0,0,0-.59.09c0,.1,0,.2,0,.29s0,.31,0,.85v1.28c0,.27,0,.52,0,.77a.83.83,0,0,0,0,.33.2.2,0,0,0,.1.08l.42,0v.18l-.76,0-.93,0V18L98,18a.23.23,0,0,0,.11-.07,1,1,0,0,0,0-.28s0-.32,0-.83V15.47c0-.26,0-.52,0-.77a.92.92,0,0,0,0-.33A.18.18,0,0,0,98,14.3a1.48,1.48,0,0,0-.41,0" transform="translate(0 0)"></path><path class="cls-3" d="M103.23,18v.19l-.87,0-.83,0V18a1.63,1.63,0,0,0,.42,0,.2.2,0,0,0,.1-.07.65.65,0,0,0,0-.28s0-.32,0-.82V15.47c0-.26,0-.52,0-.77a.92.92,0,0,0,0-.33.23.23,0,0,0-.11-.07,1.63,1.63,0,0,0-.42,0v-.19c.38,0,.67,0,.87,0s.47,0,.83,0v.19a1.53,1.53,0,0,0-.41,0s-.09,0-.1.07a.65.65,0,0,0,0,.28s0,.31,0,.82v.6a2,2,0,0,0,.38-.3l.36-.36.65-.65.46-.49v-.19h1v.19l-.37,0a.66.66,0,0,0-.19.09c-.12.09-.31.25-.57.49l-1.16,1.06L105,17.56l.48.43a.8.8,0,0,0,.23,0v.18l-.38,0-.46,0c0-.05-.2-.2-.48-.47l-.3-.29-1.32-1.24-.07,0v.56c0,.27,0,.52,0,.77a.83.83,0,0,0,0,.33.19.19,0,0,0,.11.08,1.53,1.53,0,0,0,.41,0" transform="translate(0 0)"></path></g></g></g></svg> 