<?xml version="1.0" encoding="UTF-8"?> <svg xmlns="http://www.w3.org/2000/svg" xmlns:xlink="http://www.w3.org/1999/xlink" viewBox="0 0 84.01 19.22"><defs><style>.cls-1{fill:none;}.cls-2{clip-path:url(#clip-path);}.cls-3{fill:#fff;}.cls-4{clip-path:url(#clip-path-2);}</style><clipPath id="clip-path" transform="translate(0 0)"><rect class="cls-1" width="84.01" height="19.23"></rect></clipPath><clipPath id="clip-path-2" transform="translate(0 0)"><rect class="cls-1" width="84" height="19.23"></rect></clipPath></defs><title>Footer Logo 5HQ Vector</title><g id="Layer_2" data-name="Layer 2"><g id="Layer_1-2" data-name="Layer 1"><g class="cls-2"><path class="cls-3" d="M26.13,1.59a1.32,1.32,0,0,1,.06-.54c0-.07.13-.09.31-.11l.3,0V.7c-.21,0-.44,0-.67,0s-.46,0-.69,0l-1.9,4L21.63.7c-.22,0-.45,0-.69,0s-.46,0-.68,0V.92l.32,0c.17,0,.26,0,.3.11a1.32,1.32,0,0,1,.06.54V4.84a1.35,1.35,0,0,1-.06.55c0,.07-.13.09-.3.11l-.32,0v.21l.84,0,.87,0V5.52l-.32,0c-.18,0-.26,0-.31-.11a1.35,1.35,0,0,1-.06-.55V1.56h0l2,4.25h.14c.13-.31.26-.63.39-.92l1.29-2.74c.1-.19.2-.4.31-.59h0V4.84a1.35,1.35,0,0,1-.06.55c-.05.07-.13.09-.31.11l-.24,0v.21l1,0,1.05,0V5.52l-.35,0c-.18,0-.26,0-.31-.11a1.35,1.35,0,0,1-.06-.55Z" transform="translate(0 0)"></path><path class="cls-3" d="M29.69.65h-.23c-.2.52-.44,1-.67,1.56L27.51,5.14a.53.53,0,0,1-.4.36l-.26,0v.21l.83,0,.83,0V5.52l-.27,0c-.22,0-.34,0-.34-.21a3.87,3.87,0,0,1,.25-.75l.2-.48h2.09l.33.83a1.72,1.72,0,0,1,.15.46c0,.09-.14.14-.29.15l-.34,0v.21l1,0,1,0V5.52L32,5.5c-.13,0-.21-.11-.29-.25s-.17-.35-.24-.49ZM28.48,3.77l.91-2.16.92,2.16Z" transform="translate(0 0)"></path><path class="cls-3" d="M35.51,1.9a5.26,5.26,0,0,1,.1-1A3.51,3.51,0,0,0,34.3.58a1.7,1.7,0,0,0-1.85,1.64c0,.75.45,1.1,1.58,1.23.74.09,1.28.29,1.28,1A1.19,1.19,0,0,1,34,5.54c-.57,0-1.14-.28-1.18-.58l-.06-.49h-.23a6,6,0,0,1,0,1.11,3,3,0,0,0,1.24.28A2,2,0,0,0,35.91,4c0-.83-.64-1.08-1.66-1.19s-1.19-.41-1.19-.9A1,1,0,0,1,34.13.88a1.56,1.56,0,0,1,.79.18c.26.16.29.24.31.43l.05.41Z" transform="translate(0 0)"></path><path class="cls-3" d="M39.63,1.9a5.26,5.26,0,0,1,.1-1,3.51,3.51,0,0,0-1.31-.3,1.71,1.71,0,0,0-1.86,1.64c0,.75.45,1.1,1.59,1.23.74.09,1.27.29,1.27,1a1.18,1.18,0,0,1-1.29,1.12C37.56,5.54,37,5.26,37,5l-.06-.49h-.23a6,6,0,0,1,0,1.11,3,3,0,0,0,1.24.28A2,2,0,0,0,40,4c0-.83-.64-1.08-1.66-1.19s-1.2-.41-1.2-.9A1,1,0,0,1,38.24.88a1.51,1.51,0,0,1,.79.18c.27.16.3.24.32.43l0,.41Z" transform="translate(0 0)"></path><path class="cls-3" d="M42.91.65h-.23c-.2.52-.44,1-.67,1.56L40.72,5.14a.52.52,0,0,1-.39.36l-.27,0v.21l.84,0,.83,0V5.52l-.27,0c-.22,0-.35,0-.35-.21a4,4,0,0,1,.26-.75l.2-.48h2.09l.33.83a1.72,1.72,0,0,1,.15.46c0,.09-.14.14-.3.15l-.34,0v.21l1,0,1,0V5.52l-.25,0c-.13,0-.21-.11-.29-.25s-.16-.35-.23-.49ZM41.69,3.77l.92-2.16.91,2.16Z" transform="translate(0 0)"></path><path class="cls-3" d="M50.11,5.1,50.05,5a2.72,2.72,0,0,1-1.47.44A2.23,2.23,0,0,1,46.2,3.11,2,2,0,0,1,48.27.88a2.76,2.76,0,0,1,.82.13c.33.12.62.24.62.45V2h.22a5.51,5.51,0,0,1,.14-1.1A5.15,5.15,0,0,0,48.4.58a3.35,3.35,0,0,0-2.1.69,2.45,2.45,0,0,0-.88,2,2.6,2.6,0,0,0,2.91,2.64,3.61,3.61,0,0,0,1.58-.39Z" transform="translate(0 0)"></path><path class="cls-3" d="M55.65,1.59a1.27,1.27,0,0,1,.07-.54c0-.07.13-.1.3-.11l.35,0V.7l-1,0c-.36,0-.7,0-1.07,0V.92l.35,0c.17,0,.26,0,.3.11a1.32,1.32,0,0,1,.06.54V2.88c-.08,0-.28,0-.6,0H52.67c-.32,0-.51,0-.6,0V1.59a1.32,1.32,0,0,1,.06-.54c0-.07.13-.1.31-.11l.35,0V.7l-1,0L50.66.7V.92l.35,0c.18,0,.26,0,.31.11a1.32,1.32,0,0,1,.06.54V4.84a1.35,1.35,0,0,1-.06.55c0,.07-.13.1-.31.11l-.35,0v.21l1.08,0,1,0V5.52l-.35,0c-.18,0-.26,0-.31-.11a1.35,1.35,0,0,1-.06-.55V3.23H55V4.84a1.35,1.35,0,0,1-.06.55c0,.07-.13.1-.3.11l-.35,0v.21l1.07,0,1,0V5.52L56,5.5c-.17,0-.26,0-.3-.11a1.29,1.29,0,0,1-.07-.55Z" transform="translate(0 0)"></path><path class="cls-3" d="M57.6,4.16c0,1.33.72,1.7,1.95,1.7,1.46,0,2.05-.62,2.05-2.17V1.59a1.32,1.32,0,0,1,.06-.54c.05-.07.13-.09.31-.11l.32,0V.7l-.87,0-.84,0V.92l.32,0c.17,0,.26,0,.3.11a1.27,1.27,0,0,1,.07.54V3.91a1.32,1.32,0,0,1-1.5,1.5c-1,0-1.49-.3-1.49-1.33V1.59a1.27,1.27,0,0,1,.07-.54c0-.07.13-.1.3-.11l.35,0V.7c-.38,0-.72,0-1,0s-.69,0-1.07,0V.92l.35,0c.17,0,.26,0,.3.11a1.27,1.27,0,0,1,.07.54Z" transform="translate(0 0)"></path><path class="cls-3" d="M65.83,1.9a4.58,4.58,0,0,1,.1-1,3.51,3.51,0,0,0-1.31-.3,1.71,1.71,0,0,0-1.86,1.64c0,.75.45,1.1,1.59,1.23.74.09,1.27.29,1.27,1a1.18,1.18,0,0,1-1.29,1.12c-.58,0-1.15-.28-1.18-.58l-.06-.49h-.23a8.47,8.47,0,0,1,0,1.11A3,3,0,0,0,64,5.86,2,2,0,0,0,66.23,4c0-.83-.64-1.08-1.66-1.19s-1.2-.41-1.2-.9A1,1,0,0,1,64.44.88a1.54,1.54,0,0,1,.79.18c.27.16.3.24.32.43l0,.41Z" transform="translate(0 0)"></path><path class="cls-3" d="M67.49,4.84a1.35,1.35,0,0,1-.06.55c-.05.07-.14.09-.31.11l-.26,0v.22c.26,0,.5,0,.78,0l1.57,0c.54,0,1.11,0,1.43,0a5.55,5.55,0,0,1,.12-1.18H70.5c0,.43-.14.75-.25.81a6.89,6.89,0,0,1-1.46.09,2.53,2.53,0,0,1-.61-.06v-2a6.72,6.72,0,0,1,.84,0,1.77,1.77,0,0,1,.77.09.24.24,0,0,1,0,.18l0,.43h.22c0-.26,0-.54,0-.8s0-.55,0-.84h-.22l0,.37a.27.27,0,0,1,0,.19A2,2,0,0,1,69,3l-.84,0V1.07A2.11,2.11,0,0,1,68.79,1a4.28,4.28,0,0,1,1.41.15c.06,0,.07.1.07.19v.48h.25a4.75,4.75,0,0,1,.12-1.1c-.28,0-.61,0-.93,0s-1.08,0-1.71,0c-.42,0-.83,0-1.23,0V.92l.35,0c.17,0,.26,0,.31.11a1.32,1.32,0,0,1,.06.54Z" transform="translate(0 0)"></path><path class="cls-3" d="M73,4.84a1.29,1.29,0,0,1-.07.55c0,.07-.13.1-.3.11l-.35,0v.22l1.07,0,1,0V5.52l-.35,0c-.17,0-.26,0-.3-.11a1.29,1.29,0,0,1-.07-.55V1.78c0-.27,0-.5,0-.72h1.12c.22,0,.28.06.29.24l0,.57h.23a11.33,11.33,0,0,1,0-1.17c-.52,0-1,0-1.57,0h-1c-.52,0-1,0-1.56,0a11.33,11.33,0,0,1,0,1.17h.23l0-.57c0-.18.07-.24.28-.24H73c0,.22,0,.45,0,.72Z" transform="translate(0 0)"></path></g><g class="cls-4"><path class="cls-3" d="M77.63,4.84a1.29,1.29,0,0,1-.07.55c0,.07-.13.1-.3.11l-.35,0v.22l1.07,0,1,0V5.52l-.35,0c-.17,0-.26,0-.3-.11a1.35,1.35,0,0,1-.06-.55V1.78c0-.27,0-.5,0-.72h1.13c.21,0,.27.06.29.24l0,.57H80a11.33,11.33,0,0,1,0-1.17L78.5.73h-1L75.88.7a11.33,11.33,0,0,1,.05,1.17h.23l0-.57c0-.18.07-.24.29-.24H77.6c0,.22,0,.45,0,.72Z" transform="translate(0 0)"></path><path class="cls-3" d="M83.6,1.9a5.26,5.26,0,0,1,.1-1,3.46,3.46,0,0,0-1.31-.3,1.7,1.7,0,0,0-1.85,1.64c0,.75.45,1.1,1.59,1.23.73.09,1.27.29,1.27,1a1.19,1.19,0,0,1-1.3,1.12c-.57,0-1.14-.28-1.18-.58l0-.49h-.24a6,6,0,0,1,0,1.11,3,3,0,0,0,1.24.28A2,2,0,0,0,84,4c0-.83-.65-1.08-1.67-1.19s-1.19-.41-1.19-.9A1,1,0,0,1,82.22.88a1.54,1.54,0,0,1,.79.18c.27.16.29.24.32.43l0,.41Z" transform="translate(0 0)"></path></g><g class="cls-2"><path class="cls-3" d="M20.33,13.36v-.23a1.62,1.62,0,0,0,.49-.05.16.16,0,0,0,.07-.07,1.42,1.42,0,0,0,.05-.37c0-.31,0-.58,0-.81V10c0-.32,0-.64,0-.94a1.11,1.11,0,0,0-.05-.4.25.25,0,0,0-.13-.09,2.12,2.12,0,0,0-.51,0V8.33l1,0h1.06l1.12,0c.23,0,.45,0,.66,0,0,.14-.06.25-.08.35S24,9,24,9.45h-.23a3.44,3.44,0,0,0,0-.66,1.8,1.8,0,0,0-.43-.11,7,7,0,0,0-.79,0l-.38,0-.42,0c0,.26,0,.51,0,.74l0,1.19c.28,0,.53,0,.76,0a5,5,0,0,0,.72,0c.08,0,.13,0,.15-.05a.82.82,0,0,0,.05-.29l0-.25h.22v.07l0,.73,0,.83h-.25v-.24a.84.84,0,0,0-.05-.33A.27.27,0,0,0,23.1,11a4.57,4.57,0,0,0-.78,0l-.68,0c0,.23,0,.58,0,1.05s0,.77,0,1c.34,0,.72,0,1.15,0a4.71,4.71,0,0,0,.64,0,2,2,0,0,0,.35-.09,1.41,1.41,0,0,0,.08-.3c.06-.21.09-.37.11-.47h.23a9.7,9.7,0,0,0-.09,1.18,5.06,5.06,0,0,1-.74,0l-2.11,0-.93,0" transform="translate(0 0)"></path><path class="cls-3" d="M24.59,8.64V8.43l.85-.17a.56.56,0,0,1,.19.09,2.26,2.26,0,0,1,.23.27c.16.23.36.53.58.92s.45.83.7,1.33c.25-.39.5-.8.76-1.25l.76-1.29h.54v.1q-.19.21-.72.93c-.2.28-.46.69-.78,1.22a5.75,5.75,0,0,0-.34.6.78.78,0,0,0,0,.21v.27c0,.32,0,.64,0,.94a1.06,1.06,0,0,0,.06.4.22.22,0,0,0,.13.09,2.12,2.12,0,0,0,.51,0v.23l-1,0-1.06,0v-.23a2.25,2.25,0,0,0,.51,0A.18.18,0,0,0,26.6,13a.88.88,0,0,0,.06-.34c0-.05,0-.39,0-1v-.41c-.05-.11-.1-.2-.15-.29l-.36-.61L25.93,10c-.18-.3-.32-.51-.41-.64a3.08,3.08,0,0,0-.43-.53.44.44,0,0,0-.19-.12.83.83,0,0,0-.31,0" transform="translate(0 0)"></path><path class="cls-3" d="M29.59,13.36v-.23a1.62,1.62,0,0,0,.49-.05.23.23,0,0,0,.07-.07,1.42,1.42,0,0,0,.05-.37c0-.31,0-.58,0-.81V10c0-.32,0-.64,0-.94a1.43,1.43,0,0,0-.05-.4A.28.28,0,0,0,30,8.6a2.12,2.12,0,0,0-.51,0V8.33l1,0h1.07l1.11,0a6.5,6.5,0,0,1,.66,0c0,.14-.06.25-.07.35s0,.27-.07.74H33a3.41,3.41,0,0,0,0-.66,1.85,1.85,0,0,0-.42-.11,7.16,7.16,0,0,0-.8,0l-.37,0-.42,0c0,.26,0,.51,0,.74V10.6c.28,0,.53,0,.76,0a5,5,0,0,0,.72,0,.17.17,0,0,0,.14-.05,1,1,0,0,0,.06-.29l0-.25h.21v1.63h-.24l0-.24a.92.92,0,0,0,0-.33.27.27,0,0,0-.16-.09,4.42,4.42,0,0,0-.78,0l-.67,0c0,.23,0,.58,0,1.05s0,.77,0,1c.34,0,.72,0,1.14,0a4.71,4.71,0,0,0,.64,0A1.9,1.9,0,0,0,33,12.9c0-.08.05-.17.08-.3a4.59,4.59,0,0,0,.1-.47h.24a10,10,0,0,0-.1,1.18,4.91,4.91,0,0,1-.73,0l-2.12,0-.92,0" transform="translate(0 0)"></path><path class="cls-3" d="M35.43,13.36v-.24a1.72,1.72,0,0,0,.35,0,.28.28,0,0,0,.13-.07,1.63,1.63,0,0,0,.16-.28c0-.09.2-.42.46-1l.89-2L38,8.28h.23l1.51,3.55c.24.57.4.94.48,1.08a.39.39,0,0,0,.15.16,1,1,0,0,0,.36,0v.24c-.37,0-.62,0-.77,0l-1.14,0v-.24l.48,0a.23.23,0,0,0,.12-.05.11.11,0,0,0,0-.08.64.64,0,0,0-.05-.2L39,11.67H37l-.38.91a1,1,0,0,0-.1.36.19.19,0,0,0,0,.08.35.35,0,0,0,.12.07l.46,0v.24l-.89,0-.75,0m1.64-2h1.79L38,9.24Z" transform="translate(0 0)"></path><path class="cls-3" d="M41.14,13.36v-.23a1.62,1.62,0,0,0,.49-.05A.16.16,0,0,0,41.7,13a1.42,1.42,0,0,0,0-.37c0-.31,0-.58,0-.81V9a.5.5,0,0,0,0-.15.52.52,0,0,0-.13-.15.28.28,0,0,0-.15-.08l-.37,0V8.33l.75,0,.51,0,.44.58.73.9,1.07,1.29c.34.41.62.73.83,1a4.83,4.83,0,0,0,.33.37V9.85q0-.35,0-.81a1.62,1.62,0,0,0,0-.37.12.12,0,0,0-.08-.06,1.49,1.49,0,0,0-.48-.06V8.33l.84,0,.74,0v.22a1.52,1.52,0,0,0-.49.06.12.12,0,0,0-.07.07,1.34,1.34,0,0,0,0,.37c0,.31,0,.58,0,.8v1.7c0,.35,0,1,0,1.93l-.37-.1-.08,0,0,0-.14-.15-.43-.5-.45-.57-2.51-3v2.71c0,.23,0,.51,0,.82a1.24,1.24,0,0,0,0,.36.16.16,0,0,0,.07.07,1.62,1.62,0,0,0,.49.05v.23q-.31,0-.69,0l-.89,0" transform="translate(0 0)"></path><path class="cls-3" d="M47.28,13.36v-.17l.34-.21c0-.17,0-.39,0-.67,0-.49,0-.83,0-1V9.85c0-.23,0-.5,0-.81a1.42,1.42,0,0,0,0-.37.13.13,0,0,0-.07-.06,1.52,1.52,0,0,0-.49-.06V8.33c.35,0,.65,0,.91,0h.83l.82,0A3.56,3.56,0,0,1,51,8.55a2,2,0,0,1,.9.74,2.16,2.16,0,0,1,.36,1.27,2.77,2.77,0,0,1-.17,1,2.6,2.6,0,0,1-.47.83,2.5,2.5,0,0,1-.64.55,2.64,2.64,0,0,1-.71.31,3.9,3.9,0,0,1-1,.11l-.59,0H48l-.75,0m1.1-.39a4.25,4.25,0,0,0,.82.07A3.67,3.67,0,0,0,50,13a2,2,0,0,0,.59-.22,1.61,1.61,0,0,0,.46-.42,1.71,1.71,0,0,0,.35-.7,3.3,3.3,0,0,0,.12-.89,2.45,2.45,0,0,0-.23-1.13,1.55,1.55,0,0,0-.71-.72,2.77,2.77,0,0,0-1.3-.26,6.52,6.52,0,0,0-.88.07c0,.12,0,.32,0,.62l0,.51v2.51c0,.17,0,.38,0,.64" transform="translate(0 0)"></path><path class="cls-3" d="M54.63,13.36v-.23a1.62,1.62,0,0,0,.49-.05.23.23,0,0,0,.07-.07,1.42,1.42,0,0,0,.05-.37c0-.31,0-.58,0-.81V10c0-.32,0-.64,0-.94a1.43,1.43,0,0,0,0-.4.28.28,0,0,0-.14-.09,2.12,2.12,0,0,0-.51,0V8.33l1,0h1.07l1.11,0a6.5,6.5,0,0,1,.66,0c0,.14-.06.25-.07.35s0,.27-.07.74H58a3.41,3.41,0,0,0,0-.66,1.85,1.85,0,0,0-.42-.11,7.16,7.16,0,0,0-.8,0l-.37,0-.42,0c0,.26,0,.51,0,.74V10.6c.28,0,.53,0,.76,0a5,5,0,0,0,.72,0,.17.17,0,0,0,.14-.05,1,1,0,0,0,.06-.29l0-.25h.21v1.63h-.24l0-.24a.92.92,0,0,0,0-.33.27.27,0,0,0-.16-.09,4.42,4.42,0,0,0-.78,0l-.67,0c0,.23,0,.58,0,1.05s0,.77,0,1c.34,0,.72,0,1.14,0a4.71,4.71,0,0,0,.64,0,1.9,1.9,0,0,0,.36-.09c0-.08.05-.17.08-.3a4.59,4.59,0,0,0,.1-.47h.24a10,10,0,0,0-.1,1.18,4.91,4.91,0,0,1-.73,0l-2.12,0-.92,0" transform="translate(0 0)"></path><path class="cls-3" d="M58.92,13.36v-.24a1.63,1.63,0,0,0,.35,0A.24.24,0,0,0,59.4,13a1.07,1.07,0,0,0,.17-.28l.46-1,.88-2c.1-.22.31-.71.62-1.47h.23l1.51,3.55c.25.57.41.94.49,1.08a.3.3,0,0,0,.15.16,1,1,0,0,0,.36,0v.24c-.37,0-.63,0-.78,0l-1.13,0v-.24l.48,0A.23.23,0,0,0,63,13,.11.11,0,0,0,63,13a.45.45,0,0,0,0-.2l-.43-1.09h-2l-.39.91a1.33,1.33,0,0,0-.1.36A.11.11,0,0,0,60,13a.35.35,0,0,0,.12.07l.46,0v.24l-.9,0-.75,0m1.65-2h1.79l-.89-2.13Z" transform="translate(0 0)"></path></g><g class="cls-4"><path class="cls-3" d="M64.59,8.56V8.33H65l.67,0h.63l.64,0a3,3,0,0,1,1,.12,1,1,0,0,1,.47.39,1,1,0,0,1,.17.58,1.33,1.33,0,0,1-.15.6,1.35,1.35,0,0,1-.47.48,2.35,2.35,0,0,1-.78.3c.06.09.19.27.41.56l.9,1.17c.25.33.4.51.44.55a.09.09,0,0,0,.07,0,.59.59,0,0,0,.23,0v.23a4.11,4.11,0,0,0-.47,0,4.89,4.89,0,0,0-.51,0,12.16,12.16,0,0,1-.78-1c-.2-.28-.37-.52-.53-.71s-.48-.61-.7-.86l0-.11h.28a1.42,1.42,0,0,0,1-.3,1,1,0,0,0,.33-.8.9.9,0,0,0-.29-.7,1.26,1.26,0,0,0-.86-.25,2.21,2.21,0,0,0-.72.11c0,.12,0,.24,0,.35s0,.38,0,1v1.57c0,.32,0,.64,0,.94a1.11,1.11,0,0,0,0,.4.25.25,0,0,0,.13.09,2.12,2.12,0,0,0,.51,0v.23l-.92,0-1.15,0v-.23a2.12,2.12,0,0,0,.51,0c.07,0,.11,0,.13-.08a.76.76,0,0,0,0-.34c0-.05,0-.39,0-1V10c0-.32,0-.64,0-.94a1.43,1.43,0,0,0-.05-.4.25.25,0,0,0-.13-.09,2.16,2.16,0,0,0-.52,0" transform="translate(0 0)"></path><path class="cls-3" d="M16.58,0a.21.21,0,0,0-.11,0H.15A.21.21,0,0,0,0,0,.15.15,0,0,0,0,.15C0,.41.14,6.47.27,7.83v0a14,14,0,0,0,1.34,4.88A14.08,14.08,0,0,0,8.23,19.2a.11.11,0,0,0,.08,0h0l.06,0h0A14.08,14.08,0,0,0,15,12.75a14,14,0,0,0,1.34-4.88v0c.14-1.36.27-7.42.28-7.68a.21.21,0,0,0,0-.11m-.51,4.72-.18.12L11.65,7.76a3.77,3.77,0,0,0-1-1L14.81.42h1.38c0,.71-.06,2.61-.12,4.34M8,6.1a3.71,3.71,0,0,0-1.32.42l-3-6.1H7.65ZM9,.42h3.91l-2.88,6a3.73,3.73,0,0,0-1.34-.34h0ZM1.94.42,6.16,6.88a3.82,3.82,0,0,0-.9,1L.54,4.73C.49,3,.44,1.13.43.42ZM.69,7.78C.66,7.49.63,7,.6,6.32L5,8.47a4,4,0,0,0-.2,2.25,2.29,2.29,0,0,0,.07.28,11,11,0,0,0-3.1-.7h-.6A13.84,13.84,0,0,1,.7,7.83Zm7.62,11a13.7,13.7,0,0,1-6-5.63l.36.17a3.86,3.86,0,0,1,1.19,1.14A7.52,7.52,0,0,0,6,16.14a4.58,4.58,0,0,0,2.32.52A3.35,3.35,0,0,0,10.17,16c1.17-.92,1.1-.88,1.76-1.36a2.16,2.16,0,0,1,1.57-.55l.24,0a14,14,0,0,1-5.43,4.67m6.31-6.2c-.12.24-.25.48-.38.71H14l-.21,0h0l-.2,0h0l-.19-.05h0l-.19-.07h0L13,13h0a1,1,0,0,1-.17-.1l-.2-.12,0,0a1.4,1.4,0,0,0-.17-.09l0,0-.19-.09,0,0L12,12.47h0l-.17-.07h0l-.15-.05h0a2,2,0,0,0-.31-.08,1.86,1.86,0,0,0-1.13.05,1.3,1.3,0,0,1,.64.49l0,.05,0,0,0,.05,0,0a.08.08,0,0,1,0,0l0,0s0,.06,0,.09,0,0,0,0v.14s0,.08,0,.1,0,.11,0,.13a.13.13,0,0,1,0,.06.11.11,0,0,1,0,.05v.1s0,0,0,.06l0,0,0,.09s0,0,0,0l0,.06,0,0,0,.06,0,0-.05.07,0,0-.07.09,0,0-.06.07,0,0-.06.07,0,0-.09.09,0,0-.09.07,0,0-.08.06,0,0L10,15h0l-.13.08,0,0-.1.05-.05,0-.1,0,0,0-.16.06h0l-.15.05h0l-.15,0H9l-.15,0h0l-.15,0H7.92l-.11,0h0l-.11,0H7.6l-.12,0h0l-.15,0,0,0-.12,0-.06,0-.1,0-.06,0L6.83,15l-.06,0-.11-.06,0,0-.15-.09h0l-.12-.08-.05,0-.1-.06-.06,0L6,14.52l-.06,0-.1-.08-.05,0-.14-.11h0l-.13-.1,0,0-.09-.07L5.32,14l-.09-.07-.05,0-.1-.08,0,0-.14-.12h0l-.13-.11,0,0-.09-.08-.06-.05-.09-.08,0,0-.09-.08-.05,0L4.16,13l0,0L4,12.83l-.06,0-.12-.09-.06,0-.12-.08,0,0-.18-.1h0l-.16-.08-.06,0L3,12.27l-.06,0-.12-.05-.05,0-.17-.06h0l-.15,0h0L2.3,12H2.24l-.11,0H2a2.08,2.08,0,0,0-.29,0c-.11-.25-.2-.5-.29-.74l.35-.05h0l.34,0h0l.13,0h.06l.13,0h.05l.19,0h0l.18,0,.05,0,.15,0,.06,0,.15,0,0,0,.21.06h0l.19.05.06,0,.16.06.06,0,.19.06h0l.23.08h0l.21.08h0l.21.08h0l.27.1.64.23c2.33.84,3.25-.87,2.52-1.69a1.6,1.6,0,0,0-1.84-.28c.73-1.71,3.5-1.26,5.31,0l.16.1,0,0,0,0,.09.05,0,0,.12.07,0,0a.8.8,0,0,0,.16.08l0,0,.13.06.05,0,.11.05,0,0,.16.06h0l.16.06.05,0,.11,0,.05,0,.12,0,0,0,.16,0h0l.12,0h.05l.1,0h.05l.14,0h0l.14,0h.19l.13,0,.27,0c-.14.37-.3.76-.49,1.15m1.3-4.74a13.77,13.77,0,0,1-.56,2.86l-.18,0a5.69,5.69,0,0,1-2.65-.92l-.24-.16c0-.07,0-.14,0-.21a3.6,3.6,0,0,0-.3-1L15.8,6.43,16,6.32C16,7,16,7.49,15.93,7.78Z" transform="translate(0 0)"></path></g></g></g></svg> 