<?xml version="1.0" encoding="UTF-8"?> <svg xmlns="http://www.w3.org/2000/svg" xmlns:xlink="http://www.w3.org/1999/xlink" viewBox="0 0 123.38 20.75"><defs><style>.cls-1{fill:none;}.cls-2{clip-path:url(#clip-path);}.cls-3{fill:#fff;}</style><clipPath id="clip-path" transform="translate(0 0)"><rect class="cls-1" width="123.38" height="20.75"></rect></clipPath></defs><title>Footer Logo 9HQ Vector</title><g id="Layer_2" data-name="Layer 2"><g id="Layer_1-2" data-name="Layer 1"><g class="cls-2"><path class="cls-3" d="M13.88,8.16,13.79,8a.93.93,0,0,0-.26-1,.69.69,0,0,0-.48-.09h0c-.09.12,0,.21,0,.29a.28.28,0,0,1,.08.15c0,.46-.34.65-.71.83l-.32.18c-.74.37-1.73,1-1.79,2A2.11,2.11,0,0,0,11,11.86l.13.21a1,1,0,0,1,.26.86c-.07.16-.26.18-.42.18-.61,0-1-.72-1.24-1.21l0-.07-.06-.12a1.6,1.6,0,0,1-.16-.48h.05a.75.75,0,0,1,.09.15c0,.1.09.21.21.21h.06a.76.76,0,0,0,0-.73l0,0a1,1,0,0,0-.23-.26.9.9,0,0,1-.24-.28s0-.06.09-.08.15,0,.15-.14h0A2.13,2.13,0,0,1,9.5,9.2a.22.22,0,0,1,.1-.09.21.21,0,0,0,.13-.19h0a2.73,2.73,0,0,1-.07-.84.75.75,0,0,1,.05-.16.51.51,0,0,0,0-.42h0c-.08,0-.09-.08-.1-.16a.18.18,0,0,0-.12-.2h0a1.67,1.67,0,0,1-.7-.2l-.27-.12a.48.48,0,0,0-.32.05l-.12,0L8,6.92a.76.76,0,0,0-.46.19.52.52,0,0,0-.09.36v.07s0,0,0,0,0,0-.07,0l0,0a.33.33,0,0,1-.15-.38A.23.23,0,0,0,7,6.89a.46.46,0,0,0-.39-.06.47.47,0,0,0-.25.3l0,.08h0a.6.6,0,0,0,.08.36,1.6,1.6,0,0,0,.44.31,2.3,2.3,0,0,1,.33.21.41.41,0,0,1-.13.34h0c0,.07,0,.11.09.14a.17.17,0,0,1,.06.07.53.53,0,0,1-.44-.1.36.36,0,0,1-.07-.1c0-.08-.09-.16-.21-.18s-.16.11-.19.2a.36.36,0,0,0,0,.09.66.66,0,0,0,0,.15.23.23,0,0,1-.05.17H6.1a4.81,4.81,0,0,1-1.25-.7,2.56,2.56,0,0,1-.46-.52l-.11-.15a.93.93,0,0,0,0-.13c-.07-.26-.15-.56-.47-.63h0c-.07,0-.19,0-.2.13l0,.09L3.35,7a.52.52,0,0,0-.35,0,.84.84,0,0,0-.25.22h0a.17.17,0,0,0,.15.19c.06,0,.1,0,.11.09a.56.56,0,0,0,.15.33l0,0-.08.07A.48.48,0,0,0,3,8l-.12.28v0h0c0,.09.11.21.23.22h0a.36.36,0,0,1,.23,0,.51.51,0,0,0,.21,0h.1a.15.15,0,0,1,.12,0s0,0,0,.06h0a.43.43,0,0,1,0,.25s0,.07,0,.1a1.39,1.39,0,0,1-.54.45.22.22,0,0,0,0,.25h0c.08.11.23.09.35.08h.06A.94.94,0,0,0,4,9.67a.92.92,0,0,1,.27-.08.63.63,0,0,0,.26.3.25.25,0,0,0,.23-.08c.06-.05.1-.08.17-.06A.38.38,0,0,1,5,10a.7.7,0,0,0,.11.23s0,0,0,.05l0,0a.78.78,0,0,1-.22,0,.65.65,0,0,0-.39.13h0a.23.23,0,0,0,.14.23,1.42,1.42,0,0,0,.5.13l.09,0a1.07,1.07,0,0,0,.25,0h.23l0,0-.54.36-.29.11a2.35,2.35,0,0,0-.44.17.44.44,0,0,1-.4-.15.58.58,0,0,0-.36-.17h0a.5.5,0,0,0-.34.13.37.37,0,0,0-.07.33.17.17,0,0,0,.12.09c.05,0,.07,0,.07.06a1.12,1.12,0,0,1-.15.42,1.05,1.05,0,0,0-.15.43.22.22,0,0,0,.11.25.21.21,0,0,0,.23,0,.47.47,0,0,0,.06-.09.13.13,0,0,1,.1-.09.63.63,0,0,0,.53-.12s0,0,0,0a.08.08,0,0,1,0,.06c0,.08,0,.18.09.22h0c.26,0,.39-.24.5-.43l0-.05.09,0a.29.29,0,0,1,.24,0,.44.44,0,0,1-.07.27.7.7,0,0,0-.08.2H5a.2.2,0,0,0,.15.13h0a1.11,1.11,0,0,0,.65-.5l.09-.12v0c0-.07.06-.12.13-.12s.28-.08.37-.2a.42.42,0,0,1,.12-.14h0s0,0,0,.06a.19.19,0,0,0,0,.13h0c.09.1.2.05.28,0l.09,0,.23-.15c.28.09.57.16.84.22.1,0,.1.1.08.21a.29.29,0,0,0,0,.24.24.24,0,0,1-.2.07,3,3,0,0,1-.43,0,1.47,1.47,0,0,0-1,.29l-.22.22a1.06,1.06,0,0,0-.5.2,1.11,1.11,0,0,1-.38.18h0a.5.5,0,0,1-.32.06c-.16,0-.31,0-.4.14v0h0c.11.25.41.33.64.39l.15,0c.08,0,.13,0,.16.05s0,.26.18.31a.19.19,0,0,0,.15,0s.06,0,.08,0a1.31,1.31,0,0,0,.21.2,1,1,0,0,1,.18.18c0,.06-.13.05-.24,0l-.11,0H6l-.13,0c-.16,0-.34.06-.46-.08l-.15-.13a.78.78,0,0,0-.54-.27h0c-.19.05-.36.12-.4.32a.19.19,0,0,0,.09.19l0,0c-.27.19-.38.4-.33.62v0c0,.05,0,.13.14.13a.21.21,0,0,0,.12,0,.15.15,0,0,1,.13,0,.31.31,0,0,1,0,.1c0,.15,0,.34.19.4h0a.76.76,0,0,0,.16-.06c.09-.05.16-.09.26,0a.35.35,0,0,0,.33-.06L5.59,16c.2,0,.28.18.35.34v0l0,0c.14.11.34.26.54.15h0a.33.33,0,0,0,0-.29c0-.11,0-.2.09-.25a.86.86,0,0,1,.22,0,.74.74,0,0,0,.21,0c.24,0,.56.05.71-.24L8,15.38l0-.22.15,0a.25.25,0,0,0,.2,0,.24.24,0,0,0,.08-.11h0a1.39,1.39,0,0,1-.07-.67,1,1,0,0,1,.21-.4h0a2.21,2.21,0,0,1,.05.25,1.82,1.82,0,0,0,.15.54,2.93,2.93,0,0,1-.1.37,1.39,1.39,0,0,0-.09.35.93.93,0,0,1-.49.58.2.2,0,0,0-.07.24c.05.1.16.09.25.09h.13A1.51,1.51,0,0,0,9.4,16a.41.41,0,0,0,.29-.08c.09-.05.17-.09.27,0a.52.52,0,0,0,.37.06c.19,0,.31,0,.36.16a.6.6,0,0,0,0,.19c0,.18,0,.31-.13.35a.77.77,0,0,1-.26-.1c-.22-.1-.46-.22-.67,0a.24.24,0,0,0-.07.29c0,.08.08.15,0,.2l0,0a.54.54,0,0,0-.1.46c0,.1.15.13.3.1a.35.35,0,0,1,.28,0,.6.6,0,0,0,.19.06l0,0a.72.72,0,0,0,.42.2h0a.2.2,0,0,0,.09-.14.2.2,0,0,1,0-.08.61.61,0,0,1,.14-.07c.12,0,.25-.08.25-.25a.67.67,0,0,1,.29-.37.75.75,0,0,0,.46-.23h.07L12,16.77l-.09-.09-.07-.07A.44.44,0,0,1,12,16.3c.09-.15.19-.31,0-.5l0-.18a.55.55,0,0,0-.18-.41.82.82,0,0,0-.26-.14L11.36,15s0,0,.07,0l.06,0a.47.47,0,0,1,.28.05c.13.05.26.1.38-.05h0a.56.56,0,0,0-.24-.43l0,0a1.47,1.47,0,0,0-.54-.2,1.06,1.06,0,0,1-.64-.32h0a1.17,1.17,0,0,0,1-.24,1.11,1.11,0,0,1,.54-.45h0a1,1,0,0,0,.29-.83.49.49,0,0,1,.14-.3.58.58,0,0,1,.18-.08c.13,0,.29-.09.24-.28v0h0a1.09,1.09,0,0,0-.62-.17v0s0-.05.05-.07l0,0,.25-.14c.31-.16.67-.35.65-.78h0l0,0a.13.13,0,0,0-.11-.12h0a.44.44,0,0,0-.24.13.54.54,0,0,1-.16.1,1.87,1.87,0,0,1-.52.17,1.87,1.87,0,0,0-.55.18h0s0,0,0-.06a1,1,0,0,1,.2-.15.47.47,0,0,0,.26-.24.49.49,0,0,0,0-.11c0-.14.1-.28.23-.33h0a.36.36,0,0,1,.15-.08A.31.31,0,0,0,13,9.81h0a.24.24,0,0,0-.19-.17.91.91,0,0,0-.88.31l-.11,0a1.84,1.84,0,0,0-.57.34h0a.05.05,0,0,1,0,0c0-.39.28-.68.56-.94l.07-.06a.65.65,0,0,0,.22-.11.39.39,0,0,1,.38-.09.7.7,0,0,0,.57.12.72.72,0,0,0,.3-.27.81.81,0,0,1,.22-.23.35.35,0,0,1,.2,0c.11,0,.25.08.32-.09a.51.51,0,0,0-.16-.46M6.79,7.59a.33.33,0,0,1-.16-.34c0-.1,0-.21.16-.23s.11,0,.11.07a.47.47,0,0,0,.07.4c.23.26.59.34.73.64l-.09,0a8.73,8.73,0,0,0-.82-.52M4,7.26a.29.29,0,0,1,0,.16s-.1,0-.13,0a.19.19,0,0,1-.08-.2c0-.23.21,0,.21.07m.84,2.17c-.11,0-.2.14-.31.06s0-.29-.13-.33-.35.29-.57.25c.15-.24.4-.51.27-.83a.5.5,0,0,0-.26-.35c-.13,0-.21.14-.34.07s-.3-.06-.2-.22.41-.15.28-.38-.3,0-.32-.22-.07-.23,0-.3c.26,0,.43.25.58.41a2.56,2.56,0,0,1,.73.7,4.14,4.14,0,0,0,1.57.9c0,.09,0,.17-.11.23a8.18,8.18,0,0,1-.55.61.17.17,0,0,1-.12,0c-.2-.19-.18-.57-.52-.59M3.75,11.49c.08.07.24.12.24.25a.43.43,0,0,1-.38.06c-.07-.07,0-.19,0-.29s.13-.06.18,0m3.12,0c-.11.11-.28,0-.4.08s-.2.45-.41.19c-.09,0-.14,0-.19.1a2.13,2.13,0,0,1-.33.59s-.09,0-.12,0S5.51,12,5.3,12a.57.57,0,0,0-.25.08c-.16,0-.39,0-.48.16s0,.18-.13.2-.23-.08-.28-.21-.11-.08-.16,0-.12.25-.27.25a.74.74,0,0,1-.3-.08c0-.26.31-.29.49-.39.36-.08.62-.3,1-.36a4.68,4.68,0,0,0,1.43-1.05.65.65,0,0,1,.2,0c0,.09,0,.21.16.23s.27-.13.32,0a1.78,1.78,0,0,1-.14.7m.19.14a1.82,1.82,0,0,0,.11-1.22c0-.08-.11-.06-.17,0s-.1.16-.2.13.08-.32-.1-.39-.24.16-.37.23a2.32,2.32,0,0,1-1.13.29A.27.27,0,0,1,5,10.54a1.55,1.55,0,0,1,.36-.19A6.37,6.37,0,0,0,6.53,9.19c0-.17-.18-.37,0-.52s.17.13.27.17a.67.67,0,0,0,.55.06.36.36,0,0,0,.28-.32.1.1,0,0,0-.08-.12s-.1,0-.12-.05a.15.15,0,0,1,.12-.14c.19,0,.38.41.51.08s-.16-.47-.35-.63a.2.2,0,0,1-.06-.19c.15-.09,0-.21.08-.31s.48-.06.68-.2c.34,0,.59.26.9.34,0,.07,0,.21.14.22a.08.08,0,0,1,.07.07A2.05,2.05,0,0,1,9.42,8c0,.09-.16.12-.16.25s.1.1.12.16l0,.45c-.27.09-.14.43-.16.61a2,2,0,0,0,0,.43c-.07,0-.19,0-.22.12a1,1,0,0,0,.13.43c.1.15.31.18.32.37A1.23,1.23,0,0,1,9,10.68a1.48,1.48,0,0,1-.48-.54s-.07,0-.11,0,0,.33-.15.42c-.15-.09-.14-.45-.37-.34a3.23,3.23,0,0,1-.68,1.26c-.06,0-.07.12-.16.1M4.77,14.73c.17-.07.35.09.43.24-.1.06-.24,0-.35,0a.34.34,0,0,1-.08-.25M8.62,13.6a1.47,1.47,0,0,0-.43.68c0,.19,0,.37,0,.54s-.1,0-.14-.05-.06-.44-.3-.39a.5.5,0,0,0-.16.51c.1.14.3.25.19.44s-.13.35-.35.37-.67-.1-.94.13a.85.85,0,0,0-.19.3c-.15,0-.11-.19-.19-.28s-.16,0-.24-.07-.24-.18-.39-.08-.27.22-.41.1l-.2-.06c0-.06.07-.15,0-.22l-.39-.18s0-.07,0-.1c.32-.21.68,0,1.06,0a1.84,1.84,0,0,1,.74,0c.15,0,.33,0,.41-.08a.26.26,0,0,0,0-.28c-.11-.24-.47-.3-.51-.58a.26.26,0,0,0-.13-.14c-.08,0-.14.07-.23,0s0-.17-.13-.21-.37.08-.51,0c0-.09.13-.07.2-.11a3.11,3.11,0,0,0,.64-.3l.32,0c.32-.53,1-.49,1.53-.51l.55-.17c.19,0,.23.27.26.42a.79.79,0,0,1-.11.43m1.53,3.16c0,.06-.06,0-.09,0s0,0-.06,0,.13,0,.15,0M12.75,9c-.18,0-.31-.23-.52-.14A2.06,2.06,0,0,0,11,10.09a.78.78,0,0,0,.13.72.2.2,0,0,0,.15,0c.11-.2.2-.47.46-.52a2.67,2.67,0,0,0,.46-.2s0,0,.06,0c-.06.19-.15.42-.36.49a.76.76,0,0,0-.32.49c0,.1,0,.23.05.31s.17,0,.23-.07A1.48,1.48,0,0,1,13,10.91s0,.1-.08.11a1.3,1.3,0,0,0-.83.79.16.16,0,0,0,.09.12c.18,0,.32-.13.51-.11,0,.12-.15.12-.19.22-.34.3,0,1-.58,1.08-.16,0-.14.24-.25.34a.89.89,0,0,1-.81.28c-.22,0-.41-.3-.6-.09,0,.22.2.34.31.53a2.33,2.33,0,0,0,1,.4.15.15,0,0,1,.1.09c0,.08-.1.05-.17,0a1.28,1.28,0,0,1-.7,0s-.06,0-.07.07c0,.24.31.33.47.46s.39.06.47.26v.25a.59.59,0,0,1,.09.43.57.57,0,0,0-.15.65c-.06.05-.16,0-.23,0s-.29.19-.34.36a.28.28,0,0,1-.22.27c-.11,0-.19.05-.29,0s0-.2-.09-.25-.21.21-.38.12a.36.36,0,0,1-.19-.15c0-.1.09-.13.16-.18.36,0,.84-.11,1-.51,0-.19-.06-.34,0-.51a.54.54,0,0,0-.48-.37c-.2-.05-.42,0-.56-.12s-.12-.09-.19,0-.08.09-.14,0-.14-.13-.2,0a1.05,1.05,0,0,1-.66.61c0-.08,0-.17.08-.26A2.63,2.63,0,0,0,9,15.17a.47.47,0,0,0,.12-.45A2.09,2.09,0,0,1,9,13.5a1.47,1.47,0,0,0-.42-1.33c-.22-.12-.39-.33-.65-.37s-.41,0-.5-.16.21-.28.29-.43L8,10.77c.12,0,.09.15.21.14s.22-.39.47-.27.28.21.4.35a4,4,0,0,0,.82,1.75,1.33,1.33,0,0,0,1.37.6c.14-.13.34-.26.38-.47.14-1-1.14-1.51-1-2.5s1.05-1.46,1.81-1.82c.43-.22,1-.52,1-1.07a.23.23,0,0,1,0-.14c.16,0,.15.24.16.39s-.14.28-.09.45.19.11.18.21c-.42,0-.5.57-.92.56" transform="translate(0 0)"></path><path class="cls-3" d="M8.71,7.54a.12.12,0,0,1-.11.15.4.4,0,0,1-.36-.1c-.1-.07,0-.21,0-.31a.15.15,0,0,1,.18,0,1.38,1.38,0,0,1,.31.28" transform="translate(0 0)"></path><path class="cls-3" d="M9.34,7.73a.39.39,0,0,1-.1.24.08.08,0,0,1-.12,0,.28.28,0,0,1,.08-.25.09.09,0,0,1,.14.05" transform="translate(0 0)"></path><path class="cls-3" d="M8.63,8.53v.18c-.19.21-.19.54-.48.66A.13.13,0,0,1,8,9.26a1.07,1.07,0,0,1,0-.4c.12-.07.16.18.26.06a1.59,1.59,0,0,1,.27-.45.09.09,0,0,1,.1.06" transform="translate(0 0)"></path><path class="cls-3" d="M0,0V6.92c0,8.36,8.39,13.73,8.47,13.79l.08.05.08-.05c.08-.05,8.62-5.18,8.62-13.74V0ZM17,.3c0,.38,0,1.57,0,4.74H.3V.3ZM14.67,6H12.75V5.28h1.92ZM10.49,6H8.57V5.28h1.92ZM6.28,6H4.35V5.28H6.28ZM2.11,6H.36V5.28H2.11ZM8.55,20.4C7.71,19.83.3,14.69.3,6.92V6.27H16.94V7c0,8-7.52,12.89-8.39,13.43" transform="translate(0 0)"></path><path class="cls-3" d="M5.76,3.42h0a.61.61,0,0,0-.44-.11s0-.08,0-.15v0h0a2,2,0,0,1,0-.54,2.64,2.64,0,0,0,0-.4l0-.05h.12A.4.4,0,0,0,5.74,2a.32.32,0,0,0,0-.28c0-.07-.09-.11-.14-.15h0a.36.36,0,0,0-.18,0c-.07,0-.12,0-.15,0s0-.35,0-.53h0C5.2.82,5.06.83,4.93.85a1.07,1.07,0,0,1-.18,0h0a4.42,4.42,0,0,1-.63,0A2.67,2.67,0,0,0,2.93,1,1.91,1.91,0,0,0,2.34.82H2.12a3.25,3.25,0,0,0-.7,0H1.3C1.16.8,1,.78.92.92l-.05.55a.21.21,0,0,1-.19,0,.31.31,0,0,0-.26.07.25.25,0,0,0,0,.29c0,.13.14.17.25.2a.2.2,0,0,0,.13,0,.12.12,0,0,1,.09,0,2.85,2.85,0,0,1,0,.65,2.36,2.36,0,0,0,0,.46l0,0H.75a.52.52,0,0,0-.27.07.41.41,0,0,0-.1.34h0l0,0a.21.21,0,0,0,.14.12.39.39,0,0,0,.15,0,.22.22,0,0,1,.16,0,.65.65,0,0,1,0,.24.4.4,0,0,0,.1.38h.56l1.11,0,0,0a.76.76,0,0,0,.3.14H3a.71.71,0,0,0,.4-.16c.37,0,.76,0,1.14,0h.71v0a.79.79,0,0,0,0-.38V4.06a.17.17,0,0,1,0-.13s.1,0,.18,0,.3,0,.34-.18a.38.38,0,0,0,0-.3m-1-2.22c0-.05.12,0,.14.06,0,.93,0,1.85,0,2.69,0,0-.07,0-.11,0a1.3,1.3,0,0,1,0-.44c0-.75,0-1.51,0-2.27m-1.65,0A.4.4,0,0,1,3.45,1H4.53l0,.06c0,.93,0,1.81,0,2.72a7.64,7.64,0,0,0-1.43.09c-.11-.09,0-.24-.05-.37,0-.3,0-.63,0-.94s0-.95,0-1.39M1.58,3c0-.57,0-1.27,0-1.89C1.6,1,1.66,1,1.69,1c.4,0,.84-.07,1.16.13l0,.11c0,.77,0,1.55,0,2.35l0,.3c-.2,0-.39-.09-.61-.07a4.5,4.5,0,0,1-.65,0A2.25,2.25,0,0,1,1.58,3m-.14-1.8c.05.93,0,1.82,0,2.71a.13.13,0,0,1-.11.1,2.7,2.7,0,0,1,0-.85c0-.58,0-1.24,0-1.82a.26.26,0,0,1,.15-.14M2.65,4.35a1,1,0,0,1-.38,0l-1.17,0C1,4.28,1.05,4.12,1.05,4s0-.25-.09-.32-.32,0-.43-.12c.08-.23.45,0,.52-.3,0-.42,0-.85,0-1.25C1,1.81.74,1.88.58,1.85s-.06-.06,0-.11.42,0,.52-.17a3.14,3.14,0,0,0,0-.53.31.31,0,0,1,.25,0v.05c-.11.08-.25.22-.2.36.05,1,0,1.83.05,2.73l.08.1a7.82,7.82,0,0,1,1.37,0s0,0,0,.07m.05-.18a6.28,6.28,0,0,0-1.16-.08v0A.19.19,0,0,1,1.69,4,5.1,5.1,0,0,1,2.81,4c0,.06-.05.11-.11.14m.42.33a.17.17,0,0,1-.21,0c-.07,0-.08-.09-.09-.15s.1-.17.17-.26a.31.31,0,0,1,.2.13.23.23,0,0,1-.07.25m.09-.45c0-.1.16-.07.25-.1.36,0,.78,0,1.13,0a.32.32,0,0,1,.14.12c0,.07-.13,0-.2.06H4.16a4.06,4.06,0,0,0-.86,0,.1.1,0,0,1-.09-.1M5.56,3.7c-.15,0-.37-.05-.45.11a3.38,3.38,0,0,1,0,.55L5,4.4l-1.62,0s0,0,0-.07l.16,0H4.86C5,4.22,5,4.05,5,4c0-.64,0-1.21,0-1.83a4.48,4.48,0,0,0,0-.9c0-.07-.12-.12-.13-.2s.2,0,.24,0,0,.42.07.6.29,0,.4.06a.12.12,0,0,1,0,.16c-.12.13-.39,0-.46.17,0,.45,0,.89,0,1.35l.06.05c.15,0,.34,0,.44.08s0,.14-.07.17" transform="translate(0 0)"></path><path class="cls-3" d="M11.1,3.34a.48.48,0,0,1-.18,0,6.37,6.37,0,0,1,0-1.07c0-.07.11-.07.19-.08a.36.36,0,0,0,.26-.09.36.36,0,0,0,0-.32.31.31,0,0,0-.31-.18l-.14,0a.82.82,0,0,1,0-.27,1.16,1.16,0,0,0,0-.32v0h0l0,0a.24.24,0,0,0-.18-.07,4.57,4.57,0,0,1-.74,0A2.7,2.7,0,0,0,8.71.93c-.09.06-.18,0-.28,0A.55.55,0,0,0,8.25.85h-1A.77.77,0,0,1,7,.83c-.18,0-.38,0-.49.15l0,.54s-.09.05-.17.05H6.16A.26.26,0,0,0,6,1.89c0,.21.2.22.35.24l.15,0c0,.08,0,.15,0,.22a2.06,2.06,0,0,1,0,.43v.49a.32.32,0,0,1-.22,0,.35.35,0,0,0-.32.11h0a.38.38,0,0,0,0,.25c.07.17.24.18.38.19l.17,0a1.09,1.09,0,0,1,0,.36v.17h0c.12.17.35.16.54.14a1.2,1.2,0,0,1,.19,0,4.17,4.17,0,0,1,.5,0h.5l.28.12.13,0a.56.56,0,0,0,.3-.12l0,0H9.4a4.27,4.27,0,0,1,.62,0,4.19,4.19,0,0,0,.79,0h0a.24.24,0,0,0,.1-.27.33.33,0,0,1,0-.17.2.2,0,0,0,0-.13s0-.07,0-.09l.09,0a.47.47,0,0,0,.37-.18h0a.32.32,0,0,0-.31-.38m-.72-2.12s.15,0,.15.1c0,.87,0,1.81,0,2.66,0,0-.1,0-.11-.09,0-.36-.05-.71,0-1.09s0-1.08,0-1.58M8.7,3.64V1.25a.18.18,0,0,1,.13-.17C9,1,9.13,1,9.29,1l.9,0,0,.07c0,.9,0,1.81,0,2.71l0,0a6,6,0,0,0-1.42.08c-.08,0,0-.18,0-.26M7.25,1s0,0,.06,0a3.4,3.4,0,0,1,1.16.09c.11.09.09.25.09.39,0,.44,0,1,0,1.41v.16a6,6,0,0,1,0,.85L8.1,3.82a4.58,4.58,0,0,1-.83,0l0-.1c0-.9,0-1.75,0-2.66m-.18.1,0,0c0,.79,0,1.51,0,2.3-.07.18.08.45-.19.49,0-.79,0-1.64,0-2.5a.33.33,0,0,1,.17-.33M8.13,4.42a12.94,12.94,0,0,1-1.4,0l-.05,0a1.56,1.56,0,0,0-.08-.61c-.14-.06-.31,0-.46,0s0-.13,0-.18.44,0,.52-.16c0-.44,0-.87,0-1.33-.13-.18-.39,0-.51-.18,0-.27.42,0,.52-.25l0-.54a.26.26,0,0,1,.24,0c0,.1-.11.14-.16.22s0,.37,0,.56c0,.79,0,1.54,0,2.32a.15.15,0,0,0,.11.14l1.22,0a.44.44,0,0,1,.2.08c0,.07-.12,0-.17.06M7.07,4.11A.51.51,0,0,1,7.2,4,7.2,7.2,0,0,1,8.43,4s.1.06.06.11l-.09.08a7.24,7.24,0,0,0-1.33-.11m1.59.45c-.08,0-.21,0-.21-.12a.32.32,0,0,1,.17-.19c.08,0,.13,0,.15.1s0,.21-.11.21M8.9,4.2c-.07,0-.15,0-.16-.08S8.92,4,9,4c.42,0,.82,0,1.22,0,.06,0,.13.09.13.15l-.06,0A6.64,6.64,0,0,0,8.9,4.2m1.87-.39c0,.21.05.39,0,.59l-.05,0L9,4.41s0,0,0-.06l.1-.06c.46,0,1,0,1.45,0a.13.13,0,0,0,.11-.14c0-.87,0-1.78,0-2.76,0-.13-.16-.21-.18-.34s.23-.05.28.06a2.34,2.34,0,0,0,0,.59c.14.13.53,0,.45.26-.13.08-.3,0-.44,0l0,0c-.06.46,0,.93,0,1.34,0,0,0,.13.1.14s.32-.08.37.08-.38,0-.47.24" transform="translate(0 0)"></path><path class="cls-3" d="M8.43,2.87c-.14-.12-.18-.29-.29-.43s.12-.08.18-.13.19-.22.14-.36a.37.37,0,0,0-.18-.29,2,2,0,0,0-.8,0,.06.06,0,0,0,0,.1.23.23,0,0,1,.14.19c0,.31,0,.62,0,.93L7.43,3c.12.12.3,0,.48.06s-.08-.14-.1-.23,0-.22.05-.3c.18.15.23.39.44.53l.27,0V2.91s-.1,0-.13,0m-.36-.56c-.08,0-.21,0-.23-.05s-.06-.34,0-.48a.24.24,0,0,1,.34.06.5.5,0,0,1,.05.27c-.05.08-.07.17-.16.2" transform="translate(0 0)"></path><path class="cls-3" d="M16.79,3.37a.48.48,0,0,0-.17-.05l-.17,0V2.89a5.6,5.6,0,0,1,0-.71.22.22,0,0,1,.16,0,.31.31,0,0,0,.22-.06.36.36,0,0,0,.11-.29c0-.2-.18-.22-.32-.24a.38.38,0,0,1-.19-.05.74.74,0,0,1,0-.21.6.6,0,0,0-.09-.41h0a2.15,2.15,0,0,0-.43,0,2.73,2.73,0,0,1-.41,0h0a3.1,3.1,0,0,1-.43,0,1.28,1.28,0,0,0-.8.17l-.11,0a1.12,1.12,0,0,0-.4-.1l-1.58,0h0l-.07.06,0,.61v0l-.15,0c-.13,0-.28,0-.35.2a.29.29,0,0,0,.1.34.33.33,0,0,0,.2,0c.12,0,.19,0,.2.1s0,.4,0,.61,0,.27,0,.42-.05.05-.12.05a.25.25,0,0,0-.12,0c-.14,0-.23.12-.24.22a.26.26,0,0,0,.13.29l.17,0c.08,0,.15,0,.18.07a.59.59,0,0,1,0,.23.45.45,0,0,0,.11.41h1.26a1.44,1.44,0,0,1,.77.14l.11,0a.61.61,0,0,0,.28-.11l.06,0H16a1,1,0,0,0,.42-.06h0v0a1.38,1.38,0,0,0,0-.29,1.38,1.38,0,0,1,0-.29c0-.06.08-.07.16-.08a.24.24,0,0,0,.12,0,.24.24,0,0,0,.18-.22.39.39,0,0,0-.12-.25Zm-.95-2.18c0-.1.13.05.17.11,0,.64,0,1.25,0,1.86,0,.28,0,.54,0,.8a.09.09,0,0,1,0,0c-.19-.08-.12-.3-.13-.48a4.7,4.7,0,0,1,0-.75l0-.08ZM14.38,1.1C14.62,1,15,1,15.25,1h.41a.59.59,0,0,1,.05.32c0,.55,0,1.07,0,1.59a5.92,5.92,0,0,1,0,.89l-.09,0c-.41.05-.85-.09-1.2.12-.07,0-.07-.08-.08-.12l0-1.17h0l0,0h0a.37.37,0,0,1,.07.23L14.36,3l.05,0a1.68,1.68,0,0,0,.45,0c0-.07-.12-.09-.16-.14-.16-.42-.27-.86-.4-1.29v0c0-.16,0-.32.08-.46m-.2,1c.11.07.09.23.14.35s-.13.06-.18,0l-.06,0c0-.12,0-.27.1-.36M12.84,1A10.15,10.15,0,0,1,14,1.06c.26.08.19.37.2.57l-.06.21h0c-.09.31-.21.61-.28.94,0,.08-.11.09-.16.14s-.12-.07-.15-.12c0-.34,0-.63,0-1,0-.06.06-.12.11-.07s.08.16.12.24a0,0,0,0,0,.09,0l.06-.36c-.05-.11-.15,0-.24,0s-.42,0-.58-.06-.1.24-.12.36A0,0,0,0,0,13,2c.11-.07.17-.25.33-.21v.35l0,.74c0,.06-.16.09-.15.17a4.38,4.38,0,0,0,.63,0,.91.91,0,0,0,.33,0,.06.06,0,0,0,0-.08c-.07,0-.15-.09-.13-.19s0-.17.15-.13,0,0,0,0,0,.07,0,.09a11.22,11.22,0,0,1,0,1.17c-.13,0-.21-.08-.33-.08-.33,0-.62,0-1,0-.11,0-.08-.18-.08-.28,0-.87,0-1.63,0-2.52,0,0,.05,0,.07,0m-.23.14c.05.1,0,.17.05.27V3.89c0,.07-.11.1-.15.15l0,0c0-.27,0-.57,0-.82V3c0-.54,0-1.14,0-1.69,0-.05.09-.14.15-.16m1.3,3.26c-.55,0-1.11,0-1.64,0l0-.06a1.65,1.65,0,0,0-.07-.59c-.13-.11-.49,0-.4-.23.14-.1.36,0,.44-.13,0-.49,0-.91,0-1.36-.1-.14-.29,0-.43-.08a.13.13,0,0,1,0-.17c.15-.13.59,0,.51-.32,0-.15-.07-.44.14-.45,0,0,.1,0,.13,0s-.13.16-.17.26c0,.94,0,2,0,2.93l.08,0a3.82,3.82,0,0,1,1.48.1s0,0,0,0m-.32-.26c-.3,0-.64,0-.93,0,.08-.25.43-.1.63-.15s.56,0,.79.09c0,0,0,.08,0,.09-.14.17-.31,0-.49,0m.7.42a.17.17,0,0,1-.2-.12.26.26,0,0,1,.13-.26c.1,0,.15.07.19.13s0,.25-.12.25m.23-.35a.09.09,0,0,1-.07-.13c.09-.11.24-.08.38-.11l.94,0a.27.27,0,0,1,.12.14,10.22,10.22,0,0,0-1.37.07m2.18-.58c-.11.15-.36,0-.43.17l0,.57-.08,0H14.64s0,0,0,0l.19-.07H16a.16.16,0,0,0,.13-.14c0-.9,0-1.84,0-2.83L16,1c.06-.05.22-.06.26,0s-.05.43.08.63c.13,0,.35-.05.42.09s-.39.06-.47.28c0,.43,0,.79,0,1.26a.08.08,0,0,0,0,.12c.12.11.29-.06.41,0s0,.09,0,.14" transform="translate(0 0)"></path><path class="cls-3" d="M15.34,2.73c0,.1-.07.1-.14.11S15,2.66,15,2.51a.07.07,0,0,0-.06,0V3S15,3,15,3s.18,0,.3,0,.19-.08.24-.21a.5.5,0,0,0-.13-.5c-.14-.17-.38-.17-.36-.41,0-.08.08-.1.15-.1s.14.11.22.18,0-.21,0-.29,0-.12-.07-.1-.36,0-.45.16a.55.55,0,0,0-.07.25c0,.42.53.32.5.73" transform="translate(0 0)"></path><path class="cls-3" d="M9.67,1.66c-.12.06-.25.15-.21.31a4.93,4.93,0,0,0,0,.86L9.63,3V3a3.62,3.62,0,0,1-.57,0c-.08-.09.1-.14.13-.21a4.77,4.77,0,0,0,0-1c0-.1-.21-.06-.16-.17a2.72,2.72,0,0,1,.57,0Z" transform="translate(0 0)"></path><path class="cls-3" d="M4.09,1.88C4,2,4,1.76,3.84,1.74s-.17,0-.23,0a.85.85,0,0,0,0,.42c.05,0,.14,0,.2,0S3.91,2,4,2.05s0,.15,0,.21.06.2,0,.23-.11-.16-.2-.16H3.61a1.31,1.31,0,0,0,0,.59c.09.09.21,0,.31,0s.12-.24.24-.22a.44.44,0,0,1,0,.3l-.06,0H3.3S3.19,3,3.22,3c.26-.16.12-.47.15-.72s.1-.46-.14-.57c0-.07.07-.05.09-.07.21,0,.49.08.65-.09.12.06.11.23.12.35" transform="translate(0 0)"></path><path class="cls-3" d="M2.84,1.7c-.23.18-.24.5-.34.77s0,.36-.2.49-.1,0-.11-.08a8.38,8.38,0,0,0-.31-1c0-.11-.26-.13-.12-.21s.3,0,.46,0-.12.16-.08.29.07.38.2.53l.05-.06c0-.27.31-.51.06-.74.06-.1.23,0,.35-.06s.1,0,0,.1" transform="translate(0 0)"></path><path class="cls-3" d="M22.89,17.31h.77l.4-1.16h1.85l.4,1.16h.84l-1.73-4.89h-.8Zm1.42-1.88.68-2h0l.67,2Zm4,1.88h.82V15.24h1.63v-.73H29.08v-1.3h2.24v-.77H28.26Zm4.19,0h.83V15.24H34.9v-.73H33.28v-1.3h2.24v-.77H32.45Zm4.25,0h.83V12.44H36.7Zm2.38,0h3.07v-.75H39.91V12.44h-.83Zm4.25,0h.83V12.44h-.83Zm2,0h.77l.41-1.16h1.84l.4,1.16h.84l-1.72-4.89h-.81Zm1.43-1.88.67-2h0l.66,2Zm4.47,1.88h.83v-4.1h1.5v-.77H49.72v.77h1.5Zm3.45,0H58v-.75H55.49V15.15H57.2v-.73H55.49V13.21h2.32v-.77H54.67Z" transform="translate(0 0)"></path><path class="cls-3" d="M23.28,8.67h.82V6.5h2.21V8.67h.82V3.8h-.82V5.74H24.1V3.8h-.82Zm5,0H29l.4-1.16h1.84l.4,1.16h.84L30.78,3.78H30Zm1.42-1.88.67-2h0l.66,2Zm3.94,1.88h.81V6.75h.86l1.09,1.92h.88l-1.14-2a1.29,1.29,0,0,0,1.07-1.38c0-1-.67-1.46-1.82-1.46H33.61ZM34.42,6V4.55h.9c.69,0,1,.17,1,.73S36,6,35.32,6Zm5.27,2.66h.78L42.16,3.8h-.78L40.1,7.59h0L38.84,3.8H38Zm2.79,0h.77l.41-1.16H45.5l.4,1.16h.84L45,3.78h-.81Zm1.43-1.88.67-2h0l.66,2Zm3.94,1.88h.81V6.75h.86l1.09,1.92h.88l-1.15-2a1.29,1.29,0,0,0,1.08-1.38c0-1-.67-1.46-1.83-1.46H47.85ZM48.66,6V4.55h.89c.7,0,1.06.17,1.06.73s-.36.75-1,.75Zm4.13,2.64h1.39A2.23,2.23,0,0,0,56.7,6.21,2.21,2.21,0,0,0,54.18,3.8H52.79Zm.82-.74V4.56h.63c1.12,0,1.64.48,1.64,1.65s-.52,1.72-1.63,1.72ZM60,8.67h.74V5h0a8.84,8.84,0,0,0,.3,1L62,8.67h.73L63.69,6c.11-.34.21-.66.29-1h0V8.67h.8V3.8H63.68L62.42,7.66h0L61.1,3.8H60Zm6.27,0h3.27V7.92H67.11V6.5h1.7V5.77h-1.7V4.56h2.32V3.8H66.29Zm4.47,0h1.39a2.24,2.24,0,0,0,2.53-2.46A2.21,2.21,0,0,0,72.15,3.8H70.76Zm.83-.74V4.56h.62c1.12,0,1.65.48,1.65,1.65s-.52,1.72-1.64,1.72ZM76,8.67h.83V3.8H76Zm4.28.09a1.89,1.89,0,0,0,2-1.62L81.46,7c-.19.73-.54,1-1.17,1C79.47,8,79,7.37,79,6.21s.48-1.74,1.3-1.74c.65,0,.93.33,1.12,1l.78-.22a1.78,1.78,0,0,0-1.89-1.51c-1.22,0-2.14.88-2.14,2.51S79,8.76,80.28,8.76m2.62-.09h.77l.41-1.16h1.84l.4,1.16h.84L85.44,3.78h-.81Zm1.43-1.88.67-2h0l.66,2Zm3.94,1.88h3.07V7.92H89.09V3.8h-.82ZM96,8.76c1.16,0,1.84-.63,1.84-1.42s-.74-1.22-1.66-1.49S95,5.46,95,5s.3-.55.84-.55a1.34,1.34,0,0,1,1.23.71l.6-.42a1.91,1.91,0,0,0-1.82-1c-1,0-1.66.54-1.66,1.37s.75,1.19,1.69,1.46S97,7,97,7.4,96.58,8,96,8a1.42,1.42,0,0,1-1.35-.85L94,7.52a2,2,0,0,0,2,1.24m5,0a1.89,1.89,0,0,0,2-1.62L102.09,7c-.19.73-.54,1-1.17,1-.82,0-1.32-.64-1.32-1.8s.48-1.74,1.3-1.74c.65,0,.93.33,1.12,1l.78-.22a1.78,1.78,0,0,0-1.89-1.51c-1.22,0-2.14.88-2.14,2.51s.89,2.54,2.14,2.54m3.21-.09h.82V6.5h2.21V8.67H108V3.8h-.82V5.74h-2.21V3.8h-.82Zm7.32.09a2.23,2.23,0,0,0,2.19-2.53,2.22,2.22,0,1,0-4.39,0,2.23,2.23,0,0,0,2.2,2.53m0-.74c-.83,0-1.37-.64-1.37-1.79s.54-1.77,1.37-1.77,1.36.63,1.36,1.77S112.26,8,111.44,8m5.42.74a2.23,2.23,0,0,0,2.19-2.53,2.22,2.22,0,1,0-4.39,0,2.23,2.23,0,0,0,2.2,2.53m0-.74c-.83,0-1.37-.64-1.37-1.79s.54-1.77,1.37-1.77,1.36.63,1.36,1.77S117.67,8,116.86,8m3.45.65h3.07V7.92h-2.25V3.8h-.82Z" transform="translate(0 0)"></path></g></g></g></svg> 