<?xml version="1.0" encoding="UTF-8"?> <svg xmlns="http://www.w3.org/2000/svg" xmlns:xlink="http://www.w3.org/1999/xlink" viewBox="0 0 102.77 30.75"><defs><style>.cls-1{fill:none;}.cls-2{clip-path:url(#clip-path);}.cls-3{fill:#fff;}.cls-4{clip-path:url(#clip-path-2);}.cls-5{fill:url(#linear-gradient);}.cls-6{clip-path:url(#clip-path-3);}.cls-7{fill:url(#linear-gradient-2);}.cls-8{clip-path:url(#clip-path-4);}.cls-9{fill:url(#linear-gradient-3);}</style><clipPath id="clip-path" transform="translate(2.01)"><rect class="cls-1" width="100.76" height="28.86"></rect></clipPath><clipPath id="clip-path-2" transform="translate(2.01)"><path class="cls-1" d="M3.26,16.59a7.67,7.67,0,0,0,1.37,7,10.84,10.84,0,0,0,.75.9A7.42,7.42,0,0,0,8.7,22.87a7,7,0,0,1-1.17-1.3,7.24,7.24,0,0,1-.76-7l.1-.22a6.45,6.45,0,0,0-3.61,2.2"></path></clipPath><linearGradient id="linear-gradient" x1="1345.96" y1="209.07" x2="1346.96" y2="209.07" gradientTransform="matrix(0, -8.32, -8.32, 0, 1745.55, 11225.85)" gradientUnits="userSpaceOnUse"><stop offset="0" stop-color="#fefefe"></stop><stop offset="0.03" stop-color="#fefefe"></stop><stop offset="0.25" stop-color="#fefefe"></stop><stop offset="0.34" stop-color="#fafafa"></stop><stop offset="0.43" stop-color="#eeeeef"></stop><stop offset="0.52" stop-color="#d9dbdd"></stop><stop offset="0.62" stop-color="#bcbfc2"></stop><stop offset="0.71" stop-color="#979ca1"></stop><stop offset="0.8" stop-color="#6a7178"></stop><stop offset="0.9" stop-color="#353e48"></stop><stop offset="0.95" stop-color="#131e29"></stop><stop offset="1" stop-color="#131e29"></stop></linearGradient><clipPath id="clip-path-3" transform="translate(2.01)"><path class="cls-1" d="M7.74,14.89a10.8,10.8,0,0,0-1.16.21,7.32,7.32,0,0,0-.24,3.69,7.21,7.21,0,0,1,8.12,2.46l.14.2a6.46,6.46,0,0,0-.1-4.23,7.39,7.39,0,0,0-5.7-2.39,9.16,9.16,0,0,0-1.06.06"></path></clipPath><linearGradient id="linear-gradient-2" x1="1112.46" y1="87.25" x2="1113.46" y2="87.25" gradientTransform="matrix(8.32, 0, 0, -8.32, -9252.41, 744.32)" xlink:href="#linear-gradient"></linearGradient><clipPath id="clip-path-4" transform="translate(2.01)"><path class="cls-1" d="M10.52,20.45a7.24,7.24,0,0,1-5.66,4.14l-.24,0a6.43,6.43,0,0,0,3.71,2A7.66,7.66,0,0,0,13.73,22c.15-.37.29-.73.4-1.1a7.32,7.32,0,0,0-3.07-2.06,7.32,7.32,0,0,1-.54,1.66"></path></clipPath><linearGradient id="linear-gradient-3" x1="1334.68" y1="-54.12" x2="1335.68" y2="-54.12" gradientTransform="matrix(-8.32, 0, 0, 8.32, 11120.48, 473.09)" xlink:href="#linear-gradient"></linearGradient></defs><title>Footer Logo 3HQ Vector</title><g id="Layer_2" data-name="Layer 2"><g id="Layer_1-2" data-name="Layer 1"><g class="cls-2"><path class="cls-3" d="M8.68,28.86l-.07,0C0,24.29,0,18.12,0,8.79V8.63H17.36v.16c0,9.35,0,15.52-8.61,20ZM.31,8.94c0,9.11,0,15.15,8.37,19.57,8.32-4.4,8.37-10.44,8.37-19.57Z" transform="translate(2.01)"></path><path class="cls-3" d="M4.41,11.74a.4.4,0,0,0,.2-.08.42.42,0,0,0,.13-.18.61.61,0,0,0,.06-.28.54.54,0,0,0-.06-.27.31.31,0,0,0-.16-.16.77.77,0,0,0-.3,0H4a3.53,3.53,0,0,0,0,.36v.67h.1a1.36,1.36,0,0,0,.29,0" transform="translate(2.01)"></path><path class="cls-3" d="M16.63,10.12V9.41H.71v.82c0,3.53,0,6.86,1,9.92a12.37,12.37,0,0,0,2.37,4.29A14.7,14.7,0,0,0,8.66,28h.05a14.66,14.66,0,0,0,4.58-3.55,12.24,12.24,0,0,0,2.36-4.3c1-3.07,1-6.44,1-10m-11,3a1,1,0,0,1-.28.34,1.26,1.26,0,0,1-.39.23,1.73,1.73,0,0,1-.55.08h0l-.8,0-.55,0v-.18a1.27,1.27,0,0,0,.21-.14,2.13,2.13,0,0,0,0-.27c0-.24,0-.66,0-1.26,0-.16,0-.41,0-.77a1.88,1.88,0,0,0,0-.44,0,0,0,0,0,0,0,1.65,1.65,0,0,0-.38-.05v-.28H4.09l.45,0a1.94,1.94,0,0,1,.62.08.61.61,0,0,1,.44.62.72.72,0,0,1-.12.4.83.83,0,0,1-.3.29,1.63,1.63,0,0,1-.29.11,1.34,1.34,0,0,1,.42.12.65.65,0,0,1,.29.28.89.89,0,0,1,.11.43.93.93,0,0,1-.11.44m9-2.47h-.31l-.06,0,0,0a1.34,1.34,0,0,0,0,.32v2.06a1.34,1.34,0,0,0,0,.32s0,0,0,0a.06.06,0,0,0,.05,0l.32,0v.29l-.87,0-.73,0v-.29l.34,0,0,0a.83.83,0,0,0,0-.15c0-.16,0-.38,0-.69v-.47H12v.94c0,.26,0,.33,0,.35v0l0,0,.33,0v.29l-.73,0-.87,0v-.29l.32,0a.06.06,0,0,0,.05,0s0,0,0,0a1.34,1.34,0,0,0,0-.32V11.08a1.39,1.39,0,0,0,0-.33l0,0-.05,0-.49,0-.17,0,0,.06a4.89,4.89,0,0,0-.16.48c-.08.29-.21.76-.38,1.41s-.27,1.07-.29,1.18H9.12l-.27-.72-.61-1.56c-.1.22-.32.75-.69,1.62l-.26.66H6.88l-.56-2.57a4.11,4.11,0,0,0-.13-.5.1.1,0,0,0-.05-.06l-.27,0v-.28l.71,0,.82,0v.28H7.13s-.07,0-.07,0,0,0,0,0v.06s0,.11,0,.27c.06.33.11.54.13.66l.18.83q.06-.12.15-.36l.3-.7.38-.9.11-.27h.28c.06.17.12.35.18.49.24.62.39,1,.45,1.13l.24.59.24-.94q.16-.64.18-.78a.13.13,0,0,0,0-.06.2.2,0,0,0,0,0s0,0-.05,0l-.33,0v-.28l.56,0,.73,0,.82,0,.73,0v.3h0a1.19,1.19,0,0,0-.29,0h0a.38.38,0,0,0,0,.15,6.46,6.46,0,0,0,0,.69v.24h1.49v-.24c0-.23,0-.4,0-.47a2.29,2.29,0,0,0,0-.35s0,0,0,0h0l-.33,0v-.3l.73,0,.87,0Z" transform="translate(2.01)"></path><path class="cls-3" d="M4.58,12.16a1.17,1.17,0,0,0-.42-.06H4v1.35h.26a.6.6,0,0,0,.45-.18.74.74,0,0,0,.17-.52.76.76,0,0,0-.09-.4.51.51,0,0,0-.23-.21" transform="translate(2.01)"></path></g><g class="cls-4"><rect class="cls-5" x="0.27" y="13.48" width="10.54" height="11.92" transform="translate(-6.99 5.4) rotate(-30.11)"></rect></g><g class="cls-6"><rect class="cls-7" x="6.1" y="14.82" width="8.97" height="6.64" transform="translate(1.98 0.02) rotate(-0.11)"></rect></g><g class="cls-8"><rect class="cls-9" x="3.6" y="16.64" width="11.54" height="12.15" transform="translate(-12.98 19.52) rotate(-60.11)"></rect></g><g class="cls-2"><path class="cls-3" d="M25.84,21.18l-1-2.59L23.47,22c-.1.25-.2.51-.28.78h-.4c-.05-.28-.11-.52-.18-.78L21.67,18c-.08-.33-.23-.37-.4-.38l-.22,0v-.22l1,0,1,0v.22l-.33,0c-.21,0-.37.05-.27.5l.79,3.4h0l1-2.38c.24-.6.49-1.21.71-1.84h.25a7.4,7.4,0,0,0,.33,1l1.22,3.3h0l1-3.7c0-.18-.07-.23-.37-.25l-.31,0v-.22l.83,0,.83,0v.22l-.26,0a.3.3,0,0,0-.3.22L27,22c-.06.22-.15.46-.21.77h-.4c-.17-.6-.36-1-.56-1.57m5.55-3.58a1.92,1.92,0,0,0-2,2.18c0,1.33.65,2.73,2.21,2.73,1.32,0,2-1,2-2.39s-.71-2.52-2.18-2.52m-2.85,2.46a2.76,2.76,0,0,1,3-2.79c1.69,0,2.89.92,2.89,2.61a3,3,0,0,1-3.06,2.95,2.65,2.65,0,0,1-2.81-2.77M41,18.34a1.22,1.22,0,0,1,.07-.57c0-.08.14-.1.33-.11l.33,0v-.22l-.73,0-.76,0-2.07,4.23-2.09-4.23-.75,0-.75,0v.22l.35,0c.18,0,.28,0,.33.11a1.38,1.38,0,0,1,.07.57v3.43a1.38,1.38,0,0,1-.07.57c-.05.08-.15.1-.33.11l-.35,0v.22l.92,0,1,0v-.22l-.35,0c-.19,0-.29,0-.34-.11a1.38,1.38,0,0,1-.07-.57V18.31h0l2.19,4.47H38c.14-.32.28-.66.43-1l1.41-2.88c.1-.21.21-.42.33-.62h0v3.46a1.22,1.22,0,0,1-.07.57c0,.08-.14.1-.33.11l-.27,0v.22l1.06,0,1.15,0v-.22l-.38,0c-.19,0-.29,0-.33-.11a1.22,1.22,0,0,1-.07-.57V18.34M43,21.77a1.22,1.22,0,0,1-.07.57c0,.08-.14.1-.33.11l-.28,0v.22l.84,0,1.73,0c.58,0,1.21,0,1.56,0a7.16,7.16,0,0,1,.12-1.25h-.27c-.06.46-.16.79-.28.86a8.22,8.22,0,0,1-1.6.09,2.5,2.5,0,0,1-.66-.06V20.19c.24,0,.54,0,.92,0a1.84,1.84,0,0,1,.83.09s.06.09.07.19l0,.45h.24c0-.28,0-.57,0-.85s0-.57,0-.88h-.24l0,.39a.29.29,0,0,1-.07.2,2.32,2.32,0,0,1-.83.08c-.38,0-.67,0-.92,0v-2a2.5,2.5,0,0,1,.66-.06,4.83,4.83,0,0,1,1.55.16c.07,0,.07.1.07.2v.5h.28a4.74,4.74,0,0,1,.13-1.16c-.31,0-.67,0-1,0l-1.87,0-1.34,0v.22l.38,0c.19,0,.29,0,.33.11a1.22,1.22,0,0,1,.07.57v3.43m4.8,0a1.38,1.38,0,0,1-.07.57c-.05.08-.14.1-.33.11l-.35,0v.22l.92,0,1,0v-.22l-.35,0c-.19,0-.28,0-.33-.11a1.18,1.18,0,0,1-.08-.57V18.25h0L52,22.71l.71.12a2.64,2.64,0,0,1,0-.28V18.34a1.22,1.22,0,0,1,.07-.57c0-.08.14-.1.33-.11l.35,0v-.22l-1,0-.92,0v.22l.35,0c.19,0,.29,0,.33.11a1.22,1.22,0,0,1,.07.57v3.57h0l-3.78-4.5-.43,0-.95,0v.22l.35,0c.19,0,.28,0,.33.11a1.38,1.38,0,0,1,.07.57v3.43m6.29-2.67a6.85,6.85,0,0,0,1-1.73l-.1-.1c-.26.08-.51.17-.77.23a3.45,3.45,0,0,1-.62,1.7l.12.08.35-.18m4.67-.43a5.05,5.05,0,0,1,.11-1.07,3.62,3.62,0,0,0-1.43-.33,1.85,1.85,0,0,0-2,1.73c0,.79.49,1.17,1.74,1.3.8.09,1.39.3,1.39,1a1.29,1.29,0,0,1-1.42,1.18c-.62,0-1.25-.29-1.29-.61l-.06-.51h-.25a7.71,7.71,0,0,1-.06,1.16,3.35,3.35,0,0,0,1.35.29c1.18,0,2.39-.62,2.39-1.92,0-.87-.7-1.14-1.82-1.26s-1.3-.42-1.3-.94a1.1,1.1,0,0,1,1.17-1.11,1.79,1.79,0,0,1,.86.18c.29.17.33.25.35.46l0,.43h.25M22.64,9.83v1.85h.56c.69,0,1.3-.27,1.3-1s-.54-.9-1.2-.9a2.52,2.52,0,0,0-.66.07m0,4.55a3,3,0,0,0,.66.06,1.27,1.27,0,0,0,1.43-1.3c0-.84-.55-1.18-1.56-1.18l-.53,0Zm-.76-4a1.22,1.22,0,0,0-.07-.57c0-.08-.14-.1-.33-.12l-.29,0V9.46l1.14,0,1.53,0c.74,0,1.42.24,1.42,1A1.4,1.4,0,0,1,24,11.75v0c.8,0,1.59.34,1.59,1.24,0,.74-.59,1.79-2.32,1.75l-.86,0-.87,0v-.18l.21-.07c.14-.06.17-.29.17-.5Zm10.86-.57c0-.08.15-.11.34-.12l.38,0V9.46l-1.15,0-1.17,0v.23l.38,0c.19,0,.28,0,.33.12a1.38,1.38,0,0,1,.07.57v3.42a1.38,1.38,0,0,1-.07.57c-.05.08-.14.11-.33.12h-.6a.55.55,0,0,1-.41-.19l-1.79-2.26c.76-.14,1.54-.64,1.54-1.47,0-.55-.33-1.16-1.6-1.14l-1.39,0-1.34,0v.23l.32,0c.19,0,.29,0,.34.12a1.38,1.38,0,0,1,.07.57v3.42a1.38,1.38,0,0,1-.07.57c-.05.08-.15.11-.34.12l-.38,0v.23c.41,0,.79,0,1.18,0s.73,0,1.14,0v-.23l-.38,0c-.19,0-.28,0-.33-.12a1.22,1.22,0,0,1-.07-.57v-4a3.36,3.36,0,0,1,.81-.09c.61,0,1.25.23,1.25,1.05a1.14,1.14,0,0,1-1,1.07,2.8,2.8,0,0,1-.7,0l0,.09c.14.16.29.31.42.47l1.45,1.89c.1.13.22.26.33.41h.6l1.82,0c.36,0,.74,0,1.15,0v-.23l-.38,0c-.19,0-.29,0-.34-.12a1.38,1.38,0,0,1-.07-.57V10.4a1.38,1.38,0,0,1,.07-.57M38.42,14a.7.7,0,0,1,0,.31c-.05.14-.5.27-1.11.27A2.41,2.41,0,0,1,34.72,12,2.12,2.12,0,0,1,37,9.65a3.36,3.36,0,0,1,1.11.14c.37.13.66.25.66.61v.4H39a4.39,4.39,0,0,1,.16-1.16,6.47,6.47,0,0,0-2-.31c-1.91,0-3.34,1.08-3.34,2.76,0,1.91,1.42,2.8,3.19,2.8a9.27,9.27,0,0,0,2.08-.39V13.22c0-.22,0-.25.08-.28l.23-.08,0-.19H37.49v.23l.66,0c.21,0,.27.09.27.27V14m20.09.54v.23c-.42,0-.79,0-1.15,0s-.76,0-1.06,0v-.23l.27,0c.19,0,.28,0,.33-.12a1.22,1.22,0,0,0,.07-.57V10.36h0c-.12.21-.23.42-.34.63l-1.41,2.88c-.15.31-.28.65-.42,1h-.16l-2.19-4.48h0v3.46a1.38,1.38,0,0,0,.07.57c0,.08.15.1.33.12l.35,0v.23l-1,0-.68,0-1,0-1.05,0v-.23l.37,0c.17,0,.33-.06.33-.16a1.74,1.74,0,0,0-.17-.48L49.6,13H47.33l-.23.51a4.36,4.36,0,0,0-.27.79c0,.16.13.19.38.22l.29,0v.23l-.91,0-.91,0-.81,0c-.39,0-.76,0-1.17,0v-.23l.38,0c.19,0,.29,0,.33-.12a1.22,1.22,0,0,0,.07-.57v-1.7H41.32v1.7a1.22,1.22,0,0,0,.07.57c0,.08.14.11.33.12l.38,0v.23c-.41,0-.78,0-1.15,0s-.76,0-1.17,0v-.23l.38,0c.19,0,.29,0,.34-.12a1.38,1.38,0,0,0,.07-.57V10.4a1.38,1.38,0,0,0-.07-.57c0-.08-.15-.11-.34-.12l-.38,0V9.46l1.17,0,1.15,0v.23l-.38,0c-.19,0-.28,0-.33.12a1.22,1.22,0,0,0-.07.57v1.35c.09,0,.31,0,.65,0h1.86c.35,0,.56,0,.65,0V10.4a1.22,1.22,0,0,0-.07-.57c0-.08-.14-.11-.33-.12l-.38,0V9.46l1.17,0,1.15,0v.23l-.38,0c-.19,0-.29,0-.33.12a1.18,1.18,0,0,0-.08.57v3.42a1.18,1.18,0,0,0,.08.57c0,.08.33.12.33.12H46a.58.58,0,0,0,.43-.38l1.41-3.08c.24-.54.51-1.1.73-1.65h.25l1.91,4.33c.08.15.16.36.26.52a.44.44,0,0,0,.32.26h.37c.19,0,.29,0,.34-.12a1.38,1.38,0,0,0,.07-.57V10.4A1.38,1.38,0,0,0,52,9.83c-.05-.08-.15-.1-.34-.12l-.35,0V9.46l.76,0,.75,0L54.9,13.7,57,9.46l.75,0,.74,0v.23l-.33,0c-.19,0-.29,0-.34.12a1.38,1.38,0,0,0-.07.57v3.42a1.38,1.38,0,0,0,.07.57c.05.08.15.11.34.12Zm-9-1.85-1-2.27-1,2.27Zm28.34-.89a2.89,2.89,0,0,1-1.7,2.7,4.22,4.22,0,0,1-1.69.27l-1,0-1.07,0v-.18l.24-.12a.47.47,0,0,0,.2-.45V10.4a1.38,1.38,0,0,0-.07-.57c-.05-.08-.14-.1-.33-.12l-.32,0-.42,0c-.19,0-.29,0-.33.12a1.18,1.18,0,0,0-.08.57v4.21a2.66,2.66,0,0,0,0,.28l-.71-.12-3.73-4.46h0v3.51a1.38,1.38,0,0,0,.07.57c0,.08.15.1.34.12l.34,0v.23l-1,0-.68,0-.9,0-1,0v-.23l.37,0c.17,0,.32-.06.32-.16a1.66,1.66,0,0,0-.16-.48L64.1,13H61.82l-.22.51a4.36,4.36,0,0,0-.27.79c0,.16.13.19.38.22l.29,0v.23l-.91,0-.91,0v-.23l.29,0a.58.58,0,0,0,.43-.38l1.41-3.08c.24-.54.51-1.1.73-1.65h.25l1.91,4.33c.08.15.16.36.26.52a.44.44,0,0,0,.31.26H66c.19,0,.29,0,.34-.12a1.38,1.38,0,0,0,.07-.57V10.4a1.38,1.38,0,0,0-.07-.57c0-.08-.15-.1-.34-.12l-.34,0V9.46l1,0,.42,0L70.82,14h0V10.4a1.38,1.38,0,0,0-.07-.57c0-.08-.14-.1-.33-.12l-.35,0V9.46l.91,0,1,0,1.56,0,1.38,0c1.62,0,2.83.85,2.83,2.33M64,12.68l-1-2.27-1,2.27ZM77,12c0-1.89-1.12-2.24-2.54-2.24a4.37,4.37,0,0,0-.91.07v4.53a4.4,4.4,0,0,0,.91.06,3,3,0,0,0,1.28-.22A2.17,2.17,0,0,0,77,12m-9.78,6.34a1.22,1.22,0,0,1,.07-.57c.05-.08.14-.11.33-.11l.38,0v-.22l-1.14,0-1.18,0v.22l.38,0c.19,0,.29,0,.34.11a1.38,1.38,0,0,1,.07.57V19.7c-.1,0-.31,0-.66,0H63.91c-.35,0-.56,0-.66,0V18.34a1.38,1.38,0,0,1,.07-.57c0-.08.14-.11.34-.11l.37,0v-.22l-1.14,0-1.17,0v.22l.38,0c.19,0,.28,0,.33.11a1.38,1.38,0,0,1,.07.57v3.43a1.38,1.38,0,0,1-.07.57c0,.08-.14.11-.33.11l-.38,0v.22l1.17,0,1.14,0v-.22l-.37,0c-.2,0-.29,0-.34-.11a1.38,1.38,0,0,1-.07-.57v-1.7c.1,0,.31,0,.66,0h1.85c.35,0,.56,0,.66,0v1.7a1.38,1.38,0,0,1-.07.57c0,.08-.15.11-.34.11l-.38,0v.22l1.18,0,1.14,0v-.22l-.38,0c-.19,0-.28,0-.33-.11a1.22,1.22,0,0,1-.07-.57V18.34m4-.74a1.92,1.92,0,0,0-2,2.18c0,1.33.65,2.73,2.22,2.73,1.32,0,2-1,2-2.39s-.7-2.52-2.18-2.52m-2.84,2.46a2.75,2.75,0,0,1,3-2.79c1.69,0,2.9.92,2.9,2.61a3,3,0,0,1-3.06,2.95,2.65,2.65,0,0,1-2.81-2.77m9.77-1.39a5.05,5.05,0,0,1,.11-1.07,3.62,3.62,0,0,0-1.43-.33,1.85,1.85,0,0,0-2,1.73c0,.79.49,1.17,1.74,1.3.8.09,1.39.3,1.39,1a1.29,1.29,0,0,1-1.42,1.18c-.62,0-1.25-.29-1.29-.61l-.06-.51H74.8a6.56,6.56,0,0,1,0,1.16,3.35,3.35,0,0,0,1.35.29c1.18,0,2.39-.62,2.39-1.92,0-.87-.7-1.14-1.82-1.26s-1.3-.42-1.3-.94a1.1,1.1,0,0,1,1.17-1.11,1.79,1.79,0,0,1,.86.18c.29.17.33.25.35.46l0,.43h.25m2.38-.88a2.87,2.87,0,0,1,.81-.1c.78,0,1.28.35,1.28,1.14A1.12,1.12,0,0,1,81.38,20a1.63,1.63,0,0,1-.53-.08l.08.28a3.88,3.88,0,0,0,.48,0,1.75,1.75,0,0,0,1.9-1.64c0-.86-.87-1.18-1.64-1.16l-1.35,0-1.42,0v.22l.36,0c.19,0,.28.05.34.13a1.32,1.32,0,0,1,.07.55v3.43a1.22,1.22,0,0,1-.07.57c0,.08-.14.11-.33.11l-.38,0v.22l1.17,0,1.15,0v-.22l-.38,0c-.19,0-.28,0-.33-.11a1.22,1.22,0,0,1-.07-.57v-4m4.82.55a1.38,1.38,0,0,1,.07-.57c.05-.08.14-.11.33-.11l.38,0v-.22l-1.14,0-1.18,0v.22l.38,0c.19,0,.29,0,.34.11a1.38,1.38,0,0,1,.07.57v3.43a1.38,1.38,0,0,1-.07.57c-.05.08-.15.11-.34.11l-.38,0v.22l1.18,0,1.14,0v-.22l-.38,0c-.19,0-.28,0-.33-.11a1.38,1.38,0,0,1-.07-.57V18.34m3.22,3.43a1.22,1.22,0,0,1-.07.57c-.05.08-.14.11-.33.11l-.38,0v.22l1.17,0,1.15,0v-.22l-.38,0c-.19,0-.29,0-.33-.11a1.22,1.22,0,0,1-.07-.57V18.54a6,6,0,0,1,0-.76h1.22c.24,0,.31.07.32.25l0,.6h.25a12.19,12.19,0,0,1,0-1.22l-1.71,0H88.27l-1.7,0a12.19,12.19,0,0,1,.05,1.22h.25l0-.6c0-.18.08-.25.32-.25h1.22c0,.23,0,.47,0,.76v3.23m12.29-.4c-.05.42-.1.93-.17,1.31-.35,0-1,0-1.56,0l-1.72,0-.92,0h-.1l-1,0-1,0v-.22l.37,0c.17,0,.33-.06.33-.15a1.79,1.79,0,0,0-.17-.49l-.37-.87H92.18l-.23.51a4.36,4.36,0,0,0-.27.79c0,.16.13.19.38.21l.29,0v.22l-.91,0-.91,0v-.22l.29,0a.55.55,0,0,0,.43-.37L92.66,19c.24-.53.51-1.1.73-1.65h.25l1.92,4.34a4.77,4.77,0,0,0,.25.51c.08.15.17.25.31.26l.27,0a1.8,1.8,0,0,0,.49-.07.5.5,0,0,0,.2-.45V18.34a1.38,1.38,0,0,0-.07-.57c-.05-.08-.15-.11-.33-.11l-.39,0v-.22l1.18,0,1.15,0v.22l-.39,0c-.19,0-.28,0-.33.11a1.38,1.38,0,0,0-.07.57v4a2.5,2.5,0,0,0,.66.06,6.11,6.11,0,0,0,1.75-.14,1.33,1.33,0,0,0,.17-.49l.1-.38Zm-6.45-.74-1-2.27-1,2.27Z" transform="translate(2.01)"></path><path class="cls-3" d="M.16.12H1.94c.84,0,1.75.18,1.75,1.22a1.07,1.07,0,0,1-.82,1.05v0a1.14,1.14,0,0,1,1,1.16c0,1-.94,1.34-1.79,1.34h-2ZM1.21,2H2c.33,0,.67-.13.67-.52S2.26,1,1.93,1H1.21Zm0,2h1c.33,0,.7-.14.7-.56S2.35,2.93,2,2.93h-.8ZM5.68.12H7.53c1,0,1.81.34,1.81,1.45a1.23,1.23,0,0,1-1,1.31l1.22,2H8.25L7.25,3H6.73V4.91H5.68Zm1.05,2h.63c.38,0,.88,0,.88-.53S7.81,1,7.42,1H6.73ZM11,.12h1.05V4.91H11Zm7.36,4.45a4.39,4.39,0,0,1-2,.46,2.43,2.43,0,0,1-2.58-2.52A2.42,2.42,0,0,1,16.36,0a2.75,2.75,0,0,1,1.91.61l-.75.82A1.46,1.46,0,0,0,16.36,1a1.45,1.45,0,0,0-1.49,1.54,1.44,1.44,0,0,0,1.49,1.54,2,2,0,0,0,1-.23V3h-.86v-1h1.88ZM20.49.12h1.05V1.91h2.05V.12h1.05V4.91H23.59V2.84H21.54V4.91H20.49Zm7.45,0h.87l2.08,4.79H29.71l-.42-1H27.43l-.39,1H25.87Zm.41,1.39L27.77,3h1.16ZM32.12.12h1.6l1.1,3.12h0L35.94.12h1.59V4.91H36.48V1.24h0L35.2,4.91h-.8L33.19,1.24h0V4.91H32.12Zm10.41,0h1V1.91h2.05V.12h1.06V4.91H45.63V2.84H43.58V4.91h-1Zm6.57,0h3.26v1h-2.2V2h2.07V3H50.16v1h2.32v1H49.1Zm6.81,0h.87l2.08,4.79H57.67l-.41-1H55.4l-.4,1H53.84Zm.41,1.39L55.73,3H56.9ZM60.26.12h1.06V3.93h2v1h-3Zm4.51.93H63.41V.12h3.78v.93H65.83V4.91H64.77ZM68.61.12h1V1.91h2V.12h1.06V4.91H71.71V2.84h-2V4.91h-1Z" transform="translate(2.01)"></path></g></g></g></svg> 