<?xml version="1.0" encoding="UTF-8"?> <svg xmlns="http://www.w3.org/2000/svg" xmlns:xlink="http://www.w3.org/1999/xlink" viewBox="0 0 109.44 20.51"><defs><style>.cls-1{fill:none;}.cls-2{clip-path:url(#clip-path);}.cls-3{fill:#fff;}</style><clipPath id="clip-path" transform="translate(0 0)"><rect class="cls-1" width="109.44" height="20.51"></rect></clipPath></defs><title>Footer Logo 7HQ Vector</title><g id="Layer_2" data-name="Layer 2"><g id="Layer_1-2" data-name="Layer 1"><g class="cls-2"><path class="cls-3" d="M26.79,5.55v-4c0-.47-.15-.54-.64-.54H26V.7c.32,0,.65,0,1,0s.66,0,1,0V1h-.13c-.51,0-.66.07-.66.54V6.22l0,.3-.64-.11L22.61,1.62v4c0,.47.16.55.67.55h.13V6.4c-.32,0-.64,0-1,0s-.65,0-1,0V6.15h.13c.5,0,.65-.08.65-.55V1.5c0-.47-.13-.54-.59-.55h-.11V.7a5.43,5.43,0,0,0,.71,0,5.32,5.32,0,0,0,.69,0Z" transform="translate(0 0)"></path><path class="cls-3" d="M29.9,5.28a4.64,4.64,0,0,0,0,.7,9.49,9.49,0,0,0,1.11,0,4.43,4.43,0,0,0,1.31-.14,2.24,2.24,0,0,0,.1-.41L32.53,5h.27a3.6,3.6,0,0,0-.08.66v.68c-.3,0-.85,0-1.35,0s-1,0-1.47,0-1,0-1.47,0V6.15a.64.64,0,0,0,.7-.73V1.68c0-.63,0-.69-.78-.73V.7c.5,0,1,0,1.49,0s1,0,1.5,0,1.07,0,1.35,0a2.79,2.79,0,0,0-.13.8c0,.17,0,.31,0,.48h-.25a4.42,4.42,0,0,0-.11-.8A4.16,4.16,0,0,0,31,1.08a7.8,7.8,0,0,0-1,0,4.36,4.36,0,0,0,0,.68V3.32c1.78,0,1.89.11,1.9-.69h.27V4.52H31.8c0-.92-.06-.88-1.9-.81Z" transform="translate(0 0)"></path><path class="cls-3" d="M33.87,1.58l0-.18C33.72,1,33.65,1,33.27,1h-.09V.7c.35,0,.68,0,1,0s.68,0,1,0V1c-.79,0-.68.27-.62.58l.18.8.64,2.83,1-2.54.73-2h.26l.25.76,1.36,3.81.64-2.3.38-1.45c.08-.33.18-.57-.65-.52V.7a8.25,8.25,0,0,0,.86,0,7.94,7.94,0,0,0,.85,0V1c-.34,0-.4,0-.51.31l-1.2,3.91L39.1,6.43h-.41l-.58-1.68L37.09,2l-1.41,3.6-.3.84H35c-.07-.28-.13-.55-.19-.84Z" transform="translate(0 0)"></path><path class="cls-3" d="M43.62,1.93c0-.31,0-.57,0-.81l-1.25,0c-.17,0-.27,0-.29.24A6,6,0,0,0,42,2h-.24c0-.15,0-.3,0-.45s0-.57,0-.88c.77,0,1.55,0,2.35,0s1.56,0,2.35,0c0,.31,0,.59,0,.88s0,.3,0,.45h-.24A6,6,0,0,0,46,1.4c0-.21-.12-.23-.29-.24l-1.27,0c0,.24,0,.5,0,.81V5.42c0,.64,0,.69.77.73V6.4c-.39,0-.77,0-1.17,0s-.78,0-1.15,0V6.15c.78,0,.78-.09.78-.73Z" transform="translate(0 0)"></path><path class="cls-3" d="M52.59,3.37a3.12,3.12,0,0,1-3.16,3.15,2.8,2.8,0,0,1-2.89-3A2.85,2.85,0,0,1,49.6.58a2.69,2.69,0,0,1,3,2.79m-.88.25C51.71,2,51,.93,49.47.93s-2.06,1-2.06,2.32.67,2.92,2.28,2.92c1.36-.09,2-1,2-2.55" transform="translate(0 0)"></path><path class="cls-3" d="M58.18,5.55v-4C58.18,1,58,1,57.54,1h-.13V.7c.32,0,.65,0,1,0s.66,0,1,0V1h-.13c-.51,0-.67.07-.67.54V6.22l0,.3-.64-.11L54,1.62v4c0,.47.16.55.67.55h.13V6.4c-.32,0-.64,0-1,0s-.65,0-1,0V6.15H53c.5,0,.65-.08.65-.55V1.5C53.63,1,53.5,1,53,1h-.11V.7a5.43,5.43,0,0,0,.71,0,5.58,5.58,0,0,0,.7,0Z" transform="translate(0 0)"></path><polygon class="cls-3" points="59.71 4.61 59.67 4.57 59.89 4.02 62.03 4.02 62.08 4.06 61.83 4.61 59.71 4.61"></polygon><path class="cls-3" d="M63,1.58l0-.18C62.85,1,62.78,1,62.39,1h-.08V.7c.34,0,.68,0,1,0s.68,0,1,0V1c-.79,0-.67.27-.61.58l.17.8.65,2.83,1-2.54.73-2h.26l.24.76,1.37,3.81.64-2.3.37-1.45c.08-.33.19-.57-.64-.52V.7a8.06,8.06,0,0,0,.85,0,8,8,0,0,0,.86,0V1c-.34,0-.4,0-.51.31l-1.2,3.91-.32,1.26h-.41l-.58-1.68L66.22,2,64.8,5.59l-.29.84H64.1c-.06-.28-.12-.55-.19-.84Z" transform="translate(0 0)"></path><path class="cls-3" d="M72.15,5.28a4.64,4.64,0,0,0,0,.7A9.49,9.49,0,0,0,73.3,6a4.43,4.43,0,0,0,1.31-.14,2.24,2.24,0,0,0,.1-.41L74.78,5h.27a3.6,3.6,0,0,0-.08.66v.68c-.3,0-.85,0-1.35,0s-1,0-1.47,0-1,0-1.47,0V6.15a.64.64,0,0,0,.7-.73V1.68c0-.63,0-.69-.78-.73V.7c.5,0,1,0,1.49,0s1,0,1.49,0,1.08,0,1.36,0a2.48,2.48,0,0,0-.13.8c0,.17,0,.31,0,.48h-.25a3.65,3.65,0,0,0-.12-.8,4.09,4.09,0,0,0-1.21-.14,7.8,7.8,0,0,0-1,0,4.36,4.36,0,0,0,0,.68V3.32c1.78,0,1.89.11,1.9-.69h.27V4.52h-.27c0-.92-.06-.88-1.9-.81Z" transform="translate(0 0)"></path><path class="cls-3" d="M77.13,5.68l0,.3A10.58,10.58,0,0,0,78.3,6a4.43,4.43,0,0,0,1.31-.14,1.34,1.34,0,0,0,.08-.26l.19-.68.26,0c0,.11,0,.32-.08.54L80,6.36c-.26,0-.78,0-1.26,0s-.92,0-1.4,0-.92,0-1.4,0V6.15c.39-.06.44-.3.44-1V1.68c0-.63,0-.69-.77-.73V.7c.37,0,.75,0,1.15,0s.78,0,1.17,0V1c-.78,0-.77.1-.77.73Z" transform="translate(0 0)"></path><path class="cls-3" d="M81.85,5.68l0,.3A10.58,10.58,0,0,0,83,6a4.46,4.46,0,0,0,1.31-.14,1.34,1.34,0,0,0,.08-.26l.19-.68.26,0c0,.11-.05.32-.08.54l-.09.86c-.26,0-.79,0-1.26,0s-.93,0-1.4,0-.93,0-1.4,0V6.15c.38-.06.44-.3.44-1V1.68c0-.63,0-.69-.77-.73V.7c.36,0,.75,0,1.14,0s.79,0,1.18,0V1c-.78,0-.78.1-.78.73Z" transform="translate(0 0)"></path><path class="cls-3" d="M86.67,5.28a3.61,3.61,0,0,0,0,.7,9.31,9.31,0,0,0,1.1,0,4.53,4.53,0,0,0,1.32-.14,1.65,1.65,0,0,0,.09-.41L89.3,5h.27a2.84,2.84,0,0,0-.09.66v.68c-.3,0-.84,0-1.35,0s-1,0-1.46,0-1,0-1.48,0V6.15a.63.63,0,0,0,.7-.73V1.68c0-.63,0-.69-.77-.73V.7c.5,0,1,0,1.49,0s1,0,1.49,0,1.07,0,1.35,0a2.79,2.79,0,0,0-.13.8c0,.17,0,.31,0,.48H89a3.15,3.15,0,0,0-.11-.8,4.13,4.13,0,0,0-1.21-.14,7.72,7.72,0,0,0-1,0,3.4,3.4,0,0,0,0,.68V3.32c1.77,0,1.88.11,1.89-.69h.27V4.52h-.27c0-.92,0-.88-1.89-.81Z" transform="translate(0 0)"></path><path class="cls-3" d="M93.41,2.07a1.24,1.24,0,0,0-.09-.65A1.49,1.49,0,0,0,92.14,1,1.17,1.17,0,0,0,90.9,2.11c0,1.77,3.25.3,3.25,2.35a2.21,2.21,0,0,1-2.46,2.06,3.57,3.57,0,0,1-1.4-.31c0-.31,0-.7.06-1V5h.28v.39a.54.54,0,0,0,.11.42A2,2,0,0,0,92,6.15a1.32,1.32,0,0,0,1.45-1.24c0-2-3.22-.13-3.22-2.5a1.87,1.87,0,0,1,2-1.83A4.31,4.31,0,0,1,93.8,1c0,.13,0,.26-.06.39s0,.48-.06.72Z" transform="translate(0 0)"></path><path class="cls-3" d="M96.08,5.68l0,.3a10.58,10.58,0,0,0,1.15,0,4.46,4.46,0,0,0,1.31-.14,1.34,1.34,0,0,0,.08-.26l.19-.68.26,0c0,.11,0,.32-.08.54l-.09.86c-.26,0-.79,0-1.27,0s-.92,0-1.39,0-.93,0-1.4,0V6.15c.38-.06.44-.3.44-1V1.68c0-.63,0-.69-.77-.73V.7c.36,0,.75,0,1.14,0s.79,0,1.18,0V1c-.78,0-.78.1-.78.73Z" transform="translate(0 0)"></path><path class="cls-3" d="M100.89,5.28a3.52,3.52,0,0,0,0,.7A9.31,9.31,0,0,0,102,6a4.53,4.53,0,0,0,1.32-.14,1.65,1.65,0,0,0,.09-.41l.08-.45h.26a3.6,3.6,0,0,0-.08.66v.68c-.3,0-.84,0-1.35,0s-1,0-1.47,0-1,0-1.47,0V6.15a.63.63,0,0,0,.7-.73V1.68c0-.63,0-.69-.77-.73V.7c.49,0,1,0,1.49,0s1,0,1.49,0,1.07,0,1.35,0a2.79,2.79,0,0,0-.13.8c0,.17,0,.31,0,.48h-.26a3.15,3.15,0,0,0-.11-.8A4.13,4.13,0,0,0,102,1.08a7.8,7.8,0,0,0-1,0,3.31,3.31,0,0,0,0,.68V3.32c1.78,0,1.9.11,1.9-.69h.27V4.52h-.27c0-.92-.05-.88-1.9-.81Z" transform="translate(0 0)"></path><path class="cls-3" d="M107.07,3.58l.84-1.33c.31-.52.61-1,.88-1.55h.65V.83a16.23,16.23,0,0,0-2,2.89,1.36,1.36,0,0,0-.12.61V5.42c0,.64,0,.69.78.73V6.4c-.39,0-.78,0-1.18,0s-.78,0-1.14,0V6.15c.78,0,.77-.09.77-.73V4.22a.61.61,0,0,0,0-.25l-1-1.71c-.27-.46-.77-1.26-1.34-1.2V.83l.86-.17c.24-.05.36.09.5.26a6.06,6.06,0,0,1,.35.53Z" transform="translate(0 0)"></path><path class="cls-3" d="M27.25,13.27c0,.64,0,.69.77.73v.25c-.39,0-.77,0-1.16,0s-.78,0-1.14,0V14c.77,0,.77-.09.77-.73V11.38H23.26v1.89c0,.64,0,.69.77.73v.25c-.39,0-.77,0-1.16,0s-.78,0-1.14,0V14c.78,0,.77-.09.77-.73V9.53c0-.63,0-.69-.77-.73V8.55c.36,0,.74,0,1.14,0s.77,0,1.16,0V8.8c-.78,0-.77.1-.77.73V11h3.23V9.53c0-.63,0-.69-.77-.73V8.55c.36,0,.74,0,1.14,0s.77,0,1.16,0V8.8c-.78,0-.77.1-.77.73Z" transform="translate(0 0)"></path><path class="cls-3" d="M34.22,11.22a3.11,3.11,0,0,1-3.12,3.15,2.78,2.78,0,0,1-2.86-3,2.84,2.84,0,0,1,3-2.94,2.67,2.67,0,0,1,2.95,2.79m-.86.25c0-1.61-.72-2.69-2.22-2.69s-2,1-2,2.32S29.76,14,31.36,14c1.34-.09,2-1,2-2.55" transform="translate(0 0)"></path><path class="cls-3" d="M38,9.92a1.38,1.38,0,0,0-.08-.65,1.48,1.48,0,0,0-1.17-.47A1.17,1.17,0,0,0,35.49,10c0,1.77,3.21.31,3.21,2.35a2.19,2.19,0,0,1-2.43,2.06,3.43,3.43,0,0,1-1.38-.31c0-.31,0-.7,0-1v-.22h.28v.38a.54.54,0,0,0,.11.42,1.93,1.93,0,0,0,1.25.38A1.31,1.31,0,0,0,38,12.76c0-2-3.2-.13-3.2-2.5a1.87,1.87,0,0,1,2-1.83,4.26,4.26,0,0,1,1.56.38c0,.13,0,.26-.06.39s0,.48-.06.72Z" transform="translate(0 0)"></path><path class="cls-3" d="M39.85,9.53c0-.63,0-.69-.76-.73V8.55c.46,0,.93,0,1.42,0s.94,0,1.41,0c.78,0,1.66.35,1.66,1.27a1.8,1.8,0,0,1-1.87,1.72,2,2,0,0,1-.53,0l-.09-.31a2.19,2.19,0,0,0,.52.08,1.13,1.13,0,0,0,1.17-1.18c0-.84-.51-1.23-1.32-1.23a4.07,4.07,0,0,0-.79.11,1.75,1.75,0,0,0-.05.56v3.74c0,.64,0,.69.76.73v.25c-.38,0-.76,0-1.16,0s-.77,0-1.13,0V14c.77,0,.76-.09.76-.73Z" transform="translate(0 0)"></path><path class="cls-3" d="M45.49,13.27c0,.64,0,.69.76.73v.25c-.38,0-.76,0-1.16,0s-.77,0-1.13,0V14c.77,0,.76-.09.76-.73V9.53c0-.63,0-.69-.76-.73V8.55c.36,0,.74,0,1.13,0s.78,0,1.16,0V8.8c-.77,0-.76.1-.76.73Z" transform="translate(0 0)"></path><path class="cls-3" d="M48.71,9.79c0-.31,0-.57,0-.82L47.43,9c-.17,0-.26,0-.28.25a5.43,5.43,0,0,0-.09.62h-.24c0-.15,0-.3,0-.45s0-.57,0-.88c.77,0,1.53,0,2.32,0s1.55,0,2.33,0c0,.31,0,.59,0,.88v.45h-.25a3.88,3.88,0,0,0-.08-.62C51,9,50.93,9,50.76,9L49.51,9c0,.25,0,.51,0,.82v3.48c0,.64,0,.69.77.74v.24c-.39,0-.77,0-1.16,0s-.78,0-1.14,0V14c.78,0,.77-.1.77-.74Z" transform="translate(0 0)"></path><path class="cls-3" d="M56.05,13.14a2,2,0,0,0,.41.73.77.77,0,0,0,.44.14v.24c-.35,0-.71,0-1.07,0s-.72,0-1.07,0V14a1.34,1.34,0,0,0,.6-.12c.11-.06.12-.19.06-.33l-.49-1.19H52.64a9.23,9.23,0,0,0-.54,1.37c0,.27.39.22.68.27v.24c-.3,0-.61,0-.93,0s-.62,0-.92,0V14c.45-.1.51,0,.7-.45l.39-.83,1.09-2.46c.26-.58.53-1.18.74-1.76h.25ZM54.78,12l-1-2.43-1,2.43Z" transform="translate(0 0)"></path><path class="cls-3" d="M58.65,13.53l0,.3a10.3,10.3,0,0,0,1.13,0,4.71,4.71,0,0,0,1.3-.13,1.73,1.73,0,0,0,.08-.27l.19-.68.25,0c0,.11,0,.32-.08.54l-.08.86c-.26,0-.78,0-1.25,0s-.91,0-1.38,0-.92,0-1.39,0V14c.38-.06.44-.3.44-.95V9.53c0-.63,0-.69-.77-.73V8.55c.36,0,.74,0,1.14,0s.77,0,1.16,0V8.8c-.78,0-.77.1-.77.73Z" transform="translate(0 0)"></path><path class="cls-3" d="M8.74,20.51l-.05,0a15.86,15.86,0,0,1-7.14-7.16A17.33,17.33,0,0,1,0,6.12V0H17.47V6.12a17.41,17.41,0,0,1-1.54,7.21,15.91,15.91,0,0,1-7.15,7.16ZM.22.22v5.9a17.13,17.13,0,0,0,1.52,7.12,15.68,15.68,0,0,0,7,7,15.63,15.63,0,0,0,7-7,17.25,17.25,0,0,0,1.53-7.11V.22Z" transform="translate(0 0)"></path><path class="cls-3" d="M16.77,5.5V.75H.78l0,4c5.11-2.38,7.8.71,7.8.71l-1,1C4.81,3.67.77,5.38.77,5.38l0,1.88C6.06,5,8.57,8,8.57,8l-1,1.05C4.86,6.14.83,7.9.83,7.9a14.28,14.28,0,0,0,8,11.78A14.63,14.63,0,0,0,16.61,8.77c-5.35,2.2-7.7-.87-7.7-.87l1-1c2.77,2.9,6.73,1.22,6.73,1.22a9.64,9.64,0,0,0,.09-2c-5.43,2.38-7.83-.77-7.83-.77l1-1c2.83,2.88,6.85,1.19,6.85,1.19M6.33,11.85l0,0c-.19,0-.21.06-.22.17s0,.66,0,1.06c0,.25,0,.7,0,1l0,0a1.9,1.9,0,0,0-.4-.05s-.42-.52-.61-.77l-.62-.83c0,.12,0,.29,0,.53s0,.7,0,.73,0,.12.23.14V14l-.37,0-.37,0,0,0v-.16l0,0,.14,0c.09,0,.1,0,.1-.53v-.84c0-.51,0-.52-.1-.53l-.14,0,0,0v-.17h.77c.29.43.75,1.06,1.13,1.53v-.37a6.33,6.33,0,0,0,0-.85c0-.08,0-.09-.21-.11l0,0v-.17h.76Zm4.59,2h0l.13,0c.08,0,.1,0,.1-.53v-.83c0-.51,0-.52-.1-.54l-.13,0h0V11.7l0,0,.5,0,.49,0,0,0v.17h0l-.13,0c-.08,0-.09,0-.09.54v.25h1v-.25c0-.51,0-.52-.09-.54l-.13,0h0V11.7l0,0,.5,0,.49,0,0,0v.17h0l-.13,0c-.08,0-.09,0-.09.54v.83c0,.51,0,.52.09.53l.13,0h0V14h-1v-.17h0l.13,0c.08,0,.09,0,.09-.53V13h-1v.33c0,.51,0,.52.09.53l.13,0h0V14h-1Zm-.65-2.19h0v.19c-.16,0-.17,0-.26.35l-.46,1.83H9.28l-.61-1.59L8,14.05H7.74L7.35,12.2c-.06-.32-.09-.32-.22-.33l0,0v-.17H8.18v.17l0,0c-.16,0-.22,0-.22.12a2,2,0,0,0,0,.29l.17.86h0l.61-1.47H9l.56,1.47h0l.23-1a.89.89,0,0,0,0-.15c0-.05,0-.07-.2-.09v-.19h.69M9.75,9.26l-1,1-1-1,1-1Zm0-2.57-1,1-1-1,1-1.05Zm-1-1.49-1-1,1-1,1,1Z" transform="translate(0 0)"></path></g></g></g></svg> 