<?xml version="1.0" encoding="UTF-8"?> <svg xmlns="http://www.w3.org/2000/svg" xmlns:xlink="http://www.w3.org/1999/xlink" viewBox="0 0 96.46 20.59"><defs><style>.cls-1,.cls-3{fill:none;}.cls-2{clip-path:url(#clip-path);}.cls-3{stroke:#fff;stroke-width:0.32px;}.cls-4{fill:#fff;}</style><clipPath id="clip-path" transform="translate(0 0)"><rect class="cls-1" width="96.46" height="20.59"></rect></clipPath></defs><title>Footer Logo 6HQ Vector</title><g id="Layer_2" data-name="Layer 2"><g id="Layer_1-2" data-name="Layer 1"><g class="cls-2"><path class="cls-3" d="M1.09,11.1C.75,8.78.88,1.1.88,1.1h13.6s.14,8-.24,10.24c-.85,5.1-6.56,8.13-6.56,8.13A11.17,11.17,0,0,1,1.09,11.1Zm-.67.08C0,8.62.19.16.19.16h15s.16,8.83-.25,11.29c-.94,5.62-7.24,9-7.24,9S1.41,18,.42,11.18Z" transform="translate(0 0)"></path></g><rect class="cls-4" x="6.33" y="11.15" width="2.91" height="1.24"></rect><g class="cls-2"><path class="cls-4" d="M14.37,3.72a3.93,3.93,0,0,0-.92-.15,2.74,2.74,0,0,0-2.13,1l-.5-1.81H8.51L7.73,6.2,7,2.81H4.68L1.94,12.39H5.35V11.14H3.73L5.85,3.86l1.89,6.67,2-6.73,2.09,7.34h-1.6v1.25h3.27l-1-3.49a2.9,2.9,0,0,0,.94.17A3.71,3.71,0,0,0,14.28,9l.05-1.45a1.29,1.29,0,0,1-.88.27,1.49,1.49,0,1,1,0-3,1.31,1.31,0,0,1,.89.29Z" transform="translate(0 0)"></path><path class="cls-4" d="M4.53,16c.3,0,.4,0,.4-.13V14.37c0-.16-.07-.24-.41-.23V14L5.39,14v1.91c0,.09.1.12.4.13v.13H4.53Z" transform="translate(0 0)"></path><path class="cls-4" d="M6.48,15.09a.61.61,0,0,1-.38-.54c0-.36.29-.64.78-.64s.75.24.75.52-.16.38-.44.5c.32.13.51.31.51.6a.73.73,0,0,1-.81.65c-.57,0-.85-.24-.85-.56a.6.6,0,0,1,.44-.53m.16.07a.51.51,0,0,0-.23.43.44.44,0,0,0,.46.44.36.36,0,0,0,.41-.37c0-.21-.14-.33-.56-.47l-.08,0m.41-.28a.52.52,0,0,0,.21-.44.37.37,0,0,0-.41-.38.32.32,0,0,0-.34.34c0,.22.21.36.54.48" transform="translate(0 0)"></path><path class="cls-4" d="M8,16c.3,0,.4,0,.4-.13V14.37c0-.16-.08-.24-.42-.23V14L8.87,14v1.91c0,.09.09.12.4.13v.13H8Z" transform="translate(0 0)"></path><path class="cls-4" d="M9.52,16c.3,0,.4,0,.4-.13V14.37c0-.16-.07-.24-.42-.23V14l.88-.06v1.91c0,.09.09.12.4.13v.13H9.52Z" transform="translate(0 0)"></path><path class="cls-4" d="M28.71,8.88a8.6,8.6,0,0,0-1.23-.06h-.15a8.51,8.51,0,0,0-1.22.06.18.18,0,0,1-.18-.2.2.2,0,0,1,.18-.22c.12,0,.24,0,.82,0V2.75L24.58,8.94c0,.09-.08.12-.21.12s-.17,0-.2-.12L21.89,2.71V8.48c.57,0,.69,0,.81,0a.2.2,0,0,1,.18.22.18.18,0,0,1-.18.2c-.1,0-.21,0-1-.06s-.93.06-1,.06a.18.18,0,0,1-.18-.2.2.2,0,0,1,.18-.22c.12,0,.24,0,.81,0v-7c-.57,0-.69,0-.81,0a.2.2,0,0,1-.18-.22.19.19,0,0,1,.18-.2c.11,0,.21,0,1,.06h.52c.26,0,.21.16.27.34l2.18,6,2.29-6c.06-.15.05-.33.25-.34h.3a8.6,8.6,0,0,0,1.23-.06.2.2,0,0,1,.18.2.21.21,0,0,1-.18.22c-.12,0-.24,0-.83,0v7c.59,0,.71,0,.83,0a.21.21,0,0,1,.18.22.19.19,0,0,1-.18.2" transform="translate(0 0)"></path><path class="cls-4" d="M31.77,4.33c-.89,0-1.36.58-1.36,2.17S31,8.63,31.78,8.63a1.27,1.27,0,0,0,1.26-1c0-.09.07-.2.19-.2a.18.18,0,0,1,.18.18.64.64,0,0,1,0,.23,1.74,1.74,0,0,1-1.74,1.2A2.26,2.26,0,0,1,29.45,6.5,2.26,2.26,0,0,1,31.62,4a1.58,1.58,0,0,1,1.73,1.33.57.57,0,0,1-.55.63.54.54,0,0,1-.1-1.06,1,1,0,0,0-.93-.52" transform="translate(0 0)"></path><path class="cls-4" d="M38.07,8.4c.69,0,1-.57,1-1.53a.18.18,0,0,1,.2-.18.17.17,0,0,1,.19.18c0,.12-.06,1-.06,1.45v.37a.2.2,0,0,1-.18.21c-.12,0-.42-.05-.67-.05l-3.18,0a8.6,8.6,0,0,0-1.23.06.19.19,0,0,1-.18-.2.21.21,0,0,1,.18-.22c.12,0,.24,0,.82,0v-7c-.58,0-.7,0-.82,0A.21.21,0,0,1,34,1.31a.2.2,0,0,1,.18-.2,8.6,8.6,0,0,0,1.23.06h.14a8.6,8.6,0,0,0,1.23-.06.2.2,0,0,1,.18.2.21.21,0,0,1-.18.22c-.12,0-.24,0-.82,0V8.4Z" transform="translate(0 0)"></path><path class="cls-4" d="M44,7.44c-.11,0-.16.11-.19.2a1.42,1.42,0,0,1-1.44,1c-.87,0-1.39-.7-1.39-2.14a3.17,3.17,0,0,1,0-.45h3.14A1.82,1.82,0,0,0,42.27,4,2.37,2.37,0,0,0,40.06,6.5a2.39,2.39,0,0,0,2.2,2.55,2,2,0,0,0,1.92-1.2.64.64,0,0,0,0-.23A.18.18,0,0,0,44,7.44M42.38,4.33a.83.83,0,0,1,.91.89,1.35,1.35,0,0,1-.07.41H41.1c.18-1,.71-1.3,1.28-1.3" transform="translate(0 0)"></path><path class="cls-4" d="M49.56,8.4a.2.2,0,0,0-.28,0c-.13.11-.14.25-.3.25s-.22-.09-.22-.43V5.57A1.45,1.45,0,0,0,47.12,4c-.72,0-1.53.48-1.53,1.06a.49.49,0,0,0,.49.5.49.49,0,0,0,.49-.5.47.47,0,0,0-.21-.41.9.9,0,0,1,.76-.29c.5,0,.78.23.78.81V6.29c-1.38,0-2.71.47-2.71,1.61A1.08,1.08,0,0,0,46.36,9a2.36,2.36,0,0,0,1.57-.73.77.77,0,0,0,.75.7,1.13,1.13,0,0,0,.82-.28.24.24,0,0,0,.06-.3M47.9,7.9a1.76,1.76,0,0,1-1.16.58.68.68,0,0,1-.65-.74c0-.7.5-1.1,1.81-1.1Z" transform="translate(0 0)"></path><path class="cls-4" d="M53.73,4c1.06,0,1.48.76,1.48,1.78V8.48c.58,0,.65,0,.77,0a.2.2,0,0,1,.18.22.18.18,0,0,1-.18.2,7.26,7.26,0,0,0-1.17-.06h-.05a7.42,7.42,0,0,0-1.17.06.18.18,0,0,1-.18-.2.2.2,0,0,1,.18-.22c.12,0,.2,0,.77,0V5.32c0-.65-.19-.91-.72-.91-.81,0-1.66,1-1.66,2.27v1.8c.58,0,.65,0,.77,0a.2.2,0,0,1,.18.22.18.18,0,0,1-.18.2,7.26,7.26,0,0,0-1.17-.06h0a7.11,7.11,0,0,0-1.17.06.18.18,0,0,1-.18-.2.2.2,0,0,1,.18-.22c.12,0,.18,0,.77,0v-4a6.44,6.44,0,0,0-.77,0,.2.2,0,0,1-.18-.22.18.18,0,0,1,.18-.2h.77c.19,0,.55,0,.67,0a.2.2,0,0,1,.18.22v1A2.09,2.09,0,0,1,53.73,4" transform="translate(0 0)"></path><path class="cls-4" d="M60,6.5v2c.38,0,.45,0,.57,0a.2.2,0,0,1,.18.22.18.18,0,0,1-.18.2,6.87,6.87,0,0,0-1-.06h0a7.26,7.26,0,0,0-1.17.06.18.18,0,0,1-.18-.2.2.2,0,0,1,.18-.22c.12,0,.19,0,.77,0V4.31h-.77a.18.18,0,0,1-.18-.2.2.2,0,0,1,.18-.22A7.26,7.26,0,0,0,59.59,4h0a5.74,5.74,0,0,0,1-.06.2.2,0,0,1,.18.22.18.18,0,0,1-.18.2H60V6.08h2.13V4.31H61.6a.18.18,0,0,1-.18-.2.2.2,0,0,1,.18-.22,5.6,5.6,0,0,0,1,.06h0a7.11,7.11,0,0,0,1.17-.06.2.2,0,0,1,.18.22.18.18,0,0,1-.18.2H63V8.48c.59,0,.65,0,.77,0a.2.2,0,0,1,.18.22.18.18,0,0,1-.18.2,7.11,7.11,0,0,0-1.17-.06h0a5.74,5.74,0,0,0-1,.06.18.18,0,0,1-.18-.2.2.2,0,0,1,.18-.22c.12,0,.21,0,.57,0v-2Z" transform="translate(0 0)"></path><path class="cls-4" d="M66.64,3.84a2.39,2.39,0,0,0-2.3,2.56A2.32,2.32,0,1,0,69,6.4a2.39,2.39,0,0,0-2.31-2.56m0,4.72c-.87,0-1.34-.53-1.34-2.16s.47-2.16,1.34-2.16S68,4.77,68,6.4s-.47,2.16-1.35,2.16" transform="translate(0 0)"></path><path class="cls-4" d="M71.55,8.94a2.24,2.24,0,0,1-1.24-.42.32.32,0,0,0-.09.21c0,.15,0,.21-.18.21s-.2-.08-.2-.2V7.37c0-.12,0-.21.19-.21a.19.19,0,0,1,.19.21,1.3,1.3,0,0,0,1.27,1.2c.57,0,1.1-.19,1.1-.85,0-.42-.32-.66-1-.85l-.48-.15c-.63-.19-1.37-.58-1.37-1.45a1.48,1.48,0,0,1,1.64-1.43,1.69,1.69,0,0,1,1,.33s.07,0,.07-.11,0-.22.18-.22.2.1.2.21V5.24a.18.18,0,0,1-.18.2.18.18,0,0,1-.2-.2,1,1,0,0,0-1.09-1c-.51,0-1,.24-1,.81,0,.39.34.66.75.77l.56.14c.94.25,1.52.73,1.52,1.56a1.49,1.49,0,0,1-1.68,1.45" transform="translate(0 0)"></path><path class="cls-4" d="M76.14,6.89c1.32,0,2-.62,2-1.48S77.46,4,76.14,4h-1a6.25,6.25,0,0,1-1-.06.2.2,0,0,0-.18.22.18.18,0,0,0,.18.2h.76V8.48c-.57,0-.64,0-.76,0a.2.2,0,0,0-.18.22.18.18,0,0,0,.18.2,7.18,7.18,0,0,1,1.16-.06h.06a7.18,7.18,0,0,1,1.16.06.18.18,0,0,0,.18-.2.2.2,0,0,0-.18-.22c-.12,0-.19,0-.76,0V6.89ZM75.69,4.3h.45c.87,0,1.18.31,1.18,1.11S77,6.56,76.14,6.56h-.45Z" transform="translate(0 0)"></path><path class="cls-4" d="M81.33,8.46a.2.2,0,0,1,.18.22.18.18,0,0,1-.18.2,7.18,7.18,0,0,0-1.16-.06h-.06a7.26,7.26,0,0,0-1.17.06.18.18,0,0,1-.18-.2.2.2,0,0,1,.18-.22c.12,0,.19,0,.77,0V4.31h-.77a.18.18,0,0,1-.18-.2.2.2,0,0,1,.18-.22A7.26,7.26,0,0,0,80.11,4h.06a7.18,7.18,0,0,0,1.16-.06.2.2,0,0,1,.18.22.18.18,0,0,1-.18.2h-.77V8.48c.58,0,.65,0,.77,0" transform="translate(0 0)"></path><path class="cls-4" d="M86.41,5.56a.2.2,0,0,1-.21-.18c0-.87-.19-1.08-.87-1.08h-.51V8.48c.58,0,.65,0,.77,0a.2.2,0,0,1,.18.22.18.18,0,0,1-.18.2,7.18,7.18,0,0,0-1.16-.06h-.05a7.5,7.5,0,0,0-1.18.06.19.19,0,0,1-.18-.2.21.21,0,0,1,.18-.22c.12,0,.2,0,.77,0V4.3h-.49c-.7,0-.89.21-.89,1.08a.19.19,0,0,1-.19.18.18.18,0,0,1-.19-.18c0-.12.05-.46.05-1V4.11c0-.14.08-.22.18-.22s.48.06.67.06H85.7c.18,0,.55-.06.66-.06s.18.08.18.22v.32c0,.49.06.83.06,1a.18.18,0,0,1-.19.18" transform="translate(0 0)"></path><path class="cls-4" d="M91.7,8.46c-.12,0-.15,0-.54,0L89.28,4c0-.12-.08-.17-.2-.17s-.15.06-.19.17L87,8.48c-.33,0-.42,0-.54,0a.2.2,0,0,0-.18.22.19.19,0,0,0,.18.21,4.08,4.08,0,0,1,.75-.06,4.39,4.39,0,0,1,.78.06.19.19,0,0,0,.18-.21.2.2,0,0,0-.18-.22c-.12,0-.26,0-.56,0l.44-1h2l.43,1c-.35,0-.38,0-.5,0a.2.2,0,0,0-.18.22.19.19,0,0,0,.18.21,5.67,5.67,0,0,1,1-.06h0a5.18,5.18,0,0,1,1,.06.19.19,0,0,0,.18-.21.2.2,0,0,0-.18-.22M88,7l.84-1.93L89.65,7Z" transform="translate(0 0)"></path><path class="cls-4" d="M95.2,8.5c.68,0,.87-.23.87-1.08,0-.1.07-.18.21-.18a.17.17,0,0,1,.18.18c0,.12,0,.44,0,.94v.33a.2.2,0,0,1-.18.21c-.11,0-.48-.05-.67-.05l-2,0a7.26,7.26,0,0,0-1.17.06.18.18,0,0,1-.18-.2.2.2,0,0,1,.18-.22c.12,0,.19,0,.77,0V4.31h-.77a.18.18,0,0,1-.18-.2.2.2,0,0,1,.18-.22A7.26,7.26,0,0,0,93.52,4h.06a7.18,7.18,0,0,0,1.16-.06.2.2,0,0,1,.18.22.18.18,0,0,1-.18.2H94V8.5Z" transform="translate(0 0)"></path><path class="cls-4" d="M66.73,11.72h-.35l-.75,2.13H66l.18-.5h.8l.18.5h.36ZM66.25,13l.29-.86h0l.29.86Z" transform="translate(0 0)"></path><polygon class="cls-4" points="67.97 13.85 68.33 13.85 68.33 12.95 69.03 12.95 69.03 12.63 68.33 12.63 68.33 12.06 69.31 12.06 69.31 11.73 67.97 11.73 67.97 13.85"></polygon><polygon class="cls-4" points="69.8 13.85 70.16 13.85 70.16 12.95 70.87 12.95 70.87 12.63 70.16 12.63 70.16 12.06 71.14 12.06 71.14 11.73 69.8 11.73 69.8 13.85"></polygon><rect class="cls-4" x="71.65" y="11.73" width="0.36" height="2.12"></rect><polygon class="cls-4" points="72.69 13.85 74.03 13.85 74.03 13.53 73.05 13.53 73.05 11.73 72.69 11.73 72.69 13.85"></polygon><rect class="cls-4" x="74.54" y="11.73" width="0.36" height="2.12"></rect><path class="cls-4" d="M76.52,11.72h-.36l-.75,2.13h.34l.17-.5h.81l.17.5h.37ZM76,13l.3-.86h0l.29.86Z" transform="translate(0 0)"></path><polygon class="cls-4" points="77.98 13.85 78.34 13.85 78.34 12.06 79 12.06 79 11.73 77.33 11.73 77.33 12.06 77.98 12.06 77.98 13.85"></polygon><polygon class="cls-4" points="79.49 13.85 80.92 13.85 80.92 13.53 79.85 13.53 79.85 12.91 80.59 12.91 80.59 12.59 79.85 12.59 79.85 12.06 80.86 12.06 80.86 11.73 79.49 11.73 79.49 13.85"></polygon><polygon class="cls-4" points="20.74 13.85 21.1 13.85 21.1 12.91 22.07 12.91 22.07 13.85 22.42 13.85 22.42 11.73 22.07 11.73 22.07 12.57 21.1 12.57 21.1 11.73 20.74 11.73 20.74 13.85"></polygon><path class="cls-4" d="M24,11.72h-.35l-.75,2.13h.33l.18-.51h.8l.18.51h.36ZM23.53,13l.29-.86h0l.29.86Z" transform="translate(0 0)"></path><path class="cls-4" d="M26.34,13a.56.56,0,0,0,.47-.6c0-.43-.3-.63-.8-.63h-.76v2.12h.35V13H26l.48.84h.38Zm-.74-.26v-.65H26c.31,0,.46.08.46.32s-.16.33-.46.33Z" transform="translate(0 0)"></path><polygon class="cls-4" points="27.9 13.86 28.24 13.86 28.98 11.73 28.64 11.73 28.08 13.38 28.07 13.38 27.53 11.73 27.16 11.73 27.9 13.86"></polygon><path class="cls-4" d="M30.22,11.72h-.35l-.75,2.13h.33l.18-.51h.8l.18.51H31ZM29.74,13l.29-.86h0l.29.86Z" transform="translate(0 0)"></path><path class="cls-4" d="M32.55,13a.56.56,0,0,0,.47-.6c0-.43-.3-.63-.8-.63h-.76v2.12h.35V13h.37l.48.84H33Zm-.74-.26v-.65h.39c.31,0,.46.08.46.32s-.16.33-.46.33Z" transform="translate(0 0)"></path><path class="cls-4" d="M34.22,11.73h-.61v2.12h.61a1,1,0,0,0,1.1-1.07,1,1,0,0,0-1.1-1m0,1.8H34V12.06h.27c.49,0,.72.21.72.72s-.23.75-.71.75" transform="translate(0 0)"></path><path class="cls-4" d="M36.76,13.85h.33v-1.6h0c0,.2.08.3.13.45l.41,1.15H38l.42-1.15c0-.15.09-.29.12-.44h0v1.59h.34V11.73h-.48l-.55,1.68h0l-.57-1.68h-.48Z" transform="translate(0 0)"></path><polygon class="cls-4" points="39.5 13.85 40.93 13.85 40.93 13.52 39.86 13.52 39.86 12.91 40.6 12.91 40.6 12.59 39.86 12.59 39.86 12.06 40.87 12.06 40.87 11.73 39.5 11.73 39.5 13.85"></polygon><path class="cls-4" d="M42.06,11.73h-.61v2.12h.61a1,1,0,0,0,1.1-1.07,1,1,0,0,0-1.1-1m0,1.8h-.28V12.06h.27c.49,0,.72.21.72.72s-.23.75-.71.75" transform="translate(0 0)"></path><rect class="cls-4" x="43.73" y="11.73" width="0.36" height="2.12"></rect><path class="cls-4" d="M45.6,13.89a.84.84,0,0,0,.86-.71l-.34-.07c-.08.31-.24.45-.52.45s-.57-.28-.57-.78.21-.76.57-.76.4.14.48.42l.34-.1a.76.76,0,0,0-.82-.65c-.53,0-.93.38-.93,1.09s.39,1.11.93,1.11" transform="translate(0 0)"></path><path class="cls-4" d="M47.85,11.72H47.5l-.75,2.13h.33l.18-.51h.8l.17.51h.37ZM47.36,13l.3-.86h0L48,13Z" transform="translate(0 0)"></path><polygon class="cls-4" points="49.09 13.85 50.42 13.85 50.42 13.52 49.45 13.52 49.45 11.73 49.09 11.73 49.09 13.85"></polygon><path class="cls-4" d="M52.44,13.89c.5,0,.8-.27.8-.62s-.32-.53-.73-.65-.5-.17-.5-.37.14-.24.38-.24a.6.6,0,0,1,.53.31l.26-.18a.82.82,0,0,0-.79-.45c-.43,0-.73.23-.73.59s.33.52.74.64.48.19.48.38-.17.27-.43.27a.61.61,0,0,1-.58-.37l-.29.15a.89.89,0,0,0,.86.54" transform="translate(0 0)"></path><path class="cls-4" d="M54.6,13.89a.82.82,0,0,0,.85-.71l-.34-.07c-.08.31-.23.45-.51.45s-.57-.28-.57-.78.21-.76.57-.76.4.14.48.42l.34-.1a.77.77,0,0,0-.82-.65c-.53,0-.93.38-.93,1.09s.38,1.11.93,1.11" transform="translate(0 0)"></path><polygon class="cls-4" points="56 13.85 56.36 13.85 56.36 12.91 57.32 12.91 57.32 13.85 57.68 13.85 57.68 11.73 57.32 11.73 57.32 12.57 56.36 12.57 56.36 11.73 56 11.73 56 13.85"></polygon><path class="cls-4" d="M59.19,11.69a1,1,0,0,0-1,1.1,1,1,0,1,0,1.92,0,1,1,0,0,0-1-1.1m0,1.87c-.36,0-.6-.27-.6-.77s.24-.77.6-.77.59.27.59.77-.23.77-.59.77" transform="translate(0 0)"></path><path class="cls-4" d="M61.55,11.69a1,1,0,0,0-1,1.1,1,1,0,1,0,1.92,0,1,1,0,0,0-1-1.1m0,1.87c-.36,0-.6-.27-.6-.77s.24-.77.6-.77.6.27.6.77-.24.77-.6.77" transform="translate(0 0)"></path><polygon class="cls-4" points="63.06 13.85 64.4 13.85 64.4 13.52 63.42 13.52 63.42 11.73 63.06 11.73 63.06 13.85"></polygon></g></g></g></svg> 