<?xml version="1.0" encoding="UTF-8"?> <svg xmlns="http://www.w3.org/2000/svg" xmlns:xlink="http://www.w3.org/1999/xlink" viewBox="0 0 100.76 20.42"><defs><style>.cls-1,.cls-10,.cls-11,.cls-3,.cls-5,.cls-7,.cls-8,.cls-9{fill:none;}.cls-2{clip-path:url(#clip-path);}.cls-10,.cls-11,.cls-3,.cls-5,.cls-8,.cls-9{stroke:#fff;}.cls-10,.cls-11,.cls-3,.cls-5,.cls-7,.cls-8,.cls-9{stroke-miterlimit:3.86;}.cls-3{stroke-width:0.14px;}.cls-4{fill:#fff;}.cls-5{stroke-width:0.1px;}.cls-6{fill:#323e48;}.cls-7{stroke:#323e48;stroke-width:0.09px;}.cls-8{stroke-width:0.15px;}.cls-9{stroke-width:0.15px;}.cls-10{stroke-width:0.34px;}.cls-11{stroke-width:0.14px;}</style><clipPath id="clip-path" transform="translate(0 0)"><rect class="cls-1" width="100.76" height="20.42"></rect></clipPath></defs><title>Footer Logo 4HQ Vector</title><g id="Layer_2" data-name="Layer 2"><g id="Layer_1-2" data-name="Layer 1"><g class="cls-2"><path class="cls-3" d="M8.75,20.34C.14,15.81.07,9.66.07.07H17.44C17.44,9.66,17.41,15.81,8.75,20.34Z" transform="translate(0 0)"></path><path class="cls-4" d="M8.76,19.57C.37,15.26.69,8.06.69.76H16.8c0,7.38.27,14.5-8,18.81" transform="translate(0 0)"></path><path class="cls-5" d="M8.76,19.57C.37,15.26.69,8.06.69.76H16.8C16.8,8.14,17.07,15.26,8.76,19.57Z" transform="translate(0 0)"></path><path class="cls-6" d="M5.89,12.34c.05,0,.05.05.05.12v1.43c0,.11-.08.14-.19.15H5.52v.12H6.74v-.12h-.2c-.1,0-.18,0-.18-.15v-1c0-.39,0-.66,0-.82l0,0a9.15,9.15,0,0,1-1,.33.52.52,0,0,0,.05.22Z" transform="translate(0 0)"></path><path class="cls-6" d="M7.91,13.27c.19.08.34.18.34.41A.35.35,0,0,1,7.9,14a.41.41,0,0,1-.41-.42.53.53,0,0,1,.23-.44Zm0-.44c-.15-.06-.31-.15-.31-.34a.28.28,0,0,1,.31-.29.32.32,0,0,1,.33.35.42.42,0,0,1-.19.34Zm0-.8a.6.6,0,0,0-.68.6.55.55,0,0,0,.32.5.59.59,0,0,0-.37.52.56.56,0,0,0,.64.56.71.71,0,0,0,.75-.71A.56.56,0,0,0,8.2,13a.56.56,0,0,0,.31-.45c0-.32-.27-.47-.57-.47" transform="translate(0 0)"></path><path class="cls-6" d="M9.52,12.34c.06,0,.05.05.05.12v1.43c0,.11-.08.14-.18.15H9.16v.12h1.22v-.12h-.2c-.1,0-.18,0-.18-.15v-1c0-.39,0-.66,0-.82l0,0c-.28.11-.73.27-1,.33a.69.69,0,0,0,0,.22Z" transform="translate(0 0)"></path><path class="cls-6" d="M11.22,12.34s0,.05,0,.12v1.43c0,.11-.08.14-.18.15h-.23v.12h1.22v-.12h-.2c-.1,0-.18,0-.18-.15v-1c0-.39,0-.66,0-.82l0,0c-.28.11-.73.27-1,.33a.49.49,0,0,0,0,.22Z" transform="translate(0 0)"></path><path class="cls-6" d="M10.69,9.19c0-.13.09-.15.26-.18V8.84l-.78,0-.72,0V9h.26c.16,0,.28,0,.28.19v.65a1.67,1.67,0,0,1-.62.12C8.48,10,8,9.27,8,8.41A1.22,1.22,0,0,1,9.29,7.05a1.48,1.48,0,0,1,1,.34l0,.43h.19a7.59,7.59,0,0,1,.12-.76l0,0a3.48,3.48,0,0,0-1.36-.23,1.77,1.77,0,1,0,0,3.51,3.86,3.86,0,0,0,1.44-.3Z" transform="translate(0 0)"></path><path class="cls-7" d="M10.69,9.19c0-.13.09-.15.26-.18V8.84l-.78,0-.72,0V9h.26c.16,0,.28,0,.28.19v.65a1.67,1.67,0,0,1-.62.12C8.48,10,8,9.27,8,8.41A1.22,1.22,0,0,1,9.29,7.05a1.48,1.48,0,0,1,1,.34l0,.43h.19a7.59,7.59,0,0,1,.12-.76l0,0a3.48,3.48,0,0,0-1.36-.23,1.77,1.77,0,1,0,0,3.51,3.86,3.86,0,0,0,1.44-.3Z" transform="translate(0 0)"></path><path class="cls-6" d="M6.79,4.12c0-.85.92-1.54,2.06-1.54s2.06.69,2.06,1.54S10,5.65,8.85,5.65,6.79,5,6.79,4.12" transform="translate(0 0)"></path><path class="cls-8" d="M6.79,4.12c0-.85.92-1.54,2.06-1.54s2.06.69,2.06,1.54S10,5.65,8.85,5.65,6.79,5,6.79,4.12Z" transform="translate(0 0)"></path><rect class="cls-6" x="6.41" y="3.6" width="4.89" height="1.34"></rect><rect class="cls-9" x="6.41" y="3.6" width="4.89" height="1.34"></rect><polygon class="cls-6" points="4.03 5.67 8.83 4.17 13.66 5.67 4.03 5.67"></polygon><polygon class="cls-10" points="4.03 5.67 8.83 4.17 13.66 5.67 4.03 5.67"></polygon><path class="cls-6" d="M8.23,2.65H9.45a1.42,1.42,0,0,0-.62-1,1.45,1.45,0,0,0-.6,1" transform="translate(0 0)"></path><path class="cls-11" d="M8.23,2.65H9.45a1.42,1.42,0,0,0-.62-1A1.45,1.45,0,0,0,8.23,2.65Z" transform="translate(0 0)"></path><path class="cls-6" d="M6.63,7.53a1.12,1.12,0,0,1,0-.4s.07-.08.2-.09h.18V6.85H5.91c-.07.17-.15.37-.24.55l-.9,1.87L4,7.64c-.11-.22-.28-.59-.37-.79H2.44V7h.18c.13,0,.18,0,.2.09a1.21,1.21,0,0,1,0,.4v2a1.25,1.25,0,0,1,0,.4c0,.05-.07.07-.2.08H2.44v.19l.56,0,.56,0V10H3.38c-.13,0-.18,0-.2-.08a1.25,1.25,0,0,1,0-.4v-2h0L4.28,9.84c.06.14.13.27.18.41h.16c.08-.2.2-.44.3-.65l1-2.09h0v2a1.16,1.16,0,0,1,0,.4s-.07.06-.2.07H5.52v.2l.77,0,.76,0V10H6.87c-.13,0-.19,0-.2-.07a1.16,1.16,0,0,1,0-.4Z" transform="translate(0 0)"></path><path class="cls-7" d="M6.63,7.53a1.12,1.12,0,0,1,0-.4s.07-.08.2-.09h.18V6.85H5.91c-.07.17-.15.37-.24.55l-.9,1.87L4,7.64c-.11-.22-.28-.59-.37-.79H2.44V7h.18c.13,0,.18,0,.2.09a1.21,1.21,0,0,1,0,.4v2a1.25,1.25,0,0,1,0,.4c0,.05-.07.07-.2.08H2.44v.19l.56,0,.56,0V10H3.38c-.13,0-.18,0-.2-.08a1.25,1.25,0,0,1,0-.4v-2h0L4.28,9.84c.06.14.13.27.18.41h.16c.08-.2.2-.44.3-.65l1-2.09h0v2a1.16,1.16,0,0,1,0,.4s-.07.06-.2.07H5.52v.2l.77,0,.76,0V10H6.87c-.13,0-.19,0-.2-.07a1.16,1.16,0,0,1,0-.4Z" transform="translate(0 0)"></path><path class="cls-6" d="M12.4,7.53a1.12,1.12,0,0,1,0-.4s.07-.06.2-.07l.19,0v-.2l-.78,0-.77,0V7l.18,0c.13,0,.19,0,.21.07a1.21,1.21,0,0,1,0,.4v2a1.21,1.21,0,0,1,0,.4s-.08.06-.21.07h-.18v.2l.77,0,.78,0V10h-.19c-.13,0-.18,0-.2-.07a1.12,1.12,0,0,1,0-.4V8.6h1.54v.94a1.12,1.12,0,0,1,0,.4s-.07.06-.2.07h-.19v.2l.78,0,.77,0V10h-.18c-.13,0-.19,0-.21-.07a1.21,1.21,0,0,1,0-.4v-2a1.21,1.21,0,0,1,0-.4s.08-.06.21-.07l.18,0v-.2l-.77,0-.78,0V7l.19,0c.13,0,.18,0,.2.07a1.12,1.12,0,0,1,0,.4V8.3H12.4Z" transform="translate(0 0)"></path><path class="cls-7" d="M12.4,7.53a1.12,1.12,0,0,1,0-.4s.07-.06.2-.07l.19,0v-.2l-.78,0-.77,0V7l.18,0c.13,0,.19,0,.21.07a1.21,1.21,0,0,1,0,.4v2a1.21,1.21,0,0,1,0,.4s-.08.06-.21.07h-.18v.2l.77,0,.78,0V10h-.19c-.13,0-.18,0-.2-.07a1.12,1.12,0,0,1,0-.4V8.6h1.54v.94a1.12,1.12,0,0,1,0,.4s-.07.06-.2.07h-.19v.2l.78,0,.77,0V10h-.18c-.13,0-.19,0-.21-.07a1.21,1.21,0,0,1,0-.4v-2a1.21,1.21,0,0,1,0-.4s.08-.06.21-.07l.18,0v-.2l-.77,0-.78,0V7l.19,0c.13,0,.18,0,.2.07a1.12,1.12,0,0,1,0,.4V8.3H12.4Z" transform="translate(0 0)"></path><path class="cls-4" d="M25.93,13.42a.79.79,0,0,1,0,.32c-.05.14-.48.27-1.08.27a2.39,2.39,0,0,1-2.48-2.63A2.11,2.11,0,0,1,24.56,9a3.47,3.47,0,0,1,1.08.14c.36.13.63.26.63.62v.41h.24A4.47,4.47,0,0,1,26.67,9a6.11,6.11,0,0,0-1.91-.32c-1.86,0-3.25,1.09-3.25,2.79,0,1.93,1.39,2.82,3.1,2.82a8.89,8.89,0,0,0,2-.39V12.65c0-.23,0-.26.08-.29l.22-.08,0-.19-.94,0-.94,0v.23l.64.06c.2,0,.26.09.26.27Z" transform="translate(0 0)"></path><path class="cls-4" d="M28.27,13.25a1.4,1.4,0,0,1-.07.58c-.05.08-.14.1-.33.12l-.27,0v.23l.82,0,1.68,0c.57,0,1.17,0,1.51,0a6.43,6.43,0,0,1,.13-1.27h-.27a1.55,1.55,0,0,1-.27.87,7.63,7.63,0,0,1-1.56.1,2.33,2.33,0,0,1-.64-.07V11.66c.24,0,.52,0,.89,0a1.92,1.92,0,0,1,.81.09s.06.09.07.19l0,.46H31c0-.28,0-.57,0-.86s0-.58,0-.89H30.8l0,.4a.29.29,0,0,1-.07.2,2.22,2.22,0,0,1-.81.08c-.37,0-.65,0-.89,0v-2a2.33,2.33,0,0,1,.64-.07,4.58,4.58,0,0,1,1.51.17c.06,0,.07.1.07.2V10h.27a5.46,5.46,0,0,1,.12-1.17l-1,0-1.82,0-1.3,0v.23l.37,0c.19,0,.28,0,.33.12a1.47,1.47,0,0,1,.07.58Z" transform="translate(0 0)"></path><path class="cls-4" d="M33.16,13.25a1.25,1.25,0,0,1-.07.58c0,.08-.14.1-.32.12l-.34,0v.23l.89,0,.93,0V14l-.34,0c-.19,0-.28,0-.33-.12a1.46,1.46,0,0,1-.06-.58V9.71h0l3.63,4.5.69.12a2.66,2.66,0,0,1,0-.28V9.8a1.47,1.47,0,0,1,.07-.58c0-.08.14-.1.33-.12l.34,0V8.85l-.93,0-.89,0v.23l.34,0c.18,0,.28,0,.32.12a1.3,1.3,0,0,1,.07.58v3.59h0L33.77,8.85l-.42,0-.92,0v.23l.34,0c.18,0,.28,0,.32.12a1.3,1.3,0,0,1,.07.58Z" transform="translate(0 0)"></path><path class="cls-4" d="M39.91,13.25a1.4,1.4,0,0,1-.07.58c-.05.08-.14.1-.33.12l-.27,0v.23l.82,0,1.68,0c.57,0,1.17,0,1.51,0a6.43,6.43,0,0,1,.13-1.27h-.27a1.55,1.55,0,0,1-.27.87,7.63,7.63,0,0,1-1.56.1,2.37,2.37,0,0,1-.64-.07V11.66c.24,0,.52,0,.89,0a1.92,1.92,0,0,1,.81.09s.06.09.07.19l0,.46h.24c0-.28,0-.57,0-.86s0-.58,0-.89h-.24l0,.4a.29.29,0,0,1-.07.2,2.22,2.22,0,0,1-.81.08c-.37,0-.65,0-.89,0v-2a2.37,2.37,0,0,1,.64-.07,4.58,4.58,0,0,1,1.51.17c.06,0,.07.1.07.2V10h.27a5.46,5.46,0,0,1,.12-1.17l-1,0-1.82,0-1.3,0v.23l.37,0c.19,0,.28,0,.33.12a1.47,1.47,0,0,1,.07.58Z" transform="translate(0 0)"></path><path class="cls-4" d="M45.65,9.24a2.69,2.69,0,0,1,.78-.1c.6,0,1.22.23,1.22,1.07a1.13,1.13,0,0,1-1,1.07,2.62,2.62,0,0,1-.68,0l0,.1c.13.16.28.3.4.47l1.42,1.9c.1.14.21.27.31.42l.53,0,.55,0V14a.63.63,0,0,1-.47-.2l-1.74-2.28A1.66,1.66,0,0,0,48.42,10c0-.56-.33-1.18-1.56-1.16l-1.34,0-1.31,0v.23l.31,0c.19,0,.28,0,.33.11a1.47,1.47,0,0,1,.07.58v3.45a1.4,1.4,0,0,1-.07.58c-.05.08-.14.11-.33.12l-.37,0v.23c.4,0,.77,0,1.14,0s.72,0,1.12,0V14L46,14c-.19,0-.28,0-.32-.12a1.25,1.25,0,0,1-.07-.58Z" transform="translate(0 0)"></path><path class="cls-4" d="M52.09,8.79h-.24c-.21.55-.47,1.12-.71,1.66l-1.37,3.12a.57.57,0,0,1-.42.38l-.28,0v.23l.88,0,.89,0V14l-.29,0c-.24,0-.37-.06-.37-.22a4.44,4.44,0,0,1,.27-.8l.22-.52h2.21l.36.89a1.61,1.61,0,0,1,.16.49c0,.09-.15.15-.32.16l-.36,0v.23l1,0,1,0V14l-.26,0c-.14,0-.22-.12-.31-.27s-.18-.37-.25-.52ZM50.8,12.11l1-2.3,1,2.3Z" transform="translate(0 0)"></path><path class="cls-4" d="M56.69,9.8a1.3,1.3,0,0,1,.07-.58c0-.08.13-.11.32-.12l.37,0V8.85c-.4,0-.76,0-1.12,0s-.74,0-1.14,0v.23l.37,0c.19,0,.28,0,.33.12A1.47,1.47,0,0,1,56,9.8v3.64a.51.51,0,0,1-.2.46l-.24.12v.18l.66,0,1.68,0c.57,0,1.17,0,1.51,0,.06-.39.12-.9.16-1.33h-.24l-.09.39a1.33,1.33,0,0,1-.17.49,5.7,5.7,0,0,1-1.7.15,2.37,2.37,0,0,1-.64-.07Z" transform="translate(0 0)"></path><path class="cls-4" d="M67.07,9.8a1.47,1.47,0,0,1,.07-.58c0-.08.14-.11.32-.12l.37,0V8.85c-.4,0-.76,0-1.11,0s-.74,0-1.14,0v.23l.37,0c.18,0,.28,0,.32.12a1.3,1.3,0,0,1,.07.58v1.37H63.26V9.8a1.47,1.47,0,0,1,.07-.58c.05-.08.14-.11.33-.12l.36,0V8.85c-.4,0-.76,0-1.11,0s-.74,0-1.14,0v.23l.37,0c.18,0,.28,0,.32.12a1.3,1.3,0,0,1,.07.58v3.45a1.27,1.27,0,0,1-.07.58c0,.08-.14.11-.32.12l-.37,0v.23c.4,0,.76,0,1.14,0s.71,0,1.11,0V14l-.36,0c-.19,0-.28,0-.33-.12a1.43,1.43,0,0,1-.07-.58V11.54c.1,0,.3,0,.64,0h1.8c.34,0,.55,0,.64,0v1.71a1.27,1.27,0,0,1-.07.58c0,.08-.14.11-.32.12l-.37,0v.23c.4,0,.76,0,1.14,0s.71,0,1.11,0V14l-.37,0c-.18,0-.27,0-.32-.12a1.43,1.43,0,0,1-.07-.58Z" transform="translate(0 0)"></path><path class="cls-4" d="M70.91,14.33a3,3,0,0,0,3-3,2.53,2.53,0,0,0-2.82-2.63,2.71,2.71,0,0,0-2.89,2.81,2.63,2.63,0,0,0,2.73,2.8M71,9c1.43,0,2.11,1,2.11,2.55S72.44,14,71.15,14C69.63,14,69,12.59,69,11.24S69.61,9,71,9" transform="translate(0 0)"></path><path class="cls-4" d="M77.86,10.13A5.3,5.3,0,0,1,78,9a3.7,3.7,0,0,0-1.4-.32,1.81,1.81,0,0,0-2,1.74c0,.8.48,1.18,1.69,1.32.78.09,1.35.3,1.35,1A1.25,1.25,0,0,1,76.27,14c-.61,0-1.22-.29-1.26-.61L75,12.86H74.7a6.82,6.82,0,0,1,0,1.18,3.36,3.36,0,0,0,1.32.29,2.08,2.08,0,0,0,2.32-1.95c0-.87-.68-1.14-1.77-1.26s-1.27-.43-1.27-.95A1.1,1.1,0,0,1,76.39,9a1.74,1.74,0,0,1,.84.19c.28.18.31.25.34.46l0,.44Z" transform="translate(0 0)"></path><path class="cls-4" d="M80.5,9.24a2.69,2.69,0,0,1,.78-.1c.77,0,1.25.35,1.25,1.15a1.11,1.11,0,0,1-1.11,1.15,1.81,1.81,0,0,1-.51-.08l.08.28a2.45,2.45,0,0,0,.46,0A1.73,1.73,0,0,0,83.3,10c0-.87-.85-1.19-1.59-1.18l-1.31,0L79,8.85v.23l.35,0c.19,0,.28.05.33.13a1.16,1.16,0,0,1,.08.56v3.45a1.4,1.4,0,0,1-.07.58c0,.08-.14.11-.32.12L79,14v.23c.4,0,.76,0,1.14,0s.71,0,1.11,0V14l-.37,0c-.18,0-.28,0-.32-.12a1.25,1.25,0,0,1-.07-.58Z" transform="translate(0 0)"></path><path class="cls-4" d="M85.26,9.8a1.3,1.3,0,0,1,.07-.58c0-.08.13-.11.32-.12l.37,0V8.85c-.4,0-.76,0-1.12,0s-.74,0-1.14,0v.23l.37,0c.19,0,.28,0,.33.12a1.47,1.47,0,0,1,.07.58v3.45a1.43,1.43,0,0,1-.07.58c0,.08-.14.11-.33.12l-.37,0v.23c.4,0,.77,0,1.14,0s.72,0,1.12,0V14l-.37,0c-.19,0-.28,0-.32-.12a1.27,1.27,0,0,1-.07-.58Z" transform="translate(0 0)"></path><path class="cls-4" d="M88.35,13.25a1.25,1.25,0,0,1-.07.58c0,.08-.14.11-.32.12l-.37,0v.23c.4,0,.76,0,1.14,0s.71,0,1.11,0V14l-.37,0c-.18,0-.27,0-.32-.12a1.4,1.4,0,0,1-.07-.58V10c0-.29,0-.54,0-.77H90.3c.24,0,.3.07.31.25l0,.61h.24c0-.42,0-.84.06-1.24l-1.67,0H88.16l-1.66,0c0,.4,0,.82,0,1.24h.24l0-.61c0-.18.08-.25.31-.25h1.19c0,.23,0,.48,0,.77Z" transform="translate(0 0)"></path><path class="cls-4" d="M93.51,8.79h-.24c-.21.55-.47,1.12-.71,1.66l-1.37,3.12a.56.56,0,0,1-.41.38l-.29,0v.23l.89,0,.88,0V14L92,14c-.24,0-.37-.06-.37-.22a4.44,4.44,0,0,1,.27-.8l.21-.52h2.22l.35.89a1.61,1.61,0,0,1,.16.49c0,.09-.15.15-.31.16l-.36,0v.23l1,0,1,0V14l-.26,0c-.14,0-.22-.12-.31-.27s-.17-.37-.24-.52Zm-1.29,3.32,1-2.3,1,2.3Z" transform="translate(0 0)"></path><path class="cls-4" d="M97.91,9.8A1.47,1.47,0,0,1,98,9.22c0-.08.14-.11.32-.12l.37,0V8.85c-.4,0-.76,0-1.11,0s-.74,0-1.14,0v.23l.37,0c.18,0,.27,0,.32.12a1.3,1.3,0,0,1,.07.58v3.64a.5.5,0,0,1-.19.46l-.24.12v.18l.65,0,1.68,0c.57,0,1.18,0,1.52,0,.06-.39.11-.9.16-1.33h-.25l-.09.39a1.56,1.56,0,0,1-.16.49,5.7,5.7,0,0,1-1.7.15,2.44,2.44,0,0,1-.65-.07Z" transform="translate(0 0)"></path><path class="cls-4" d="M27.71,1.7a1.49,1.49,0,0,1,.06-.58c.05-.08.14-.1.33-.11l.32,0V.75l-.71,0L27,.75,25,5l-2-4.28-.73,0-.74,0V1l.34,0c.19,0,.28,0,.33.11a1.43,1.43,0,0,1,.07.58V5.15a1.43,1.43,0,0,1-.07.58c-.05.08-.14.1-.33.12l-.34,0V6.1l.9,0,.92,0V5.87l-.34,0c-.18,0-.27,0-.32-.12a1.43,1.43,0,0,1-.07-.58V1.66h0L24.7,6.18h.15c.14-.33.27-.67.42-1l1.37-2.91c.1-.21.2-.42.32-.63h0V5.15a1.49,1.49,0,0,1-.06.58c-.05.08-.14.1-.33.12l-.26,0V6.1c.29,0,.65,0,1,0s.72,0,1.12,0V5.87l-.37,0c-.19,0-.28,0-.33-.12a1.49,1.49,0,0,1-.06-.58Z" transform="translate(0 0)"></path><path class="cls-4" d="M31.49.69h-.24c-.21.55-.47,1.12-.71,1.66L29.17,5.47a.57.57,0,0,1-.42.38l-.28,0V6.1l.88,0,.89,0V5.87l-.29,0c-.24,0-.37-.06-.37-.22a4.44,4.44,0,0,1,.27-.8l.22-.52h2.21l.36.89a1.61,1.61,0,0,1,.16.49c0,.09-.15.15-.32.16l-.36,0V6.1l1,0,1,0V5.87l-.26,0c-.14,0-.22-.12-.31-.27s-.18-.37-.25-.52ZM30.2,4l1-2.3,1,2.3Z" transform="translate(0 0)"></path><path class="cls-4" d="M37.68,2a6.05,6.05,0,0,1,.1-1.09A3.6,3.6,0,0,0,36.39.62a1.81,1.81,0,0,0-2,1.74c0,.8.48,1.18,1.69,1.32.78.09,1.35.3,1.35,1a1.26,1.26,0,0,1-1.38,1.18c-.6,0-1.21-.29-1.25-.61l-.06-.52h-.25a6.82,6.82,0,0,1-.05,1.18,3.3,3.3,0,0,0,1.31.29,2.09,2.09,0,0,0,2.33-1.95c0-.87-.69-1.14-1.77-1.26s-1.27-.43-1.27-1A1.1,1.1,0,0,1,36.21.94a1.74,1.74,0,0,1,.84.19c.28.18.31.25.33.46l0,.44Z" transform="translate(0 0)"></path><path class="cls-4" d="M42.05,2A5.3,5.3,0,0,1,42.16.94,3.64,3.64,0,0,0,40.77.62a1.81,1.81,0,0,0-2,1.74c0,.8.47,1.18,1.68,1.32.79.09,1.36.3,1.36,1a1.26,1.26,0,0,1-1.38,1.18c-.61,0-1.22-.29-1.25-.61l-.07-.52H38.9a6,6,0,0,1-.06,1.18,3.4,3.4,0,0,0,1.32.29,2.08,2.08,0,0,0,2.32-1.95c0-.87-.68-1.14-1.77-1.26s-1.27-.43-1.27-1A1.1,1.1,0,0,1,40.58.94a1.71,1.71,0,0,1,.84.19c.29.18.32.25.34.46l.05.44Z" transform="translate(0 0)"></path><path class="cls-4" d="M45.54.69H45.3c-.21.55-.47,1.12-.71,1.66L43.22,5.47a.57.57,0,0,1-.42.38l-.28,0V6.1l.88,0,.89,0V5.87l-.29,0c-.24,0-.37-.06-.37-.22a4.44,4.44,0,0,1,.27-.8l.22-.52h2.21l.36.89a2,2,0,0,1,.16.49c0,.09-.15.15-.32.16l-.36,0V6.1l1,0,1,0V5.87l-.26,0c-.14,0-.22-.12-.31-.27s-.18-.37-.25-.52ZM44.25,4l1-2.3,1,2.3Z" transform="translate(0 0)"></path><path class="cls-4" d="M53.2,5.43l-.07-.08a2.93,2.93,0,0,1-1.56.46A2.36,2.36,0,0,1,49,3.31,2.16,2.16,0,0,1,51.24.94a3,3,0,0,1,.87.13c.35.13.66.27.66.48v.56H53A6.24,6.24,0,0,1,53.15.94,5.4,5.4,0,0,0,51.37.62a3.45,3.45,0,0,0-2.22.74,2.57,2.57,0,0,0-.94,2.07c0,1.75,1.25,2.8,3.1,2.8A3.72,3.72,0,0,0,53,5.81Z" transform="translate(0 0)"></path><path class="cls-4" d="M59.09,1.7a1.49,1.49,0,0,1,.06-.58c.05-.08.14-.11.33-.11l.37,0V.75c-.4,0-.76,0-1.12,0s-.74,0-1.14,0V1L58,1c.19,0,.28,0,.33.11a1.49,1.49,0,0,1,.06.58V3.07H55.28V1.7a1.27,1.27,0,0,1,.07-.58c0-.08.13-.11.32-.11L56,1V.75c-.4,0-.76,0-1.12,0s-.74,0-1.14,0V1l.37,0c.19,0,.28,0,.33.11a1.43,1.43,0,0,1,.07.58V5.15a1.43,1.43,0,0,1-.07.58c0,.08-.14.11-.33.12l-.37,0V6.1c.4,0,.77,0,1.14,0s.72,0,1.12,0V5.87l-.37,0c-.19,0-.28,0-.32-.12a1.27,1.27,0,0,1-.07-.58V3.44c.09,0,.3,0,.63,0h1.81c.33,0,.54,0,.63,0V5.15a1.49,1.49,0,0,1-.06.58c0,.08-.14.11-.33.12l-.37,0V6.1c.4,0,.76,0,1.14,0s.72,0,1.12,0V5.87l-.37,0c-.19,0-.28,0-.33-.12a1.49,1.49,0,0,1-.06-.58Z" transform="translate(0 0)"></path><path class="cls-4" d="M61.15,4.43c0,1.41.77,1.8,2.08,1.8,1.55,0,2.18-.66,2.18-2.31V1.7a1.3,1.3,0,0,1,.07-.58c0-.08.13-.1.32-.11l.34,0V.75l-.93,0-.89,0V1l.34,0c.18,0,.28,0,.32.11a1.3,1.3,0,0,1,.07.58V4.16a1.4,1.4,0,0,1-1.58,1.59c-1,0-1.59-.31-1.59-1.41V1.7A1.47,1.47,0,0,1,62,1.12c0-.08.14-.11.32-.11l.37,0V.75c-.4,0-.76,0-1.11,0s-.74,0-1.14,0V1l.37,0c.18,0,.28,0,.32.11a1.3,1.3,0,0,1,.07.58Z" transform="translate(0 0)"></path><path class="cls-4" d="M69.9,2A5.3,5.3,0,0,1,70,.94a3.7,3.7,0,0,0-1.4-.32,1.81,1.81,0,0,0-2,1.74c0,.8.48,1.18,1.69,1.32.78.09,1.35.3,1.35,1a1.25,1.25,0,0,1-1.37,1.18c-.61,0-1.22-.29-1.26-.61L67,4.76h-.25a6.82,6.82,0,0,1,0,1.18A3.36,3.36,0,0,0,68,6.23a2.08,2.08,0,0,0,2.32-1.95c0-.87-.69-1.14-1.77-1.26s-1.27-.43-1.27-1A1.1,1.1,0,0,1,68.43.94a1.74,1.74,0,0,1,.84.19c.28.18.31.25.34.46l0,.44Z" transform="translate(0 0)"></path><path class="cls-4" d="M71.67,5.15a1.43,1.43,0,0,1-.07.58c0,.08-.14.1-.33.12l-.27,0V6.1l.82,0,1.68,0c.57,0,1.18,0,1.51,0a6.43,6.43,0,0,1,.13-1.27h-.27a1.55,1.55,0,0,1-.27.87,7.57,7.57,0,0,1-1.56.1,2.37,2.37,0,0,1-.64-.07V3.56c.24,0,.52,0,.89,0a2,2,0,0,1,.82.09s0,.09.06.19l0,.46h.23c0-.28,0-.57,0-.86s0-.58,0-.89h-.23l0,.4a.36.36,0,0,1-.06.2,2.33,2.33,0,0,1-.82.08c-.37,0-.65,0-.89,0v-2A2.37,2.37,0,0,1,73,1.07a4.58,4.58,0,0,1,1.51.17c.06,0,.07.1.07.2v.5h.27A5.46,5.46,0,0,1,75,.77l-1,0-1.81,0L70.9.75V1l.37,0c.19,0,.28,0,.33.12a1.43,1.43,0,0,1,.07.58Z" transform="translate(0 0)"></path><path class="cls-4" d="M77.54,5.15a1.43,1.43,0,0,1-.07.58c0,.08-.14.11-.32.12l-.37,0V6.1c.4,0,.76,0,1.14,0s.71,0,1.11,0V5.87l-.37,0c-.18,0-.27,0-.32-.12a1.43,1.43,0,0,1-.07-.58V1.9c0-.29,0-.54,0-.77h1.19c.23,0,.3.07.31.25l0,.61h.24c0-.42,0-.84.05-1.24l-1.66,0H77.35l-1.67,0c0,.4.06.82.06,1.24H76l0-.61c0-.18.08-.25.31-.25h1.19c0,.23,0,.48,0,.77Z" transform="translate(0 0)"></path><path class="cls-4" d="M82.44,5.15a1.27,1.27,0,0,1-.07.58c0,.08-.14.11-.32.12l-.37,0V6.1c.4,0,.76,0,1.14,0s.72,0,1.12,0V5.87l-.37,0c-.19,0-.28,0-.33-.12a1.43,1.43,0,0,1-.07-.58V1.9c0-.29,0-.54,0-.77h1.2c.23,0,.29.07.3.25l0,.61H85c0-.42,0-.84.06-1.24l-1.66,0H82.25l-1.66,0c0,.4,0,.82,0,1.24h.24l0-.61c0-.18.08-.25.31-.25h1.19c0,.23,0,.48,0,.77Z" transform="translate(0 0)"></path><path class="cls-4" d="M88.79,2A5.3,5.3,0,0,1,88.9.94,3.69,3.69,0,0,0,87.51.62a1.81,1.81,0,0,0-2,1.74c0,.8.47,1.18,1.68,1.32.79.09,1.36.3,1.36,1A1.26,1.26,0,0,1,87.2,5.89c-.61,0-1.22-.29-1.25-.61l-.07-.52h-.24a6,6,0,0,1-.06,1.18,3.4,3.4,0,0,0,1.32.29,2.08,2.08,0,0,0,2.32-1.95c0-.87-.68-1.14-1.77-1.26s-1.27-.43-1.27-1A1.1,1.1,0,0,1,87.32.94a1.71,1.71,0,0,1,.84.19c.29.18.32.25.34.46l0,.44Z" transform="translate(0 0)"></path></g></g></g></svg> 